<svg width="178" height="60" viewBox="0 0 178 60" fill="none" xmlns="http://www.w3.org/2000/svg">
<path d="M7.9163 0H170.657C174.626 0 177.852 3.228 177.852 7.2V52.8C177.852 56.772 174.626 60 170.657 60H7.9163C3.94673 60 0.720703 56.772 0.720703 52.8V7.2C0.720703 3.228 3.94673 0 7.9163 0Z" fill="white"/>
<path d="M39.5294 28.4443C39.4933 24.163 43.0536 22.0822 43.21 21.9866C41.1893 19.0686 38.0619 18.662 36.9674 18.6261C34.3452 18.3511 31.7953 20.1927 30.4601 20.1927C29.101 20.1927 27.0321 18.662 24.8189 18.6979C21.9683 18.7457 19.286 20.3841 17.8306 22.9433C14.8115 28.1453 17.0608 35.7989 19.9596 40.0084C21.415 42.0653 23.0989 44.3733 25.3241 44.2896C27.4892 44.2059 28.3071 42.9143 30.9172 42.9143C33.5153 42.9143 34.2731 44.2896 36.5344 44.2417C38.8678 44.2059 40.3232 42.1729 41.7305 40.0921C43.4024 37.7362 44.076 35.4042 44.1001 35.2847C44.0399 35.2607 39.5775 33.5626 39.5294 28.4443" fill="black"/>
<path d="M35.2593 15.8638C36.426 14.4168 37.2199 12.4436 37.0034 10.4346C35.3195 10.5063 33.2025 11.5946 31.9877 13.0177C30.9172 14.2733 29.9549 16.3183 30.1955 18.2436C32.0959 18.3871 34.0445 17.2869 35.2593 15.8638" fill="black"/>
<path fill-rule="evenodd" clip-rule="evenodd" d="M68.2262 44.2617H71.2425L65.5331 26.3667H62.0141L56.3286 44.2617H59.2611L60.8291 39.0035H66.5745L68.2262 44.2617ZM64.5875 32.1338L66.0837 36.7984H61.3318L62.8041 32.1338C63.1871 30.6557 63.4624 29.5289 63.6419 28.7656H63.7018C64.1327 30.5345 64.4319 31.6492 64.5875 32.1338Z" fill="black"/>
<path fill-rule="evenodd" clip-rule="evenodd" d="M84.0858 42.8562C85.2708 41.5841 85.8573 39.8515 85.8573 37.6586C85.8573 35.6837 85.3546 34.1086 84.3252 32.897C83.3198 31.6976 82.075 31.0918 80.5668 31.0918C78.6517 31.0918 77.2154 31.8672 76.2698 33.4059H76.2219L76.0663 31.3583H73.5767C73.6485 32.8122 73.6844 34.2177 73.6844 35.5989V49.4957H76.5211V42.723C77.2632 43.9466 78.4722 44.5524 80.1598 44.5524C81.7159 44.5524 83.0325 43.9951 84.0858 42.8562ZM82.1348 34.6538C82.6974 35.4656 82.9727 36.4954 82.9727 37.7555C82.9727 39.1246 82.6734 40.215 82.075 41.051C81.4765 41.8748 80.6506 42.2989 79.5853 42.2989C78.6756 42.2989 77.9335 41.9718 77.371 41.3296C76.8084 40.6875 76.5211 39.8879 76.5211 38.9549V36.7983C76.5211 36.5681 76.569 36.2774 76.6528 35.926C76.8204 35.1627 77.2034 34.5569 77.766 34.0844C78.3405 33.624 78.9749 33.3817 79.6691 33.3817C80.6985 33.3817 81.5244 33.8057 82.1348 34.6538Z" fill="black"/>
<path fill-rule="evenodd" clip-rule="evenodd" d="M98.7362 42.8562C99.9212 41.5841 100.508 39.8515 100.508 37.6586C100.508 35.6837 100.005 34.1086 98.9756 32.897C97.9702 31.6976 96.7254 31.0918 95.2172 31.0918C93.3021 31.0918 91.8658 31.8672 90.9202 33.4059H90.8723L90.7167 31.3583H88.2271C88.2989 32.8122 88.3348 34.2177 88.3348 35.5989V49.4957H91.1715V42.723C91.9136 43.9466 93.1226 44.5524 94.8102 44.5524C96.3663 44.5524 97.6829 43.9951 98.7362 42.8562ZM96.7852 34.6538C97.3478 35.4656 97.6231 36.4954 97.6231 37.7555C97.6231 39.1246 97.3358 40.215 96.7254 41.051C96.1388 41.8748 95.301 42.2989 94.2357 42.2989C93.326 42.2989 92.5839 41.9718 92.0214 41.3296C91.4588 40.6875 91.1715 39.8879 91.1715 38.9549V36.7983C91.1715 36.5681 91.2194 36.2774 91.3032 35.926C91.4827 35.1627 91.8538 34.5569 92.4164 34.0844C92.9909 33.624 93.6253 33.3817 94.3195 33.3817C95.3489 33.3817 96.1748 33.8057 96.7852 34.6538Z" fill="black"/>
<path d="M116.906 39.2458C116.906 40.7724 116.379 42.0082 115.338 42.9654C114.189 44.0073 112.585 44.5283 110.526 44.5283C108.623 44.5283 107.103 44.1527 105.954 43.4136L106.612 41.0268C107.857 41.7659 109.221 42.1415 110.705 42.1415C111.771 42.1415 112.609 41.8992 113.195 41.4145C113.794 40.9299 114.093 40.2757 114.093 39.4639C114.093 38.737 113.841 38.1312 113.363 37.6344C112.872 37.1377 112.058 36.6773 110.921 36.2532C107.797 35.078 106.253 33.3697 106.253 31.1282C106.253 29.6622 106.803 28.4628 107.893 27.5177C108.982 26.5848 110.43 26.1123 112.238 26.1123C113.841 26.1123 115.182 26.391 116.247 26.9604L115.529 29.2866C114.524 28.7414 113.399 28.4628 112.13 28.4628C111.136 28.4628 110.346 28.7172 109.784 29.2018C109.317 29.6501 109.078 30.1832 109.078 30.8253C109.078 31.5281 109.353 32.1217 109.892 32.57C110.358 32.9941 111.22 33.4545 112.465 33.9512C113.985 34.5691 115.098 35.2961 115.816 36.1321C116.547 36.968 116.906 38.01 116.906 39.2458" fill="black"/>
<path d="M126.29 33.5152H123.166V39.7791C123.166 41.3663 123.716 42.1659 124.818 42.1659C125.32 42.1659 125.739 42.1175 126.074 42.0326L126.158 44.2135C125.596 44.4195 124.866 44.5285 123.956 44.5285C122.831 44.5285 121.969 44.1771 121.335 43.4865C120.7 42.7959 120.389 41.6328 120.389 40.0093V33.5031H118.534V31.3586H120.389V28.9961L123.166 28.1479V31.3586H126.29V33.5152" fill="black"/>
<path fill-rule="evenodd" clip-rule="evenodd" d="M138.666 42.5898C139.779 41.3176 140.342 39.6941 140.342 37.7071C140.342 35.7807 139.803 34.2056 138.714 32.9941C137.577 31.734 136.069 31.104 134.202 31.104C132.263 31.104 130.719 31.7461 129.57 33.0183C128.432 34.2905 127.858 35.9261 127.858 37.9252C127.858 39.8395 128.409 41.4267 129.522 42.6746C130.635 43.9225 132.131 44.5525 133.998 44.5525C135.937 44.5525 137.493 43.8983 138.666 42.5898ZM136.655 34.7266C137.158 35.5747 137.41 36.5803 137.41 37.7677C137.41 38.955 137.146 39.9728 136.632 40.8451C136.009 41.8871 135.159 42.408 134.082 42.408C132.981 42.408 132.119 41.8992 131.509 40.8693C131.006 40.0333 130.755 39.0156 130.755 37.8283C130.755 36.6046 130.994 35.5747 131.509 34.7266C132.095 33.6968 132.969 33.1879 134.106 33.1879C135.207 33.1879 136.057 33.6968 136.655 34.7266Z" fill="black"/>
<path d="M149.559 33.8784C149.283 33.83 148.984 33.8057 148.661 33.8057C147.667 33.8057 146.889 34.1813 146.351 34.9446C145.884 35.611 145.645 36.4712 145.645 37.4889V44.2617H142.808V35.4171C142.808 33.9269 142.784 32.5699 142.724 31.3583H145.19L145.298 33.83H145.381C145.681 32.9819 146.147 32.2913 146.794 31.7824C147.428 31.322 148.11 31.0918 148.841 31.0918C149.104 31.0918 149.343 31.116 149.547 31.1403L149.559 33.8784" fill="black"/>
<path fill-rule="evenodd" clip-rule="evenodd" d="M162.115 38.4948C162.186 38.1434 162.222 37.7072 162.222 37.1984C162.222 35.587 161.839 34.2421 161.085 33.1275C160.152 31.7463 158.751 31.0557 156.92 31.0557C155.053 31.0557 153.568 31.7463 152.467 33.1275C151.414 34.4239 150.887 36.0474 150.887 37.9859C150.887 39.9608 151.45 41.5479 152.575 42.7232C153.7 43.8984 155.256 44.4921 157.231 44.4921C158.871 44.4921 160.295 44.2255 161.504 43.6924L161.061 41.7054C160.032 42.1053 158.883 42.3112 157.626 42.3112C156.489 42.3112 155.567 42.0083 154.849 41.4147C154.059 40.7483 153.652 39.7669 153.616 38.4948H162.115ZM158.967 34.2542C159.35 34.8721 159.541 35.6112 159.517 36.4593L153.628 36.4472C153.712 35.587 153.999 34.8358 154.466 34.2179C155.041 33.4425 155.795 33.0548 156.716 33.0548C157.722 33.0548 158.476 33.4546 158.967 34.2542Z" fill="black"/>
<path fill-rule="evenodd" clip-rule="evenodd" d="M63.0141 20.6883H64.4953L61.6762 11.7837H59.9561L57.1729 20.6883H58.6063L59.3827 18.0758H62.2018L63.0141 20.6883ZM61.2223 14.6415L61.9509 16.9719H59.6216L60.3383 14.6415C60.4778 14.1276 60.5778 13.7063 60.6578 13.3696C60.6942 13.2161 60.7265 13.0802 60.7564 12.9612H60.7803C60.8063 13.0624 60.8313 13.1595 60.8551 13.2524C61.0392 13.9693 61.1588 14.4352 61.2223 14.6415Z" fill="black"/>
<path d="M71.4713 14.2612L69.1062 20.6883H67.7564L65.4629 14.2612H66.956L68.0192 17.6587C68.1983 18.2229 68.3536 18.7626 68.4731 19.2778H68.5089C68.6164 18.8117 68.7717 18.272 68.9628 17.6587L70.014 14.2612H71.4713" fill="black"/>
<path fill-rule="evenodd" clip-rule="evenodd" d="M76.4046 19.9524L76.5121 20.6883L77.7663 20.7128C77.6947 20.3326 77.6708 19.8297 77.6708 19.1797V16.8125C77.6708 15.034 76.8465 14.1509 75.2101 14.1509C74.3619 14.1509 73.6333 14.3349 73.0599 14.7028L73.3466 15.635C73.8244 15.3161 74.3619 15.1566 74.9831 15.1566C75.8431 15.1566 76.2851 15.5737 76.2851 16.42V16.5426C73.9677 16.5426 72.6299 17.3644 72.6299 18.9466C72.6299 20.026 73.4183 20.8355 74.5411 20.8355C75.3295 20.8355 75.9387 20.5411 76.3687 19.9524H76.4046ZM74.0036 18.7872C74.0036 17.8673 74.78 17.4871 76.321 17.4871V18.4806C76.321 19.241 75.664 19.7929 74.9592 19.7929C74.3978 19.7929 74.0036 19.4618 74.0036 18.7872Z" fill="black"/>
<path fill-rule="evenodd" clip-rule="evenodd" d="M79.9404 12.3478C79.9404 12.8384 80.2988 13.2064 80.7647 13.2064C81.2783 13.2064 81.6367 12.8629 81.6367 12.3478C81.6486 11.8572 81.2664 11.5015 80.7885 11.5015C80.3107 11.5015 79.9404 11.8572 79.9404 12.3478ZM81.4814 20.676V14.2612H80.0957V20.676H81.4814Z" fill="black"/>
<path d="M83.9541 11.3174H85.3397V20.6759H83.9541V11.3174Z" fill="black"/>
<path fill-rule="evenodd" clip-rule="evenodd" d="M91.1331 19.9525L91.2406 20.6884V20.7006H92.4829C92.4232 20.3204 92.3993 19.8175 92.3993 19.1675V16.8003C92.3993 15.0218 91.5751 14.1387 89.9386 14.1387C89.0905 14.1387 88.3618 14.3227 87.7884 14.6906L88.0751 15.635C88.5529 15.3161 89.0905 15.1567 89.7116 15.1567C90.5717 15.1567 91.0136 15.5737 91.0136 16.42V16.5427C88.6963 16.5427 87.3584 17.3645 87.3584 18.9467C87.3584 20.026 88.1468 20.8356 89.2696 20.8356C90.058 20.8356 90.6672 20.5412 91.0973 19.9525H91.1331ZM88.7321 18.7872C88.7321 17.8673 89.5085 17.4871 91.0495 17.4871V18.4806C91.0495 19.2411 90.3925 19.793 89.6877 19.793C89.1263 19.793 88.7321 19.4618 88.7321 18.7872Z" fill="black"/>
<path fill-rule="evenodd" clip-rule="evenodd" d="M96.0665 19.6946C96.4965 20.4551 97.1535 20.8353 98.0374 20.8353C99.6261 20.8353 100.797 19.3757 100.797 17.3887C100.797 15.4631 99.7456 14.1384 98.2405 14.1384C97.3207 14.1384 96.6637 14.4941 96.2456 15.2055H96.2217V11.3174H94.8241V18.9587C94.8241 19.5965 94.8122 20.173 94.7764 20.6881H95.9589L96.0426 19.6946H96.0665ZM96.2217 16.9594C96.2217 15.966 96.9504 15.2546 97.7507 15.2546C98.7422 15.2546 99.3872 16.1377 99.3872 17.4378C99.3872 18.8238 98.7661 19.6946 97.7268 19.6946C96.8787 19.6946 96.2217 18.971 96.2217 18.0879V16.9594Z" fill="black"/>
<path d="M102.851 11.3174H104.237V20.6759H102.851V11.3174Z" fill="black"/>
<path fill-rule="evenodd" clip-rule="evenodd" d="M107.629 17.8184H111.798C111.846 17.6467 111.858 17.4259 111.858 17.1683C111.858 15.3285 110.843 14.1143 109.254 14.1143C107.474 14.1143 106.292 15.5984 106.292 17.5608C106.292 19.5355 107.45 20.7989 109.409 20.7989C110.221 20.7989 110.914 20.6762 111.5 20.4064L111.285 19.4129C110.783 19.6091 110.221 19.7195 109.6 19.7195C108.442 19.7195 107.653 19.0327 107.629 17.8184ZM109.158 15.1078C110.042 15.1078 110.532 15.8069 110.532 16.8004H107.641C107.737 15.8191 108.358 15.1078 109.158 15.1078Z" fill="black"/>
<path fill-rule="evenodd" clip-rule="evenodd" d="M117.209 17.5362C117.209 19.4373 118.392 20.8356 120.22 20.8356C122.095 20.8356 123.337 19.425 123.337 17.4258C123.337 15.4756 122.131 14.1387 120.327 14.1387C118.416 14.1387 117.209 15.5492 117.209 17.5362ZM118.631 17.4871C118.631 16.1502 119.276 15.1812 120.279 15.1812C121.259 15.1812 121.892 16.1502 121.904 17.4503C121.904 18.7382 121.247 19.7685 120.267 19.7685C119.288 19.7685 118.631 18.8118 118.631 17.4871Z" fill="black"/>
<path d="M130.803 20.6884H129.417V16.9966C129.417 15.8559 128.987 15.2917 128.151 15.2917C127.327 15.2917 126.765 16.0153 126.765 16.8616V20.6762H125.38V16.1012C125.38 15.537 125.368 14.9237 125.332 14.2614H126.55L126.61 15.2549H126.646C127.016 14.568 127.781 14.1265 128.629 14.1265C129.943 14.1265 130.803 15.1568 130.803 16.8371V20.6884" fill="black"/>
<path d="M139.894 15.3408H138.365V18.4562C138.365 19.2535 138.639 19.646 139.177 19.646C139.416 19.646 139.631 19.6215 139.798 19.5847L139.834 20.664C139.559 20.7744 139.201 20.8235 138.759 20.8235C137.66 20.8235 137.015 20.1979 137.015 18.5789V15.3408H136.107V14.2738H137.015V13.0963L138.377 12.667V14.2615H139.906V15.3408" fill="black"/>
<path d="M147.252 20.6881H145.866V17.0208C145.866 15.8678 145.436 15.2914 144.6 15.2914C143.883 15.2914 143.214 15.7942 143.214 16.8123V20.6759H141.829V11.3174H143.214V15.1687H143.238C143.68 14.4696 144.301 14.1262 145.114 14.1262C146.439 14.1262 147.252 15.181 147.252 16.8613V20.6881" fill="black"/>
<path fill-rule="evenodd" clip-rule="evenodd" d="M150.178 17.8184H154.347C154.395 17.6467 154.407 17.4259 154.407 17.1683C154.407 15.3285 153.391 14.1143 151.803 14.1143C150.023 14.1143 148.84 15.5984 148.84 17.5608C148.84 19.5355 149.999 20.7989 151.958 20.7989C152.77 20.7989 153.463 20.6762 154.048 20.4064L153.833 19.4129C153.332 19.6091 152.77 19.7195 152.149 19.7195C150.99 19.7195 150.202 19.0327 150.178 17.8184ZM151.707 15.1078C152.591 15.1078 153.081 15.8069 153.081 16.8004H150.19C150.274 15.8191 150.907 15.1078 151.707 15.1078Z" fill="black"/>
</svg>

