<svg width="112" height="105" viewBox="0 0 112 105" fill="none" xmlns="http://www.w3.org/2000/svg">
<path d="M91.8407 41.2546C92.0714 39.5505 92.1843 37.8087 92.1708 36.038C92.0194 16.2629 75.9272 0.126172 56.2343 0.000743872C36.1497 -0.12688 19.8282 16.184 19.8282 36.3229C19.8282 37.9957 19.941 39.6418 20.1591 41.2544C21.0435 47.7887 17.9963 54.2459 12.4565 57.7869C4.66659 62.7662 0 69.1083 0 76.0146C0 92.0227 25.072 105 56 105C86.928 105 112 92.0227 112 76.0146C112 69.1083 107.333 62.7662 99.5431 57.7869C94.0032 54.2459 90.9562 47.7887 91.8407 41.2546Z" fill="#81CFFA"/>
<path d="M77.1289 96H34.8709C32.1808 96 30 93.8321 30 91.158V8.84205C30 6.16791 32.1808 4 34.8709 4H77.1291C79.8192 4 82 6.16791 82 8.84205V91.1577C82 93.8321 79.8192 96 77.1289 96Z" fill="#2149FE"/>
<path d="M30 16H82V85H30V16Z" fill="#8CC27B"/>
<path d="M35.9173 26H23L29.8046 15H40L35.9173 26Z" fill="#77A868"/>
<path d="M49.5703 26H36L40.2892 15H51L49.5703 26Z" fill="#77A868"/>
<path d="M62 26H49L50.3696 15H60.6304L62 26Z" fill="#77A868"/>
<path d="M76 26H62.4297L61 15H71.7108L76 26Z" fill="#77A868"/>
<path d="M89 26H76.0827L72 15H82.1954L89 26Z" fill="#77A868"/>
<path d="M29.5001 38C25.9101 38 23 35.005 23 31.3104V26H36V31.3104C36 35.005 33.0899 38 29.5001 38Z" fill="#77A868"/>
<path d="M42.5001 38C38.9101 38 36 35.005 36 31.3104V26H49V31.3104C49 35.005 46.0899 38 42.5001 38Z" fill="#77A868"/>
<path d="M55.5001 38C51.9101 38 49 35.005 49 31.3104V26H62V31.3104C62.0002 35.005 59.0901 38 55.5001 38Z" fill="#77A868"/>
<path d="M69.5001 38C65.9101 38 63 35.005 63 31.3104V26H76V31.3104C76.0002 35.005 73.0901 38 69.5001 38Z" fill="#77A868"/>
<path d="M82.5001 38C78.9101 38 76 35.005 76 31.3104V26H89V31.3104C89.0002 35.005 86.0901 38 82.5001 38Z" fill="#77A868"/>
<path d="M59.9113 11H51.0887C50.4873 11 50 10.5522 50 10C50 9.4478 50.4873 9 51.0887 9H59.9113C60.5127 9 61 9.4478 61 10C61 10.5522 60.5125 11 59.9113 11Z" fill="white"/>
<path d="M52 89.1029V91.8971C52 92.5061 52.4955 93 53.1065 93H59.8935C60.5045 93 61 92.5061 61 91.8971V89.1029C61 88.4939 60.5045 88 59.8935 88H53.1065C52.4953 88 52 88.4937 52 89.1029Z" fill="white"/>
<path d="M82.8135 73H28.1865C26.9789 73 26 72.018 26 70.8067V52.1933C26 50.982 26.9789 50 28.1865 50H82.8135C84.0211 50 85 50.982 85 52.1933V70.8067C85 72.018 84.0211 73 82.8135 73Z" fill="#3E61FF"/>
<path fill-rule="evenodd" clip-rule="evenodd" d="M89.999 26.3269C89.9966 26.1295 89.9356 25.9212 89.8291 25.754L87.3231 21.8313L83.0678 8.92529C83.0678 5.65802 80.3919 3 77.1028 3H34.8977C31.6087 3 28.9328 5.65802 28.9328 8.92529V12.3292L24.6772 21.8313L22.1712 25.754C22.0621 25.9247 22 26.1374 22 26.3396V31.5282C22 33.8375 23.0399 35.909 24.6772 37.3092V41.6387C24.677 42.1181 24.677 42.6141 24.8537 43.0686C25.1321 43.7841 25.7683 44.1944 26.5998 44.1944H28.9328V48.8212H28.5087C26.6885 48.8212 25.2076 50.2922 25.2076 52.1003V70.652C25.2076 72.46 26.6885 73.931 28.5087 73.931H28.9328V91.0747C28.9328 94.342 31.6087 97 34.8977 97H77.1026C80.3916 97 83.0675 94.342 83.0675 91.0747V73.931H83.4916C85.3119 73.931 86.7927 72.46 86.7927 70.652V52.1003C86.7927 50.2922 85.3119 48.8212 83.4916 48.8212H31.1336V39.0185C33.3053 38.6036 35.1548 37.2786 36.2606 35.4585C37.6064 37.673 40.0521 39.1571 42.8405 39.1571C45.6288 39.1571 48.0747 37.673 49.4203 35.4585C50.766 37.673 53.2117 39.1571 56.0001 39.1571C58.7884 39.1571 61.2343 37.673 62.5799 35.4585C63.9256 37.673 66.3713 39.1571 69.1597 39.1571C71.948 39.1571 74.3939 37.673 75.7395 35.4585C76.8453 37.2786 78.6949 38.6036 80.8666 39.0185V42.4816C80.8666 43.0854 81.3591 43.5746 81.9669 43.5746C82.5748 43.5746 83.0673 43.0854 83.0673 42.4816V39.1206C86.9525 38.7459 89.9999 35.4843 89.9999 31.5284V26.3398C90 26.3384 90 26.3371 89.9999 26.3357L89.9995 26.3317L89.999 26.3269ZM34.8977 94.8142C32.822 94.8142 31.1336 93.1366 31.1336 91.0749V85.6052H80.867V91.0749C80.867 93.1366 79.1784 94.8142 77.1028 94.8142H34.8977ZM83.4918 71.745C84.0986 71.745 84.5922 71.2547 84.5922 70.652V52.1003C84.5922 51.4978 84.0986 51.0072 83.4918 51.0072H28.5087C27.902 51.0072 27.4083 51.4976 27.4083 52.1003V70.652C27.4083 71.2547 27.902 71.745 28.5087 71.745H30.0341C30.0803 71.745 30.1259 71.7478 30.1706 71.7533C29.6273 71.8201 29.2068 72.2802 29.2068 72.838C29.2068 73.4418 29.6994 73.931 30.3072 73.931H31.1336V83.4187H80.867V73.931H31.1336V72.8465C31.1336 72.8451 31.1338 72.8438 31.134 72.8424C31.1342 72.841 31.1344 72.8396 31.1344 72.838C31.1344 72.2802 30.714 71.8201 30.1706 71.7533C30.2154 71.7478 30.261 71.745 30.3072 71.745H83.4918ZM30.6379 16.5813H38.8234L35.502 25.2468H25.1022L30.6379 16.5813ZM49.558 16.5813H41.1784L37.8568 25.2468H48.4508L49.558 16.5813ZM51.7764 16.5813H60.2244L61.3316 25.2468H50.6694L51.7764 16.5813ZM62.4425 16.5813L63.5497 25.2468H74.1435L70.8221 16.5813H62.4425ZM76.4985 25.2468L73.1771 16.5813H81.3626L86.8984 25.2468H76.4985ZM77.1026 5.18605H34.8977C32.8222 5.18605 31.1336 6.86363 31.1336 8.92529V14.395H80.8668V8.92529C80.8668 6.86363 79.1784 5.18605 77.1026 5.18605ZM26.8819 42.0083C26.878 41.8859 26.878 41.7486 26.878 41.6393V38.6291C27.5252 38.8821 28.214 39.0513 28.9326 39.1206V42.0083H26.8819ZM24.201 31.5284C24.201 34.5296 26.6592 36.9712 29.6806 36.9712C32.7023 36.9712 35.1603 34.5296 35.1603 31.5284V27.4328H24.201V31.5284ZM42.8405 36.9712C39.819 36.9712 37.361 34.5296 37.361 31.5284V27.4328H48.3201V31.5284C48.3201 34.5296 45.8621 36.9712 42.8405 36.9712ZM50.5208 31.5284C50.5208 34.5296 52.9789 36.9712 56.0003 36.9712C59.0217 36.9712 61.4797 34.5296 61.4799 31.5284V27.4328H50.5208V31.5284ZM69.1601 36.9712C66.1387 36.9712 63.6807 34.5296 63.6807 31.5284V27.4328H74.6398V31.5284C74.6395 34.5296 72.1815 36.9712 69.1601 36.9712ZM76.8405 31.5284C76.8405 34.5296 79.2985 36.9712 82.3199 36.9712C85.3413 36.9712 87.7996 34.5296 87.7998 31.5284V27.4328H76.8405V31.5284Z" fill="#2149FE"/>
<path d="M38 68C38 68.5523 37.5523 69 37 69H32C31.4477 69 31 68.5523 31 68V63C31 62.4477 31.4477 62 32 62H37C37.5523 62 38 62.4477 38 63V68Z" fill="white"/>
<path d="M96 45C95.7442 45 95.488 44.9024 95.293 44.707C94.9023 44.3166 94.9023 43.6834 95.293 43.293L97.293 41.293C97.6832 40.9023 98.3168 40.9023 98.707 41.293C99.0977 41.6834 99.0977 42.3166 98.707 42.707L96.707 44.707C96.5118 44.9024 96.2558 45 96 45Z" fill="black"/>
<path d="M14 82C13.7442 82 13.488 81.9024 13.293 81.707C12.9023 81.3166 12.9023 80.6834 13.293 80.293L15.293 78.293C15.6832 77.9023 16.3168 77.9023 16.707 78.293C17.0977 78.6834 17.0977 79.3166 16.707 79.707L14.707 81.707C14.512 81.9024 14.256 82 14 82Z" fill="black"/>
<path d="M12.8334 49C12.5349 49 12.236 48.9024 12.0085 48.707L10.5 47.4142L8.99147 48.707C8.53623 49.0976 7.79702 49.0976 7.34178 48.707C6.88607 48.3166 6.88607 47.6834 7.34178 47.293L9.67515 45.293C10.1304 44.9023 10.8696 44.9023 11.3248 45.293L13.6582 47.293C14.1139 47.6834 14.1139 48.3166 13.6582 48.707C13.4307 48.9024 13.132 49 12.8334 49Z" fill="black"/>
<path d="M92.8334 7C92.5349 7 92.236 6.9024 92.0085 6.707L90.5 5.41418L88.9915 6.707C88.5362 7.0976 87.797 7.0976 87.3418 6.707C86.8861 6.31659 86.8861 5.68338 87.3418 5.29298L89.6752 3.29295C90.1304 2.90235 90.8696 2.90235 91.3248 3.29295L93.6582 5.29298C94.1139 5.68338 94.1139 6.31659 93.6582 6.707C93.4305 6.9024 93.1318 7 92.8334 7Z" fill="black"/>
<path d="M99.8334 85C99.5349 85 99.236 84.9024 99.0085 84.707L97.5 83.4142L95.9915 84.707C95.5362 85.0976 94.797 85.0976 94.3418 84.707C93.8861 84.3166 93.8861 83.6834 94.3418 83.293L96.6752 81.293C97.1304 80.9023 97.8696 80.9023 98.3248 81.293L100.658 83.293C101.114 83.6834 101.114 84.3166 100.658 84.707C100.43 84.9024 100.132 85 99.8334 85Z" fill="black"/>
</svg>
