<svg width="132" height="132" viewBox="0 0 132 132" fill="none" xmlns="http://www.w3.org/2000/svg">
<path d="M129.389 38.6023C123.625 23.8254 105.87 14.9639 90.8317 20.8281C73.6661 27.5217 79.3575 55.0308 63.7658 60.5934C55.3434 63.5982 42.8926 52.3737 34.3832 50.6526C18.7028 47.4807 4.50769 58.6281 1.01227 74.0653C-2.55378 89.8142 3.16578 110.849 20.3397 115.124C40.7971 120.215 51.4532 101.687 68.6148 96.3665C86.2259 90.9067 105.808 103.801 120.387 88.1126C131.158 76.5221 135.097 53.2348 129.389 38.6023Z" fill="#81CFFA"/>
<path d="M59.6787 45.0129C59.3499 45.0129 59.0214 44.8865 58.7704 44.6334L57.2384 43.0886L55.7063 44.6336C55.2047 45.1396 54.3916 45.1396 53.8899 44.6336C53.3882 44.1279 53.3882 43.3077 53.8899 42.802L56.3303 40.3409C56.832 39.8349 57.645 39.8349 58.1467 40.3409L60.5871 42.802C61.0888 43.3077 61.0888 44.1279 60.5871 44.6336C60.3361 44.8865 60.0076 45.0129 59.6787 45.0129Z" fill="black"/>
<path d="M38.1651 131.052C37.8365 131.052 37.5075 130.925 37.257 130.672L35.7247 129.127L34.1924 130.672C33.6912 131.178 32.8774 131.178 32.3763 130.672C31.8746 130.167 31.8746 129.346 32.3763 128.841L34.8166 126.379C35.3178 125.874 36.1316 125.874 36.6328 126.379L39.0731 128.841C39.5748 129.346 39.5748 130.167 39.0731 130.672C38.8227 130.925 38.4939 131.052 38.1651 131.052Z" fill="black"/>
<path d="M104.165 5.05175C103.837 5.05175 103.507 4.92532 103.257 4.67221L101.725 3.12714L100.192 4.67221C99.6912 5.17817 98.8774 5.17817 98.3763 4.67221C97.8746 4.16652 97.8746 3.34631 98.3763 2.84061L100.817 0.379469C101.318 -0.12649 102.132 -0.12649 102.633 0.379469L105.073 2.84061C105.575 3.34631 105.575 4.16652 105.073 4.67221C104.823 4.92532 104.494 5.05175 104.165 5.05175Z" fill="black"/>
<path d="M17.3384 90.5854C17.0096 90.5854 16.6811 90.459 16.4301 90.2059L14.898 88.6608L13.366 90.2059C12.8643 90.7119 12.0513 90.7119 11.5496 90.2059C11.0479 89.7002 11.0479 88.88 11.5496 88.3743L13.99 85.9132C14.4917 85.4072 15.3047 85.4072 15.8064 85.9132L18.2467 88.3743C18.7484 88.88 18.7484 89.7002 18.2467 90.2059C17.9958 90.4588 17.6672 90.5854 17.3384 90.5854Z" fill="black"/>
<path fill-rule="evenodd" clip-rule="evenodd" d="M87.5571 109.732C88.283 110.464 89.2368 110.83 90.1909 110.83C91.1447 110.83 92.0985 110.464 92.8244 109.732C94.2766 108.268 94.2766 105.884 92.8244 104.42C91.3723 102.955 89.0087 102.955 87.5571 104.42C86.1047 105.884 86.1047 108.268 87.5571 109.732ZM89.3732 106.251C89.5988 106.024 89.8949 105.911 90.1909 105.911C90.4868 105.911 90.7827 106.024 91.008 106.251C91.4586 106.706 91.4586 107.446 91.008 107.9C90.5569 108.355 89.8243 108.355 89.3732 107.9C88.9227 107.446 88.9227 106.706 89.3732 106.251Z" fill="black"/>
<path fill-rule="evenodd" clip-rule="evenodd" d="M106.986 32.942C107.712 33.6744 108.666 34.0404 109.62 34.0404C110.573 34.0404 111.527 33.6744 112.253 32.942C113.705 31.4775 113.705 29.0943 112.253 27.6298C110.801 26.1648 108.437 26.1653 106.986 27.6298C105.533 29.0943 105.533 31.4775 106.986 32.942ZM108.802 29.4614C109.027 29.2342 109.324 29.1208 109.62 29.1208C109.915 29.1208 110.211 29.2342 110.437 29.4614C110.887 29.9161 110.887 30.6555 110.437 31.1101C109.985 31.5648 109.253 31.5643 108.802 31.1101C108.351 30.6555 108.351 29.9161 108.802 29.4614Z" fill="black"/>
<path d="M29 48V97.7478C28.9967 98.6088 29.3396 99.4357 29.953 100.046C30.5664 100.656 31.3999 100.999 32.2694 101H99.7158C100.587 101 101.422 100.658 102.038 100.048C102.654 99.4378 103 98.6105 103 97.7478V48L29 48Z" fill="#8CC27B"/>
<path d="M103 34.0407V48H29L29 34.0407C28.9994 33.2251 29.3436 32.4427 29.9569 31.8659C30.5701 31.289 31.402 30.9651 32.2694 30.9654H40.176V36.2573C40.175 36.5742 40.3085 37.9131 40.5468 38.1372C40.7852 38.3613 41.1087 38.4868 41.4457 38.4859H46.5098C46.8454 38.4865 47.1673 38.3605 47.4032 38.136C47.6391 37.9116 47.7693 36.5728 47.7648 36.2573V30.9654H84.2204V36.2573C84.2166 36.9119 84.7769 38.4806 85.4731 38.4859H90.5509C90.8864 38.4851 91.2078 38.3587 91.4441 38.1347C91.6804 37.9107 91.8122 36.5728 91.8104 36.2573V30.9654H99.7169C101.526 30.9636 102.995 32.3396 103 34.0407Z" fill="#77A868"/>
<path d="M92.197 25.6721V37.1124C92.201 37.8189 91.6104 38.3952 90.8767 38.4009H86.0923C85.3586 38.3952 84.768 37.8189 84.772 37.1124V25.6721C84.772 24.97 85.3631 24.4009 86.0923 24.4009L90.8695 24.4009C91.2209 24.3991 91.5586 24.5322 91.8077 24.7708C92.0569 25.0094 92.197 25.3337 92.197 25.6721Z" fill="white" stroke="#2149FE" stroke-width="2"/>
<path d="M48.2361 25.6262V37.0665C48.2401 37.773 47.6495 38.3493 46.9157 38.355H42.1314C41.3976 38.3493 40.8071 37.773 40.8111 37.0665V25.6262C40.8111 24.9241 41.4022 24.355 42.1314 24.355L46.9085 24.355C47.26 24.3532 47.5976 24.4863 47.8468 24.7249C48.096 24.9635 48.2361 25.2878 48.2361 25.6262Z" fill="white" stroke="#2149FE" stroke-width="2"/>
<path fill-rule="evenodd" clip-rule="evenodd" d="M41.9485 70H49.0504C50.1266 69.9987 50.9987 69.1255 51 68.048V60.952C50.9987 59.8745 50.1266 59.0013 49.0504 59H41.9485C40.8727 59.0019 40.0013 59.8749 40 60.952V68.048C40.0013 69.1251 40.8727 69.9981 41.9485 70ZM41.1381 60.9532C41.1381 60.5049 41.5007 60.1413 41.9485 60.1407L49.0504 60.1395C49.4981 60.1402 49.8607 60.5038 49.8607 60.952V68.0491C49.8607 68.4974 49.4981 68.861 49.0504 68.8616H41.9485C41.5007 68.861 41.1381 68.4974 41.1381 68.0491V60.9532Z" fill="white"/>
<path fill-rule="evenodd" clip-rule="evenodd" d="M41.9487 91H49.0513C50.127 90.9987 50.9987 90.127 51 89.0513V81.9487C50.9987 80.873 50.127 80.0013 49.0513 80H41.9487C40.873 80.0013 40.0013 80.873 40 81.9487V89.0513C40.0013 90.127 40.873 90.9987 41.9487 91ZM41.1382 81.9475C41.1389 81.5002 41.5013 81.1377 41.9487 81.1371H49.0513C49.4987 81.1377 49.8611 81.5002 49.8618 81.9475V89.0502C49.8611 89.4975 49.4987 89.86 49.0513 89.8606H41.9487C41.5013 89.86 41.1389 89.4975 41.1382 89.0502V81.9475Z" fill="white"/>
<path fill-rule="evenodd" clip-rule="evenodd" d="M83.9485 91H91.0504C92.1262 90.9987 92.9981 90.1272 93 89.0513V81.9487C92.9981 80.8728 92.1262 80.0013 91.0504 80H83.9485C82.8729 80.0013 82.0013 80.873 82 81.9487V89.0513C82.0013 90.127 82.8729 90.9987 83.9485 91ZM83.1381 81.9475C83.1388 81.5002 83.5012 81.1377 83.9485 81.1371H91.0504C91.4981 81.1371 91.8612 81.4998 91.8619 81.9475V89.0502C91.8612 89.498 91.4981 89.8606 91.0504 89.8606H83.9485C83.5012 89.86 83.1388 89.4975 83.1381 89.0502V81.9475Z" fill="white"/>
<path fill-rule="evenodd" clip-rule="evenodd" d="M62.952 91H70.0468C71.1244 90.9994 71.9981 90.1277 72 89.0513V81.9487C71.9981 80.8728 71.1251 80.0013 70.048 80H62.952C61.8749 80.0013 61.0019 80.8728 61 81.9487V89.0513C61.0019 90.1272 61.8749 90.9987 62.952 91ZM62.1384 81.9475C62.139 81.4998 62.5026 81.1371 62.9509 81.1371H70.0468C70.4951 81.1371 70.8587 81.4998 70.8593 81.9475V89.0502C70.8587 89.498 70.4951 89.8606 70.0468 89.8606H62.9509C62.5026 89.8606 62.139 89.498 62.1384 89.0502V81.9475Z" fill="white"/>
<path fill-rule="evenodd" clip-rule="evenodd" d="M83.9485 70H91.0504C92.1266 69.9987 92.9987 69.1255 93 68.048V60.952C92.9987 59.8745 92.1266 59.0013 91.0504 59H83.9485C82.8727 59.0019 82.0013 59.8749 82 60.952V68.048C82.0013 69.1251 82.8727 69.9981 83.9485 70ZM83.1381 60.9532C83.1381 60.5049 83.5007 60.1413 83.9485 60.1407L91.0504 60.1395C91.4983 60.1402 91.8612 60.5036 91.8619 60.952V68.0491C91.8612 68.4976 91.4983 68.861 91.0504 68.8616H83.9485C83.5007 68.861 83.1381 68.4974 83.1381 68.0491V60.9532Z" fill="white"/>
<path fill-rule="evenodd" clip-rule="evenodd" d="M63.1303 69.6083H70.1596C71.2273 69.6071 72.0924 68.7389 72.0937 67.6675V60.6122C72.0924 59.5413 71.228 58.6733 70.1608 58.6714H63.1303C62.0627 58.6726 61.1975 59.5409 61.1963 60.6122V67.6675C61.1975 68.7389 62.0627 69.6071 63.1303 69.6083ZM62.3242 60.6134C62.3248 60.1675 62.6849 59.8062 63.1292 59.8055L70.1596 59.8044C70.604 59.805 70.964 60.1663 70.9646 60.6122V67.6686C70.964 68.1145 70.604 68.4758 70.1596 68.4765H63.1292C62.6849 68.4758 62.3248 68.1145 62.3242 67.6686V60.6134Z" fill="white"/>
<path fill-rule="evenodd" clip-rule="evenodd" d="M29.5684 49H103.437C103.749 48.9969 104 48.745 104 48.4354V34.8075C103.994 32.702 102.273 30.9987 100.153 31H92.2607C91.9468 31 91.6923 31.2528 91.6923 31.5646V37.1438C91.6955 37.522 91.391 37.832 91.0102 37.8382H85.9414C85.5607 37.832 85.2562 37.522 85.2594 37.1438V31.5646C85.2594 31.2528 85.0049 31 84.691 31H48.2976C47.9837 31 47.7293 31.2528 47.7293 31.5646V37.1438C47.7339 37.3264 47.664 37.5031 47.5356 37.6338C47.4072 37.7646 47.2311 37.8383 47.0472 37.8382H41.992C41.806 37.8404 41.6269 37.7679 41.4953 37.6372C41.3637 37.5065 41.2908 37.3286 41.2929 37.1438V31.5646C41.2929 31.2528 41.0384 31 40.7245 31H32.832C30.717 31.0031 29.0031 32.7055 29 34.8064V48.4354C29 48.7472 29.2545 49 29.5684 49ZM103 48H30V34.7221C30.0019 33.2202 31.2119 32.003 32.7052 32.0012H40.0563V37.0977C40.0576 38.1208 40.8818 38.9498 41.8989 38.9511H46.975C47.987 38.9441 48.803 38.1156 48.8005 37.0977V32.0012H84.1847V37.0977C84.1821 38.1156 84.9982 38.9441 86.0102 38.9511H91.1045C92.1165 38.9441 92.9325 38.1156 92.93 37.0977V32H100.28C101.778 31.9975 102.995 33.2155 103 34.7221V48Z" fill="#2149FE"/>
<path d="M103.437 49V49.5L103.442 49.5L103.437 49ZM104 48.4354H103.5V48.4354L104 48.4354ZM104 34.8075H104.5V34.8061L104 34.8075ZM100.153 31V31.5L100.154 31.5L100.153 31ZM91.6923 37.1438H91.1923L91.1923 37.148L91.6923 37.1438ZM91.0102 37.8382V38.3383L91.0184 38.3382L91.0102 37.8382ZM85.9414 37.8382L85.9333 38.3382H85.9414V37.8382ZM85.2594 37.1438L85.7594 37.148V37.1438H85.2594ZM47.7293 37.1438H47.2291L47.2294 37.1564L47.7293 37.1438ZM47.5356 37.6338L47.1789 37.2835V37.2835L47.5356 37.6338ZM47.0472 37.8382L47.0474 37.3382H47.0472V37.8382ZM41.992 37.8382V37.3382L41.9863 37.3382L41.992 37.8382ZM41.4953 37.6372L41.8477 37.2824L41.8477 37.2824L41.4953 37.6372ZM41.2929 37.1438L41.7929 37.1496V37.1438H41.2929ZM32.832 31V30.5L32.8313 30.5L32.832 31ZM29 34.8064L28.5 34.8057V34.8064H29ZM30 48H29.5V48.5H30V48ZM103 48V48.5H103.5V48H103ZM30 34.7221L29.5 34.7215V34.7221H30ZM32.7052 32.0012V31.5012L32.7045 31.5012L32.7052 32.0012ZM40.0563 32.0012H40.5563V31.5012H40.0563V32.0012ZM40.0563 37.0977H39.5563V37.0983L40.0563 37.0977ZM41.8989 38.9511L41.8983 39.4511H41.8989V38.9511ZM46.975 38.9511V39.4511L46.9784 39.4511L46.975 38.9511ZM48.8005 37.0977H48.3005L48.3005 37.0989L48.8005 37.0977ZM48.8005 32.0012V31.5012H48.3005V32.0012H48.8005ZM84.1847 32.0012H84.6847V31.5012H84.1847V32.0012ZM84.1847 37.0977L84.6847 37.0989V37.0977H84.1847ZM86.0102 38.9511L86.0067 39.4511H86.0102V38.9511ZM91.1045 38.9511V39.4511L91.1079 39.4511L91.1045 38.9511ZM92.93 37.0977H92.43V37.0989L92.93 37.0977ZM92.93 32V31.5H92.43V32H92.93ZM100.28 32V32.5L100.281 32.5L100.28 32ZM103 34.7221H103.5V34.7205L103 34.7221ZM103.437 48.5H29.5684V49.5H103.437V48.5ZM103.5 48.4354C103.5 48.4677 103.473 48.4996 103.432 48.5L103.442 49.5C104.025 49.4942 104.5 49.0223 104.5 48.4354L103.5 48.4354ZM103.5 34.8075V48.4354H104.5V34.8075H103.5ZM100.154 31.5C102.001 31.4989 103.495 32.9823 103.5 34.809L104.5 34.8061C104.493 32.4217 102.545 30.4986 100.153 30.5L100.154 31.5ZM92.2607 31.5H100.153V30.5H92.2607V31.5ZM92.1923 31.5646C92.1923 31.5321 92.2198 31.5 92.2607 31.5V30.5C91.6738 30.5 91.1923 30.9735 91.1923 31.5646H92.1923ZM92.1923 37.1438V31.5646H91.1923V37.1438H92.1923ZM91.0184 38.3382C91.6706 38.3276 92.1978 37.7955 92.1923 37.1396L91.1923 37.148C91.1932 37.2485 91.1114 37.3365 91.0021 37.3383L91.0184 38.3382ZM85.9414 38.3382H91.0102V37.3382H85.9414V38.3382ZM84.7594 37.1396C84.7539 37.7955 85.2811 38.3276 85.9333 38.3382L85.9496 37.3383C85.8403 37.3365 85.7585 37.2485 85.7594 37.148L84.7594 37.1396ZM84.7594 31.5646V37.1438H85.7594V31.5646H84.7594ZM84.691 31.5C84.7319 31.5 84.7594 31.5321 84.7594 31.5646H85.7594C85.7594 30.9735 85.2779 30.5 84.691 30.5V31.5ZM48.2976 31.5H84.691V30.5H48.2976V31.5ZM48.2293 31.5646C48.2293 31.5321 48.2567 31.5 48.2976 31.5V30.5C47.7107 30.5 47.2293 30.9735 47.2293 31.5646H48.2293ZM48.2293 37.1438V31.5646H47.2293V37.1438H48.2293ZM47.8923 37.9842C48.1153 37.7572 48.2371 37.4497 48.2291 37.1312L47.2294 37.1564C47.2306 37.2031 47.2128 37.249 47.1789 37.2835L47.8923 37.9842ZM47.047 38.3382C47.3646 38.3383 47.6695 38.2111 47.8923 37.9842L47.1789 37.2835C47.1449 37.3181 47.0975 37.3382 47.0474 37.3382L47.047 38.3382ZM41.992 38.3382H47.0472V37.3382H41.992V38.3382ZM41.1429 37.9919C41.37 38.2174 41.6782 38.3419 41.9978 38.3382L41.9863 37.3382C41.9337 37.3389 41.8838 37.3183 41.8477 37.2824L41.1429 37.9919ZM40.793 37.138C40.7892 37.4585 40.9158 37.7663 41.1429 37.9919L41.8477 37.2824C41.8117 37.2467 41.7923 37.1987 41.7929 37.1496L40.793 37.138ZM40.7929 31.5646V37.1438H41.7929V31.5646H40.7929ZM40.7245 31.5C40.7655 31.5 40.7929 31.5321 40.7929 31.5646H41.7929C41.7929 30.9735 41.3114 30.5 40.7245 30.5V31.5ZM32.832 31.5H40.7245V30.5H32.832V31.5ZM29.5 34.8072C29.5027 32.9849 30.9901 31.5027 32.8328 31.5L32.8313 30.5C30.4438 30.5035 28.5035 32.426 28.5 34.8057L29.5 34.8072ZM29.5 48.4354V34.8064H28.5V48.4354H29.5ZM29.5684 48.5C29.5274 48.5 29.5 48.4679 29.5 48.4354H28.5C28.5 49.0265 28.9815 49.5 29.5684 49.5V48.5ZM30 48.5H103V47.5H30V48.5ZM29.5 34.7221V48H30.5V34.7221H29.5ZM32.7045 31.5012C30.9329 31.5034 29.5022 32.9466 29.5 34.7215L30.5 34.7228C30.5015 33.4937 31.4909 32.5027 32.7058 32.5012L32.7045 31.5012ZM40.0563 31.5012H32.7052V32.5012H40.0563V31.5012ZM40.5563 37.0977V32.0012H39.5563V37.0977H40.5563ZM41.8995 38.4511C41.1608 38.4502 40.5572 37.8472 40.5563 37.0971L39.5563 37.0983C39.5579 38.3943 40.6028 39.4495 41.8983 39.4511L41.8995 38.4511ZM46.975 38.4511H41.8989V39.4511H46.975V38.4511ZM48.3005 37.0989C48.3024 37.8443 47.7056 38.4461 46.9716 38.4511L46.9784 39.4511C48.2684 39.4422 49.3037 38.3869 49.3005 37.0964L48.3005 37.0989ZM48.3005 32.0012V37.0977H49.3005V32.0012H48.3005ZM84.1847 31.5012H48.8005V32.5012H84.1847V31.5012ZM84.6847 37.0977V32.0012H83.6847V37.0977H84.6847ZM86.0136 38.4511C85.2796 38.4461 84.6828 37.8443 84.6847 37.0989L83.6847 37.0964C83.6814 38.3869 84.7167 39.4422 86.0067 39.4511L86.0136 38.4511ZM91.1045 38.4511H86.0102V39.4511H91.1045V38.4511ZM92.43 37.0989C92.4319 37.8443 91.8351 38.4461 91.1011 38.4511L91.1079 39.4511C92.398 39.4422 93.4332 38.3869 93.43 37.0964L92.43 37.0989ZM92.43 32V37.0977H93.43V32H92.43ZM100.28 31.5H92.93V32.5H100.28V31.5ZM103.5 34.7205C103.494 32.9407 102.056 31.497 100.279 31.5L100.281 32.5C101.5 32.4979 102.496 33.4902 102.5 34.7238L103.5 34.7205ZM103.5 48V34.7221H102.5V48H103.5Z" fill="#2149FE"/>
<path fill-rule="evenodd" clip-rule="evenodd" d="M61 102H32.8328C30.7133 101.994 28.9987 100.291 29 98.193V48.5625C29 48.2518 29.2545 48 29.5683 48H103.432C103.746 48 104 48.2518 104 48.5625V96H103V49H30V98.305C29.9975 99.7896 31.2091 100.996 32.7074 101H61V102Z" fill="#2149FE"/>
<path d="M32.8328 102L32.8313 102.5H32.8328V102ZM61 102V102.5H61.5V102H61ZM29 98.193L29.5 98.1933V98.193H29ZM104 96V96.5H104.5V96H104ZM103 96H102.5V96.5H103V96ZM103 49H103.5V48.5H103V49ZM30 49V48.5H29.5V49H30ZM30 98.305L30.5 98.3059V98.305H30ZM32.7074 101L32.7059 101.5H32.7074V101ZM61 101H61.5V100.5H61V101ZM32.8328 102.5H61V101.5H32.8328V102.5ZM28.5 98.1927C28.4986 100.571 30.441 102.493 32.8313 102.5L32.8343 101.5C30.9856 101.495 29.4989 100.011 29.5 98.1933L28.5 98.1927ZM28.5 48.5625V98.193H29.5V48.5625H28.5ZM29.5683 47.5C28.9832 47.5 28.5 47.9708 28.5 48.5625H29.5C29.5 48.5328 29.5257 48.5 29.5683 48.5V47.5ZM103.432 47.5H29.5683V48.5H103.432V47.5ZM104.5 48.5625C104.5 47.9709 104.017 47.5 103.432 47.5V48.5C103.474 48.5 103.5 48.5328 103.5 48.5625H104.5ZM104.5 96V48.5625H103.5V96H104.5ZM103 96.5H104V95.5H103V96.5ZM102.5 49V96H103.5V49H102.5ZM30 49.5H103V48.5H30V49.5ZM30.5 98.305V49H29.5V98.305H30.5ZM32.7088 100.5C31.4821 100.496 30.498 99.5102 30.5 98.3059L29.5 98.3042C29.497 100.069 30.9361 101.495 32.7059 101.5L32.7088 100.5ZM61 100.5H32.7074V101.5H61V100.5ZM61.5 102V101H60.5V102H61.5Z" fill="#2149FE"/>
</svg>
