<svg width="93" height="92" viewBox="0 0 93 92" fill="none" xmlns="http://www.w3.org/2000/svg">
<path d="M75.6668 0.369595C65.6644 -1.3442 43.6289 2.56255 39.7286 19.2728C37.1355 30.3829 37.2117 39.4465 30.6675 39.6166C26.7736 39.7177 24.7432 31.6407 19.3671 30.9763C12.3508 30.1093 7.48165 35.9615 4.44277 41.2612C-2.24251 52.9203 -0.152022 72.7467 8.6392 82.4153C29.93 105.831 55.2137 81.344 66.0239 62.1996C72.9572 49.9211 88.5993 39.996 91.8571 26.1546C94.5842 14.5669 88.5323 2.57389 75.6668 0.369595Z" fill="#81CFFA"/>
<path d="M81.907 76.9189H10.1906C8.70146 76.9189 7.49414 75.7055 7.49414 74.2088V17.4297C7.49414 15.933 8.70146 14.7196 10.1906 14.7196H81.907C83.3962 14.7196 84.6035 15.933 84.6035 17.4297V74.2088C84.6035 75.7057 83.3964 76.9189 81.907 76.9189Z" fill="white"/>
<path d="M75.8349 58.2508H16.2625C15.2697 58.2508 14.4648 57.4419 14.4648 56.4441V36.7241C14.4648 35.7262 15.2697 34.9174 16.2625 34.9174H75.8349C76.8277 34.9174 77.6325 35.7262 77.6325 36.7241V56.4443C77.6325 57.442 76.8277 58.2508 75.8349 58.2508Z" fill="#8CC27B"/>
<path d="M84.6035 27.2425V17.4297C84.6035 15.933 83.3962 14.7196 81.907 14.7196H10.1906C8.70146 14.7196 7.49414 15.933 7.49414 17.4297V27.2425H84.6035Z" fill="#3E61FF"/>
<ellipse cx="15.4206" cy="21.3866" rx="1.95964" ry="1.96951" fill="white"/>
<ellipse cx="21.6764" cy="21.3866" rx="1.95964" ry="1.96951" fill="white"/>
<ellipse cx="27.9323" cy="21.3866" rx="1.95964" ry="1.96951" fill="white"/>
<path d="M35.1884 23.5994C33.9663 23.5994 32.9756 22.6087 32.9756 21.3866C32.9756 20.1645 33.9663 19.1738 35.1884 19.1738H77.0191C77.9122 19.1738 78.6365 19.5784 78.6365 20.0772V22.6962C78.6361 23.1951 77.9122 23.5994 77.0188 23.5994H35.1884Z" fill="white"/>
<path fill-rule="evenodd" clip-rule="evenodd" d="M34.7452 20.9086C35.0141 20.6384 35.4517 20.6384 35.7206 20.9086C35.926 21.1151 35.974 21.4201 35.8657 21.6733L36.0869 21.8956C36.1862 21.9954 36.1862 22.1573 36.0869 22.2571C35.9876 22.3569 35.8264 22.3569 35.7271 22.2571L35.5059 22.0348C35.2541 22.1436 34.9505 22.0954 34.7452 21.889C34.4762 21.6187 34.4762 21.1789 34.7452 20.9086ZM35.3897 21.3008C35.3196 21.2303 35.2055 21.2303 35.1354 21.3008C35.0652 21.3713 35.0652 21.486 35.1354 21.5564C35.2055 21.6269 35.3196 21.6269 35.3897 21.5564C35.4598 21.486 35.4598 21.3713 35.3897 21.3008Z" fill="#ACABAB"/>
<path d="M69.9201 83.0526H22.1776C21.1847 83.0526 20.3799 82.2438 20.3799 81.2459V45.8125C20.3799 44.8146 21.1847 44.0057 22.1776 44.0057H69.9201C70.913 44.0057 71.7178 44.8146 71.7178 45.8125V81.2457C71.7178 82.2438 70.913 83.0526 69.9201 83.0526Z" fill="white"/>
<path d="M71.7178 51.3253H20.3799V45.8125C20.3799 44.8146 21.1847 44.0057 22.1776 44.0057H69.9201C70.913 44.0057 71.7178 44.8146 71.7178 45.8125V51.3253Z" fill="#3E61FF"/>
<path fill-rule="evenodd" clip-rule="evenodd" d="M81.9073 13.8163H10.1906C8.20809 13.8163 6.59521 15.4373 6.59521 17.4297V74.2089C6.59521 76.2013 8.20809 77.8223 10.1906 77.8223H19.4811V81.2459C19.4811 82.7402 20.6908 83.956 22.1776 83.956H69.9202C71.4071 83.956 72.6167 82.7402 72.6167 81.2459V77.8223H81.9073C83.8897 77.8223 85.5026 76.2013 85.5026 74.2089V17.4297C85.5026 15.4373 83.8897 13.8163 81.9073 13.8163ZM70.819 81.2459C70.819 81.744 70.4158 82.1492 69.9202 82.1492H22.1776C21.682 82.1492 21.2788 81.744 21.2788 81.2459V45.8124C21.2788 45.3143 21.682 44.9091 22.1776 44.9091H69.9202C70.4158 44.9091 70.819 45.3143 70.819 45.8124V81.2459ZM81.9072 76.0156C82.8985 76.0156 83.7049 75.2051 83.7049 74.2089H83.7047V17.4297C83.7047 16.4335 82.8983 15.623 81.9071 15.623H10.1906C9.19932 15.623 8.39289 16.4335 8.39289 17.4297V74.2089C8.39289 75.2051 9.19932 76.0156 10.1906 76.0156H19.4811V45.8124C19.4811 44.3181 20.6908 43.1024 22.1776 43.1024H69.9202C71.4071 43.1024 72.6167 44.3181 72.6167 45.8124V76.0156H81.9072Z" fill="#2149FE"/>
<path d="M40.961 71.1957H32.0037C31.0109 71.1957 30.2061 70.3868 30.2061 69.389V65.5432C30.2061 64.5453 31.0109 63.7365 32.0037 63.7365H40.961C41.9538 63.7365 42.7587 64.5453 42.7587 65.5432V69.389C42.7587 70.3866 41.9537 71.1957 40.961 71.1957Z" fill="#8CC27B"/>
<path d="M60.0938 71.1957H51.1365C50.1437 71.1957 49.3389 70.3868 49.3389 69.389V65.5432C49.3389 64.5453 50.1437 63.7365 51.1365 63.7365H60.0938C61.0867 63.7365 61.8915 64.5453 61.8915 65.5432V69.389C61.8915 70.3866 61.0867 71.1957 60.0938 71.1957Z" fill="#8CC27B"/>
<path d="M63.1198 68.687L58.3635 68.2589C57.9303 68.2198 57.5677 68.5844 57.6063 69.0198L58.0324 73.8001C58.0852 74.3927 58.802 74.6539 59.2205 74.2333L60.1916 73.2573L63.3842 76.4661C63.6568 76.74 64.0985 76.74 64.3708 76.4661L65.7723 75.0575C66.0448 74.7836 66.0448 74.3397 65.7723 74.066L62.5796 70.8573L63.5507 69.8813C63.9694 69.4605 63.7093 68.7402 63.1198 68.687Z" fill="black"/>
<path d="M61.0685 59.1543H58.9687C58.4723 59.1543 58.0698 58.7497 58.0698 58.2509C58.0698 57.7521 58.4723 57.3475 58.9687 57.3475H61.0685C61.5649 57.3475 61.9674 57.7521 61.9674 58.2509C61.9674 58.7497 61.565 59.1543 61.0685 59.1543Z" fill="#80BA6E"/>
<path d="M61.0688 61.9521H57.351C56.8546 61.9521 56.4521 61.5476 56.4521 61.0487C56.4521 60.5499 56.8546 60.1454 57.351 60.1454H61.0688C61.5651 60.1454 61.9676 60.5499 61.9676 61.0487C61.9676 61.5476 61.5653 61.9521 61.0688 61.9521Z" fill="#80BA6E"/>
<path d="M41.86 59.1543H39.7602C39.2638 59.1543 38.8613 58.7497 38.8613 58.2509C38.8613 57.7521 39.2638 57.3475 39.7602 57.3475H41.86C42.3564 57.3475 42.7589 57.7521 42.7589 58.2509C42.7589 58.7497 42.3564 59.1543 41.86 59.1543Z" fill="#80BA6E"/>
<path d="M41.8603 61.9521H38.1425C37.6462 61.9521 37.2437 61.5476 37.2437 61.0487C37.2437 60.5499 37.6462 60.1454 38.1425 60.1454H41.8603C42.3566 60.1454 42.7591 60.5499 42.7591 61.0487C42.7591 61.5476 42.3566 61.9521 41.8603 61.9521Z" fill="#80BA6E"/>
<path fill-rule="evenodd" clip-rule="evenodd" d="M13.1284 7.9828C13.1284 9.4065 14.2809 10.5648 15.6975 10.5648C17.1142 10.5648 18.2667 9.4065 18.2667 7.9828C18.2667 6.55892 17.1142 5.40063 15.6975 5.40063C14.2809 5.40063 13.1284 6.55892 13.1284 7.9828ZM14.9261 7.9828C14.9261 7.55533 15.2721 7.20736 15.6975 7.20736C16.1228 7.20736 16.469 7.55533 16.469 7.9828C16.469 8.41027 16.1228 8.75807 15.6975 8.75807C15.2721 8.75807 14.9261 8.41027 14.9261 7.9828Z" fill="black"/>
<path d="M23.8831 8.93874C23.3866 8.93874 22.9843 8.53439 22.9843 8.03538C22.9843 7.43753 22.5005 6.95134 21.9057 6.95134C21.4092 6.95134 21.0068 6.547 21.0068 6.04798C21.0068 5.54897 21.4092 5.14462 21.9057 5.14462C22.5005 5.14462 22.9843 4.65843 22.9843 4.06059C22.9843 3.56157 23.3866 3.15723 23.8831 3.15723C24.3796 3.15723 24.7819 3.56157 24.7819 4.06059C24.7819 4.65843 25.2657 5.14462 25.8606 5.14462C26.3571 5.14462 26.7594 5.54897 26.7594 6.04798C26.7594 6.547 26.3571 6.95134 25.8606 6.95134C25.2657 6.95134 24.7819 7.43753 24.7819 8.03538C24.7819 8.53439 24.3796 8.93874 23.8831 8.93874Z" fill="black"/>
<path d="M77.0936 88.8428C76.597 88.8428 76.1947 88.4384 76.1947 87.9394C76.1947 87.3416 75.711 86.8554 75.1161 86.8554C74.6196 86.8554 74.2173 86.4511 74.2173 85.952C74.2173 85.453 74.6196 85.0487 75.1161 85.0487C75.711 85.0487 76.1947 84.5625 76.1947 83.9646C76.1947 83.4656 76.597 83.0613 77.0936 83.0613C77.5901 83.0613 77.9924 83.4656 77.9924 83.9646C77.9924 84.5625 78.4762 85.0487 79.071 85.0487C79.5675 85.0487 79.9698 85.453 79.9698 85.952C79.9698 86.4511 79.5675 86.8554 79.071 86.8554C78.4762 86.8554 77.9924 87.3416 77.9924 87.9394C77.9924 88.4384 77.5901 88.8428 77.0936 88.8428Z" fill="black"/>
<path d="M62.4573 9.24746C61.9608 9.24746 61.5585 8.84311 61.5585 8.34409C61.5585 7.74625 61.0747 7.26006 60.4799 7.26006C59.9834 7.26006 59.5811 6.85572 59.5811 6.3567C59.5811 5.85768 59.9834 5.45334 60.4799 5.45334C61.0747 5.45334 61.5585 4.96715 61.5585 4.3693C61.5585 3.87029 61.9608 3.46594 62.4573 3.46594C62.9538 3.46594 63.3562 3.87029 63.3562 4.3693C63.3562 4.96715 63.8399 5.45334 64.4348 5.45334C64.9313 5.45334 65.3336 5.85768 65.3336 6.3567C65.3336 6.85572 64.9313 7.26006 64.4348 7.26006C63.8399 7.26006 63.3562 7.74625 63.3562 8.34409C63.3562 8.84311 62.9538 9.24746 62.4573 9.24746Z" fill="black"/>
<path d="M84.0643 84.7399C83.5677 84.7399 83.1654 84.3355 83.1654 83.8365C83.1654 83.2387 82.6817 82.7525 82.0868 82.7525C81.5903 82.7525 81.188 82.3481 81.188 81.8491C81.188 81.3501 81.5903 80.9458 82.0868 80.9458C82.6817 80.9458 83.1654 80.4596 83.1654 79.8617C83.1654 79.3627 83.5677 78.9584 84.0643 78.9584C84.5608 78.9584 84.9631 79.3627 84.9631 79.8617C84.9631 80.4596 85.4469 80.9458 86.0417 80.9458C86.5382 80.9458 86.9405 81.3501 86.9405 81.8491C86.9405 82.3481 86.5382 82.7525 86.0417 82.7525C85.4469 82.7525 84.9631 83.2387 84.9631 83.8365C84.9631 84.3355 84.5606 84.7399 84.0643 84.7399Z" fill="black"/>
</svg>
