<svg width="184" height="60" viewBox="0 0 184 60" fill="none" xmlns="http://www.w3.org/2000/svg">
<path d="M183.499 51.891C183.499 56.3687 179.875 60 175.406 60H8.46255C3.99238 60.0004 0.367188 56.369 0.367188 51.891V8.10825C0.367187 3.63096 3.99238 0 8.46255 0H175.405C179.875 0 183.499 3.63096 183.499 8.10825V51.891H183.499Z" fill="black"/>
<rect x="10.415" y="9.56543" width="39.9245" height="40" rx="3" fill="#E14459"/>
<path fill-rule="evenodd" clip-rule="evenodd" d="M39.3908 13.48C39.3902 12.7598 39.8975 12.1754 40.524 12.1744V12.1743C41.1505 12.1733 41.6591 12.7561 41.6603 13.4762V13.4788C41.6602 14.1988 41.1526 14.7826 40.5262 14.783C39.8997 14.7834 39.3914 14.2001 39.3908 13.48ZM19.0942 13.48C19.0936 12.7598 19.6009 12.1754 20.2275 12.1744V12.1743C20.8539 12.1733 21.3625 12.7561 21.3637 13.4762V13.4788C21.3637 14.1989 20.856 14.7827 20.2295 14.783C19.603 14.7833 19.0948 14.2001 19.0942 13.48Z" fill="#C73148"/>
<path fill-rule="evenodd" clip-rule="evenodd" d="M19.9322 14.4951C19.9322 14.4951 19.9124 13.9344 20.303 13.9137C20.3931 13.9089 20.505 13.9331 20.6441 13.9993C22.798 17.5233 26.3969 19.5822 30.3561 19.5813C34.3078 19.5747 37.9196 17.4939 40.0694 13.9766C40.8875 13.7136 40.8044 14.4724 40.8044 14.4724C38.7081 18.5019 34.8047 20.5028 30.3534 20.5092C25.8963 20.509 22.0313 18.5299 19.9322 14.4951ZM33.3152 33.1078L34.5094 29.5972H35.3797L36.5739 33.1078L37.7384 29.5998H38.8448L37.0166 34.7028H36.1259L34.9303 31.3505L33.7335 34.7028H32.85L31.0178 29.5998H32.1527L33.3152 33.1078ZM28.1663 29.5985L25.8491 34.7002H26.9384L27.3857 33.7126L27.4174 33.6379H29.8249L30.2967 34.7002H31.4157L29.1196 29.6283L29.0992 29.5985L28.1663 29.5985ZM44.9472 34.697V29.5991L46.0002 29.5991V34.697H44.9472ZM14.7549 29.5998V34.7047H15.8224V32.6315H18.2319V34.7048H19.2995V29.5998H18.2319V31.6594H15.8224V29.5998L14.7549 29.5998ZM24.2392 32.5231V29.601L25.3061 29.6011V32.481C25.3061 33.9436 24.4766 34.7826 23.0299 34.7826C21.5967 34.7826 20.7741 33.9594 20.7741 32.5231V29.6043H21.8409V32.488C21.8409 33.3407 22.2683 33.7962 23.0437 33.7962C23.8148 33.7962 24.2392 33.3531 24.2392 32.5231ZM39.7052 29.603V34.7008H43.6771V33.7716H40.7575V32.5075H42.6986V31.5777H40.7575V30.533H43.5755V29.6031L39.7052 29.603ZM29.3796 32.5996L28.6182 30.8904L27.868 32.5996L27.8172 32.7171H29.4311L29.3796 32.5996Z" fill="white"/>
<path fill-rule="evenodd" clip-rule="evenodd" d="M123.432 12.3471V21.3884L117.229 14.9028V20.8696H115.945V11.7676L122.148 18.2698V12.3471H123.432ZM93.0373 19.738C92.1595 20.5954 91.0999 21.0241 89.8584 21.0241C88.7603 21.0241 87.7741 20.6433 86.9 19.8815C85.9377 19.0389 85.4565 17.9349 85.4565 16.5697C85.4565 15.3701 85.8954 14.3398 86.7732 13.4787C87.6474 12.6176 88.6978 12.1871 89.9246 12.1871C91.1366 12.1871 92.176 12.6213 93.0428 13.4897C93.9133 14.3582 94.3485 15.4014 94.3485 16.6194C94.3485 17.8448 93.9114 18.8843 93.0373 19.738ZM66.1299 19.6608V20.8696H61.436V12.3471H66.1299V13.556H62.7197V15.6038H66.0308V16.8126H62.7197V19.6608H66.1299ZM70.317 17.6074L68.3777 20.8696H66.9233L69.5953 16.4152L67.2538 12.3471H68.7138L70.339 15.234L72.0469 12.3471H73.5179L71.0663 16.4152L73.6391 20.8696H72.2012L70.317 17.6074ZM76.0687 20.8696V17.4087H76.6637C77.5489 17.4087 78.2522 17.1806 78.7738 16.7243C79.2953 16.268 79.5561 15.6498 79.5561 14.8697C79.5561 14.141 79.3118 13.5376 78.8233 13.0592C78.5442 12.7832 78.221 12.5955 77.8537 12.4962C77.4901 12.3968 76.952 12.3471 76.2395 12.3471H74.785V20.8696H76.0687ZM76.0687 16.2165H76.548C77.727 16.2165 78.3165 15.762 78.3165 14.8531C78.3165 13.9736 77.7086 13.5339 76.4929 13.5339H76.0687V16.2165ZM84.6632 20.8696V19.6608H82.162V12.3471H80.8783V20.8696H84.6632ZM89.875 19.8208C89.0523 19.8208 88.3269 19.5172 87.6988 18.9101C87.0671 18.3029 86.7512 17.5283 86.7512 16.5863C86.7512 15.6884 87.0561 14.934 87.6657 14.3232C88.2754 13.705 89.0229 13.3959 89.908 13.3959C90.7969 13.3959 91.5424 13.705 92.1448 14.3232C92.7508 14.9377 93.0538 15.6994 93.0538 16.6084C93.0538 17.5062 92.7471 18.2679 92.1338 18.8935C91.5204 19.5117 90.7675 19.8208 89.875 19.8208ZM97.2464 17.3811V20.8696H95.9627V12.3471H97.4668C98.5907 12.3471 99.4024 12.5587 99.9019 12.9819C100.453 13.4529 100.728 14.0748 100.728 14.8476C100.728 15.4511 100.556 15.9699 100.21 16.4041C99.8651 16.8383 99.4097 17.1162 98.8441 17.2376L101.478 20.8696H99.9074L97.4778 17.3811H97.2464ZM97.6541 16.2606H97.2464V13.556H97.7037C98.8863 13.556 99.4777 13.992 99.4777 14.8641C99.4777 15.7951 98.8698 16.2606 97.6541 16.2606ZM107.45 19.6608V20.8696H102.756V12.3471H107.45V13.556H104.039V15.6038H107.35V16.8126H104.039V19.6608H107.45ZM113.901 12.3471H112.617V20.8696H113.901V12.3471Z" fill="white"/>
<path fill-rule="evenodd" clip-rule="evenodd" d="M129.85 45.2175V30.7827H126.708V45.2175H129.85ZM107.944 45.3045C107.273 45.49 106.567 45.5827 105.826 45.5827C104.808 45.5827 103.879 45.4146 103.04 45.0784C102.201 44.7421 101.481 44.2697 100.879 43.661C100.277 43.0523 99.8085 42.3218 99.4729 41.4697C99.1373 40.6175 98.9695 39.6755 98.9695 38.6436C98.9695 37.6233 99.1344 36.6871 99.4642 35.8349C99.794 34.9827 100.263 34.2552 100.87 33.6523C101.478 33.0494 102.21 32.5798 103.066 32.2436C103.922 31.9074 104.877 31.7392 105.93 31.7392C107.296 31.7392 108.494 32.0349 109.523 32.6262C110.553 33.2175 111.369 34.1334 111.971 35.374L108.742 36.7132C108.441 35.9943 108.051 35.4784 107.571 35.1653C107.09 34.8523 106.544 34.6958 105.93 34.6958C105.421 34.6958 104.958 34.7914 104.542 34.9827C104.125 35.174 103.769 35.4465 103.474 35.8001C103.179 36.1537 102.947 36.5798 102.78 37.0784C102.612 37.5769 102.528 38.1334 102.528 38.7479C102.528 39.3045 102.6 39.8204 102.745 40.2958C102.89 40.7711 103.107 41.1827 103.396 41.5305C103.685 41.8784 104.044 42.1479 104.472 42.3392C104.9 42.5305 105.398 42.6262 105.965 42.6262C106.301 42.6262 106.625 42.5885 106.937 42.5132C107.249 42.4378 107.53 42.316 107.779 42.1479C108.028 41.9798 108.233 41.7624 108.395 41.4958C108.557 41.2291 108.667 40.9045 108.725 40.5218H105.93V37.8784H112.683C112.683 38.574 112.654 39.2059 112.596 39.774C112.538 40.3421 112.422 40.8697 112.249 41.3566C112.006 42.0407 111.676 42.6465 111.259 43.174C110.843 43.7016 110.354 44.1421 109.793 44.4958C109.231 44.8494 108.615 45.1189 107.944 45.3045ZM63.6797 45.2175L64.4608 42.9392H69.3212L70.1023 45.2175H73.7302L68.7484 32.1045H65.0336L60.0518 45.2175H63.6797ZM68.4186 40.3479H65.3635L66.891 35.9827L68.4186 40.3479ZM78.0699 44.3479V49.6697H74.928V36.2958H78.0699V37.2871C78.7411 36.4407 79.6553 36.0175 80.8125 36.0175C81.449 36.0175 82.0421 36.1421 82.5918 36.3914C83.1414 36.6407 83.6188 36.9798 84.0238 37.4088C84.4289 37.8378 84.7442 38.3421 84.9699 38.9218C85.1955 39.5016 85.3084 40.1218 85.3084 40.7827C85.3084 41.4436 85.1955 42.0581 84.9699 42.6262C84.7442 43.1943 84.4318 43.6929 84.0325 44.1218C83.6333 44.5508 83.1617 44.8871 82.6178 45.1305C82.0739 45.374 81.4837 45.4958 80.8472 45.4958C79.7363 45.4958 78.8105 45.1131 78.0699 44.3479ZM80.014 42.7827C79.7363 42.7827 79.473 42.7276 79.2242 42.6175C78.9754 42.5074 78.7584 42.3624 78.5733 42.1827C78.3881 42.003 78.2435 41.7914 78.1393 41.5479C78.0352 41.3045 77.9831 41.0436 77.9831 40.7653C77.9831 40.4871 78.038 40.2233 78.148 39.974C78.2579 39.7247 78.4026 39.5074 78.5819 39.3218C78.7613 39.1363 78.9725 38.9914 79.2155 38.8871C79.4585 38.7827 79.7189 38.7305 79.9967 38.7305C80.286 38.7305 80.555 38.7856 80.8038 38.8958C81.0526 39.0059 81.2696 39.1537 81.4548 39.3392C81.6399 39.5247 81.7817 39.7421 81.8801 39.9914C81.9784 40.2407 82.0276 40.5045 82.0276 40.7827C82.0276 41.0494 81.9726 41.3045 81.8627 41.5479C81.7528 41.7914 81.6081 42.0059 81.4287 42.1914C81.2494 42.3769 81.0382 42.5218 80.7952 42.6262C80.5521 42.7305 80.2918 42.7827 80.014 42.7827ZM90.2382 44.3479V49.6697H87.0963V36.2958H90.2382V37.2871C90.9094 36.4407 91.8236 36.0175 92.9808 36.0175C93.6173 36.0175 94.2104 36.1421 94.7601 36.3914C95.3097 36.6407 95.7871 36.9798 96.1921 37.4088C96.5972 37.8378 96.9125 38.3421 97.1382 38.9218C97.3638 39.5016 97.4767 40.1218 97.4767 40.7827C97.4767 41.4436 97.3638 42.0581 97.1382 42.6262C96.9125 43.1943 96.6001 43.6929 96.2008 44.1218C95.8016 44.5508 95.33 44.8871 94.7861 45.1305C94.2422 45.374 93.652 45.4958 93.0155 45.4958C91.9046 45.4958 90.9788 45.1131 90.2382 44.3479ZM92.1823 42.7827C91.9046 42.7827 91.6413 42.7276 91.3925 42.6175C91.1437 42.5074 90.9267 42.3624 90.7416 42.1827C90.5564 42.003 90.4118 41.7914 90.3076 41.5479C90.2035 41.3045 90.1514 41.0436 90.1514 40.7653C90.1514 40.4871 90.2063 40.2233 90.3163 39.974C90.4262 39.7247 90.5709 39.5074 90.7502 39.3218C90.9296 39.1363 91.1408 38.9914 91.3838 38.8871C91.6269 38.7827 91.8872 38.7305 92.165 38.7305C92.4543 38.7305 92.7233 38.7856 92.9721 38.8958C93.2209 39.0059 93.4379 39.1537 93.6231 39.3392C93.8082 39.5247 93.95 39.7421 94.0484 39.9914C94.1467 40.2407 94.1959 40.5045 94.1959 40.7827C94.1959 41.0494 94.1409 41.3045 94.031 41.5479C93.9211 41.7914 93.7764 42.0059 93.597 42.1914C93.4177 42.3769 93.2065 42.5218 92.9635 42.6262C92.7204 42.7305 92.4601 42.7827 92.1823 42.7827ZM118.689 45.4958C119.834 45.4958 120.743 45.0726 121.414 44.2262V45.2175H124.573V36.2958H121.414V37.1827C120.685 36.4059 119.765 36.0175 118.654 36.0175C117.994 36.0175 117.393 36.1421 116.849 36.3914C116.305 36.6407 115.836 36.9798 115.443 37.4088C115.049 37.8378 114.743 38.3392 114.523 38.9131C114.303 39.4871 114.193 40.0929 114.193 40.7305C114.193 41.4146 114.306 42.0465 114.531 42.6262C114.757 43.2059 115.072 43.7103 115.477 44.1392C115.882 44.5682 116.357 44.9016 116.901 45.1392C117.445 45.3769 118.041 45.4958 118.689 45.4958ZM118.68 42.6262C118.929 42.7305 119.198 42.7827 119.487 42.7827C119.765 42.7827 120.028 42.7305 120.277 42.6262C120.526 42.5218 120.74 42.3769 120.919 42.1914C121.099 42.0059 121.243 41.7914 121.353 41.5479C121.463 41.3045 121.518 41.0436 121.518 40.7653C121.518 40.4871 121.463 40.2233 121.353 39.974C121.243 39.7247 121.099 39.5074 120.919 39.3218C120.74 39.1363 120.526 38.9914 120.277 38.8871C120.028 38.7827 119.765 38.7305 119.487 38.7305C119.198 38.7305 118.929 38.7827 118.68 38.8871C118.431 38.9914 118.217 39.1363 118.038 39.3218C117.858 39.5074 117.717 39.7189 117.613 39.9566C117.508 40.1943 117.456 40.4523 117.456 40.7305C117.456 41.0204 117.508 41.29 117.613 41.5392C117.717 41.7885 117.858 42.0059 118.038 42.1914C118.217 42.3769 118.431 42.5218 118.68 42.6262ZM135.145 30.7827V45.2175H132.003V30.7827H135.145ZM142.019 45.5479C144.472 45.5479 146.005 44.5276 146.619 42.4871H143.581C143.234 43.0436 142.719 43.3218 142.036 43.3218C140.763 43.3218 140.126 42.6436 140.126 41.2871H146.74V40.9566C146.74 40.1798 146.63 39.4813 146.41 38.861C146.19 38.2407 145.872 37.716 145.456 37.2871C145.039 36.8581 144.53 36.5305 143.928 36.3045C143.326 36.0784 142.649 35.9653 141.897 35.9653C141.133 35.9653 140.448 36.0784 139.84 36.3045C139.233 36.5305 138.715 36.8523 138.286 37.2697C137.858 37.6871 137.528 38.1943 137.297 38.7914C137.066 39.3885 136.95 40.0581 136.95 40.8001C136.95 41.5189 137.071 42.1682 137.314 42.7479C137.557 43.3276 137.902 43.8262 138.347 44.2436C138.793 44.661 139.328 44.9827 139.953 45.2088C140.578 45.4349 141.266 45.5479 142.019 45.5479ZM140.213 39.461H143.806C143.702 39.0204 143.488 38.6668 143.164 38.4001C142.84 38.1334 142.447 38.0001 141.984 38.0001C141.498 38.0001 141.101 38.1276 140.795 38.3827C140.488 38.6378 140.294 38.9972 140.213 39.461ZM151.67 45.2175V41.3914C151.67 40.5566 151.852 39.9218 152.217 39.4871C152.581 39.0523 153.128 38.8349 153.857 38.8349C154.343 38.8349 154.794 38.9392 155.211 39.1479V36.1392C155.084 36.116 154.971 36.1045 154.873 36.1045H154.603C153.955 36.1045 153.388 36.2465 152.902 36.5305C152.416 36.8146 152.005 37.2233 151.67 37.7566V36.2958H148.528V45.2175H151.67ZM167.466 36.2958L160.314 49.6697H156.791L159.828 44.0001L155.523 36.2958H159.169L161.547 40.8697L163.856 36.2958H167.466Z" fill="white"/>
</svg>
