<svg width="21" height="21" viewBox="0 0 21 21" fill="none" xmlns="http://www.w3.org/2000/svg">
<path fill-rule="evenodd" clip-rule="evenodd" d="M12.1938 18.2902V19.2496C12.1938 20.2149 12.9837 20.9999 13.9551 20.9999C14.1435 20.9999 14.3223 20.9727 14.516 20.9132L19.8069 19.1604C20.5211 18.9153 21.0002 18.2476 21.0002 17.4994V1.74731C21.0002 0.685823 20.0433 -0.141092 18.9592 0.0199921C18.8985 0.00674034 18.8361 -0.000133748 18.7727 -0.000133748H9.39222C7.94894 -0.000133748 6.77441 1.17219 6.77441 2.61277V3.29125L6.88 3.37835L10.3704 6.86222C10.8652 7.35519 11.1374 8.0119 11.1374 8.70954C11.1374 9.40719 10.8652 10.0639 10.3704 10.5569L6.88 14.0407L6.77441 14.1278V15.6773C6.77441 17.1179 7.94894 18.2902 9.39222 18.2902H12.1938Z" fill="white"/>
<path d="M4.8427 12.8038C4.52112 12.6673 4.31075 12.3459 4.31075 11.9901V9.34829H0.86215C0.386243 9.34829 0 8.95378 0 8.46768C0 7.98158 0.386243 7.58707 0.86215 7.58707H4.31075V4.94523C4.31075 4.58946 4.52112 4.26804 4.8427 4.13155C5.16514 3.99505 5.53587 4.07078 5.78244 4.32264L9.23105 7.84509C9.56815 8.18941 9.56815 8.74595 9.23105 9.09027L5.78244 12.6127C5.53587 12.8646 5.16514 12.9403 4.8427 12.8038Z" fill="white"/>
</svg>
