<svg width="92" height="93" viewBox="0 0 92 93" fill="none" xmlns="http://www.w3.org/2000/svg">
<path d="M75.1668 1.3696C65.1644 -0.344198 43.1289 3.56255 39.2286 20.2728C36.6355 31.3829 36.7117 40.4465 30.1675 40.6166C26.2736 40.7177 24.2432 32.6407 18.8671 31.9763C11.8508 31.1093 6.98165 36.9615 3.94277 42.2612C-2.74251 53.9203 -0.652022 73.7467 8.1392 83.4153C29.43 106.831 54.7137 82.344 65.5239 63.1996C72.4572 50.9211 88.0993 40.996 91.3571 27.1546C94.0842 15.5669 88.0323 3.57389 75.1668 1.3696Z" fill="#81CFFA"/>
<path d="M62.3562 85.9856H28.3687C25.3806 85.9856 22.9585 83.5787 22.9585 80.6095V12.3906C22.9585 9.42141 25.3806 7.01453 28.3687 7.01453H62.3562C65.3442 7.01453 67.7663 9.42141 67.7663 12.3906V80.6095C67.7663 83.5787 65.3442 85.9856 62.3562 85.9856Z" fill="#2149FE"/>
<path d="M22.959 14.7039H67.7661V78.296H22.959V14.7039Z" fill="white"/>
<path d="M31.7148 34.7897L30.7421 35.7556C30.3897 36.1054 30.3897 36.673 30.7419 37.0229L31.7157 37.9906C32.223 38.4947 32.508 39.1784 32.508 39.8915V78.296H22.959V14.7039H32.508V32.8882C32.5078 33.6016 32.2225 34.2856 31.7148 34.7897Z" fill="#3E61FF"/>
<path fill-rule="evenodd" clip-rule="evenodd" d="M28.369 86.8815H62.3565C65.8368 86.8815 68.6684 84.0678 68.6685 80.6094V12.3905C68.6685 8.93208 65.837 6.11841 62.3567 6.11841H28.369C24.8886 6.11841 22.0571 8.93208 22.0571 12.3905V80.6094C22.0571 84.0678 24.8886 86.8815 28.369 86.8815ZM23.8605 12.3905C23.8605 9.92021 25.883 7.91044 28.369 7.91044H62.3567C64.8426 7.91044 66.8651 9.92021 66.8651 12.3905V80.6094C66.8651 83.0797 64.8426 85.0895 62.3567 85.0895H28.369C25.883 85.0895 23.8605 83.0797 23.8605 80.6094V12.3905Z" fill="#2149FE"/>
<path d="M48.2074 11.9192H41.9017C41.4038 11.9192 41 11.518 41 11.0232C41 10.5284 41.4038 10.1272 41.9017 10.1272H48.2074C48.7054 10.1272 49.1091 10.5284 49.1091 11.0232C49.1091 11.518 48.7054 11.9192 48.2074 11.9192Z" fill="white"/>
<path d="M48.2071 83C48.2071 83.5523 47.7594 84 47.2071 84H42.9014C42.3491 84 41.9014 83.5523 41.9014 83V82C41.9014 81.4477 42.3491 81 42.9014 81H47.2071C47.7594 81 48.2071 81.4477 48.2071 82V83Z" fill="white"/>
<path d="M28.6354 27.6143V24.9834C28.6354 24.4886 28.2316 24.0874 27.7337 24.0874C27.2358 24.0874 26.832 24.4886 26.832 24.9834V27.6143C26.832 28.1091 27.2358 28.5103 27.7337 28.5103C28.2316 28.5103 28.6354 28.1093 28.6354 27.6143Z" fill="white"/>
<path d="M36.2264 26.3876H49.6943C50.1922 26.3876 50.596 25.9864 50.596 25.4916C50.596 24.9968 50.1922 24.5956 49.6943 24.5956H36.2264C35.7285 24.5956 35.3247 24.9968 35.3247 25.4916C35.3247 25.9864 35.7285 26.3876 36.2264 26.3876Z" fill="#80BA6E"/>
<path d="M36.2264 29.6841H44.2841C44.7821 29.6841 45.1858 29.2829 45.1858 28.7881C45.1858 28.2933 44.7821 27.8921 44.2841 27.8921H36.2264C35.7285 27.8921 35.3247 28.2933 35.3247 28.7881C35.3247 29.2829 35.7285 29.6841 36.2264 29.6841Z" fill="#80BA6E"/>
<path d="M63.8334 21.6909H35.848C35.3501 21.6909 34.9463 21.2896 34.9463 20.7948V18.8195C34.9463 18.3247 35.3501 17.9235 35.848 17.9235H63.8334C64.3313 17.9235 64.7351 18.3247 64.7351 18.8195V20.7948C64.7351 21.2896 64.3313 21.6909 63.8334 21.6909Z" fill="#80BA6E"/>
<path d="M28.6354 37.7056V35.0747C28.6354 34.5799 28.2316 34.1787 27.7337 34.1787C27.2358 34.1787 26.832 34.5799 26.832 35.0747V37.7056C26.832 38.2004 27.2358 38.6016 27.7337 38.6016C28.2316 38.6016 28.6354 38.2006 28.6354 37.7056Z" fill="white"/>
<path d="M28.6354 47.7969V45.166C28.6354 44.6713 28.2316 44.27 27.7337 44.27C27.2358 44.27 26.832 44.6713 26.832 45.166V47.7969C26.832 48.2917 27.2358 48.6929 27.7337 48.6929C28.2316 48.6929 28.6354 48.2917 28.6354 47.7969Z" fill="white"/>
<path d="M28.6354 57.8882V55.2573C28.6354 54.7626 28.2316 54.3613 27.7337 54.3613C27.2358 54.3613 26.832 54.7626 26.832 55.2573V57.8882C26.832 58.383 27.2358 58.7843 27.7337 58.7843C28.2316 58.7843 28.6354 58.383 28.6354 57.8882Z" fill="white"/>
<path d="M64.7344 35.97V52.1324C64.7344 53.1216 63.9283 53.9244 62.931 53.9244H37.8332C36.8359 53.9244 36.0298 53.1216 36.0298 52.1324V35.97C36.0298 34.9808 36.8359 34.178 37.8332 34.178H62.931C63.9283 34.178 64.7344 34.9808 64.7344 35.97Z" fill="#8CC27B"/>
<ellipse cx="60.2667" cy="34.1788" rx="2.30185" ry="2.28735" fill="#2149FE"/>
<path d="M64.7344 62.8631V78.2961H36.0298V62.8631C36.0298 61.8739 36.8359 61.071 37.8332 61.071H62.931C63.9283 61.071 64.7344 61.8739 64.7344 62.8631Z" fill="#8CC27B"/>
<ellipse cx="60.2667" cy="61.0715" rx="2.30185" ry="2.28735" fill="#2149FE"/>
<path d="M63.8334 17.9235H60.1313V21.6909H63.8334C64.3313 21.6909 64.7351 21.2896 64.7351 20.7948V18.8195C64.7351 18.3245 64.3313 17.9235 63.8334 17.9235Z" fill="#76A468"/>
<path d="M52.9629 45.7407H41.118C40.6201 45.7407 40.2163 46.142 40.2163 46.6367C40.2163 47.1315 40.6201 47.5328 41.118 47.5328H52.9629C53.4608 47.5328 53.8646 47.1315 53.8646 46.6367C53.8646 46.142 53.4608 45.7407 52.9629 45.7407V45.7407Z" fill="white"/>
<path d="M52.9629 42.2592H41.118C40.6201 42.2592 40.2163 42.6604 40.2163 43.1552C40.2163 43.65 40.6201 44.0512 41.118 44.0512H52.9629C53.4608 44.0512 53.8646 43.65 53.8646 43.1552C53.8646 42.6604 53.4608 42.2592 52.9629 42.2592Z" fill="white"/>
<path d="M43.2245 38.0756H41.118C40.6201 38.0756 40.2163 38.4768 40.2163 38.9716C40.2163 39.4664 40.6201 39.8676 41.118 39.8676H43.2245C43.7225 39.8676 44.1262 39.4664 44.1262 38.9716C44.1262 38.4768 43.7225 38.0756 43.2245 38.0756Z" fill="white"/>
<path d="M52.9629 72.6514H41.118C40.6201 72.6514 40.2163 73.0526 40.2163 73.5474C40.2163 74.0422 40.6201 74.4434 41.118 74.4434H52.9629C53.4608 74.4434 53.8646 74.0422 53.8646 73.5474C53.8646 73.0526 53.4608 72.6514 52.9629 72.6514Z" fill="white"/>
<path d="M52.9629 69.17H41.118C40.6201 69.17 40.2163 69.5713 40.2163 70.0661C40.2163 70.5608 40.6201 70.9621 41.118 70.9621H52.9629C53.4608 70.9621 53.8646 70.5608 53.8646 70.0661C53.8646 69.5713 53.4608 69.17 52.9629 69.17Z" fill="white"/>
<path d="M43.2245 64.9863H41.118C40.6201 64.9863 40.2163 65.3876 40.2163 65.8823C40.2163 66.3771 40.6201 66.7784 41.118 66.7784H43.2245C43.7225 66.7784 44.1262 66.3771 44.1262 65.8823C44.1262 65.3876 43.7225 64.9863 43.2245 64.9863Z" fill="white"/>
<path fill-rule="evenodd" clip-rule="evenodd" d="M74.0361 26.6365C74.0361 28.0488 75.1923 29.1977 76.6134 29.1977C78.0346 29.1977 79.1908 28.0488 79.1908 26.6365C79.1908 25.2242 78.0346 24.0753 76.6134 24.0753C75.1923 24.0753 74.0361 25.2242 74.0361 26.6365ZM75.8395 26.6367C75.8395 26.2125 76.1867 25.8675 76.6134 25.8675C77.04 25.8675 77.3874 26.2125 77.3874 26.6367C77.3874 27.0608 77.04 27.4058 76.6134 27.4058C76.1867 27.4058 75.8395 27.0608 75.8395 26.6367Z" fill="black"/>
<path fill-rule="evenodd" clip-rule="evenodd" d="M12.4443 21.6909C12.4443 23.1032 13.6005 24.2521 15.0217 24.2521C16.4428 24.2521 17.599 23.1032 17.599 21.6909C17.599 20.2786 16.4428 19.1298 15.0217 19.1298C13.6005 19.1298 12.4443 20.2786 12.4443 21.6909ZM14.2477 21.6911C14.2477 21.2669 14.5951 20.922 15.0217 20.922C15.4484 20.922 15.7956 21.2669 15.7956 21.6911C15.7956 22.1153 15.4484 22.4603 15.0217 22.4603C14.5951 22.4603 14.2477 22.1153 14.2477 21.6911Z" fill="black"/>
<path d="M24.0298 12C23.253 12 22.6235 11.3703 22.6235 10.5938C22.6235 9.66309 21.8667 8.90625 20.936 8.90625C20.1592 8.90625 19.5298 8.27653 19.5298 7.5C19.5298 6.72347 20.1592 6.09375 20.936 6.09375C21.8667 6.09375 22.6235 5.33691 22.6235 4.40625C22.6235 3.62972 23.253 3 24.0298 3C24.8066 3 25.436 3.62972 25.436 4.40625C25.436 5.33691 26.1929 6.09375 27.1235 6.09375C27.9003 6.09375 28.5298 6.72347 28.5298 7.5C28.5298 8.27653 27.9003 8.90625 27.1235 8.90625C26.1929 8.90625 25.436 9.66309 25.436 10.5938C25.436 11.3703 24.8066 12 24.0298 12Z" fill="black"/>
<path d="M80.4152 76.7345C79.9171 76.7345 79.5135 76.3333 79.5135 75.8385C79.5135 75.2455 79.0282 74.7633 78.4315 74.7633C77.9334 74.7633 77.5298 74.362 77.5298 73.8673C77.5298 73.3725 77.9334 72.9712 78.4315 72.9712C79.0282 72.9712 79.5135 72.489 79.5135 71.896C79.5135 71.4012 79.9171 71 80.4152 71C80.9133 71 81.3169 71.4012 81.3169 71.896C81.3169 72.489 81.8022 72.9712 82.3989 72.9712C82.897 72.9712 83.3006 73.3725 83.3006 73.8673C83.3006 74.362 82.897 74.7633 82.3989 74.7633C81.8022 74.7633 81.3169 75.2455 81.3169 75.8385C81.3169 76.3335 80.9133 76.7345 80.4152 76.7345Z" fill="black"/>
<path d="M80.2726 5.73451C79.7745 5.73451 79.3709 5.33328 79.3709 4.8385C79.3709 4.24551 78.8856 3.76327 78.2889 3.76327C77.7908 3.76327 77.3872 3.36204 77.3872 2.86726C77.3872 2.37248 77.7908 1.97124 78.2889 1.97124C78.8856 1.97124 79.3709 1.489 79.3709 0.896018C79.3709 0.401237 79.7745 0 80.2726 0C80.7707 0 81.1743 0.401237 81.1743 0.896018C81.1743 1.489 81.6596 1.97124 82.2564 1.97124C82.7545 1.97124 83.1581 2.37248 83.1581 2.86726C83.1581 3.36204 82.7545 3.76327 82.2564 3.76327C81.6596 3.76327 81.1743 4.24551 81.1743 4.8385C81.1743 5.33328 80.7707 5.73451 80.2726 5.73451Z" fill="black"/>
</svg>
