<svg width="184" height="60" viewBox="0 0 184 60" fill="none" xmlns="http://www.w3.org/2000/svg">
<path d="M183.499 51.891C183.499 56.3687 179.875 60 175.406 60H8.46255C3.99238 60.0004 0.367188 56.369 0.367188 51.891V8.10825C0.367187 3.63096 3.99238 0 8.46255 0H175.405C179.875 0 183.499 3.63096 183.499 8.10825V51.891H183.499Z" fill="black"/>
<mask id="mask0_0_1270" style="mask-type:alpha" maskUnits="userSpaceOnUse" x="13" y="12" width="36" height="40">
<path fill-rule="evenodd" clip-rule="evenodd" d="M39.4461 26.2584L31.1561 21.5361C31.1561 21.5361 16.0534 12.9318 15.1655 12.4261C14.2777 11.9203 13.3931 12.2268 13.3931 13.2836V50.3988C13.3931 51.1911 14.0253 51.5327 14.7967 51.0936C15.5677 50.6538 31.1561 41.7736 31.1561 41.7736L39.4457 37.0517C39.4457 37.0517 46.4795 33.0451 47.4144 32.5128C48.3493 31.9797 48.2595 31.2491 47.4705 30.8299C46.6818 30.4104 39.4461 26.2584 39.4461 26.2584Z" fill="white"/>
</mask>
<g mask="url(#mask0_0_1270)">
<path d="M13.3936 11.5635V51.7471L33.9304 31.6555L13.3936 11.5635Z" fill="url(#paint0_linear_0_1270)"/>
</g>
<mask id="mask1_0_1270" style="mask-type:alpha" maskUnits="userSpaceOnUse" x="13" y="12" width="36" height="40">
<path fill-rule="evenodd" clip-rule="evenodd" d="M39.4461 26.2584L31.1561 21.5361C31.1561 21.5361 16.0534 12.9318 15.1655 12.4261C14.2777 11.9203 13.3931 12.2268 13.3931 13.2836V50.3988C13.3931 51.1911 14.0253 51.5327 14.7967 51.0936C15.5677 50.6538 31.1561 41.7736 31.1561 41.7736L39.4457 37.0517C39.4457 37.0517 46.4795 33.0451 47.4144 32.5128C48.3493 31.9797 48.2595 31.2491 47.4705 30.8299C46.6818 30.4104 39.4461 26.2584 39.4461 26.2584Z" fill="white"/>
</mask>
<g mask="url(#mask1_0_1270)">
<path d="M39.4462 26.2588L31.1562 21.5365L13.3936 11.4175V11.5636L33.9304 31.6556L39.4462 26.2588Z" fill="url(#paint1_linear_0_1270)"/>
</g>
<mask id="mask2_0_1270" style="mask-type:alpha" maskUnits="userSpaceOnUse" x="13" y="12" width="36" height="40">
<path fill-rule="evenodd" clip-rule="evenodd" d="M39.4461 26.2584L31.1561 21.5361C31.1561 21.5361 16.0534 12.9318 15.1655 12.4261C14.2777 11.9203 13.3931 12.2268 13.3931 13.2836V50.3988C13.3931 51.1911 14.0253 51.5327 14.7967 51.0936C15.5677 50.6538 31.1561 41.7736 31.1561 41.7736L39.4457 37.0517C39.4457 37.0517 46.4795 33.0451 47.4144 32.5128C48.3493 31.9797 48.2595 31.2491 47.4705 30.8299C46.6818 30.4104 39.4461 26.2584 39.4461 26.2584Z" fill="white"/>
</mask>
<g mask="url(#mask2_0_1270)">
<path d="M13.3936 51.7469V51.893L31.1562 41.7736L39.4458 37.0514L33.9304 31.6553L13.3936 51.7469Z" fill="url(#paint2_linear_0_1270)"/>
</g>
<mask id="mask3_0_1270" style="mask-type:alpha" maskUnits="userSpaceOnUse" x="13" y="12" width="36" height="40">
<path fill-rule="evenodd" clip-rule="evenodd" d="M39.4461 26.2584L31.1561 21.5361C31.1561 21.5361 16.0534 12.9318 15.1655 12.4261C14.2777 11.9203 13.3931 12.2268 13.3931 13.2836V50.3988C13.3931 51.1911 14.0253 51.5327 14.7967 51.0936C15.5677 50.6538 31.1561 41.7736 31.1561 41.7736L39.4457 37.0517C39.4457 37.0517 46.4795 33.0451 47.4144 32.5128C48.3493 31.9797 48.2595 31.2491 47.4705 30.8299C46.6818 30.4104 39.4461 26.2584 39.4461 26.2584Z" fill="white"/>
</mask>
<g mask="url(#mask3_0_1270)">
<path d="M39.446 26.2588L33.9302 31.6556L39.4456 37.0517L48.9196 31.6552L39.446 26.2588Z" fill="url(#paint3_linear_0_1270)"/>
</g>
<path fill-rule="evenodd" clip-rule="evenodd" d="M68.5802 40.1419L72.1252 39.3371H72.1246V36.361C72.1246 36.1174 72.1479 35.4096 72.1737 35.1896C72.2231 34.9965 72.2471 34.9471 72.422 34.8001L73.0659 34.1906H67.8105L65.8284 35.2404L69.5706 35.0454V38.9705C68.8264 39.2638 68.0101 39.5803 66.4221 39.5803C61.0195 39.5803 57.6479 35.264 57.6479 30.6808C57.6479 26.4138 60.5981 23.4863 64.5148 23.4863C67.4191 23.4863 68.9563 24.9537 69.8023 25.7613L69.8192 25.7775L69.1997 26.7532L70.0668 26.559L72.1249 24.6326C72.0929 24.6111 72.0597 24.5887 72.0253 24.5654C71.474 24.1924 70.6026 23.6028 68.8529 23.1207C67.688 22.8035 66.4002 22.6089 65.0612 22.6089C58.7396 22.6089 55.0469 26.9972 55.0469 31.7273C55.0469 35.6048 57.6486 40.5553 64.4908 40.5553C65.8535 40.5553 67.1419 40.3618 68.5802 40.1419ZM74.0086 33.9925C74.0086 36.7096 76.1046 39.7175 80.0249 39.7175C84.0441 39.7175 86.2871 36.6842 86.2867 33.8233C86.2867 30.8877 84.0186 28.0994 80.3951 28.0994C76.6471 28.0994 74.0086 30.8147 74.0086 33.9925ZM87.3728 33.9925C87.3728 36.7096 89.4685 39.7175 93.388 39.7175C97.4079 39.7175 99.6506 36.6842 99.6502 33.8233C99.6502 30.8877 97.3817 28.0994 93.7593 28.0994C90.0103 28.0994 87.3728 30.8147 87.3728 33.9925ZM165.663 28.2397H163.746L168.507 39.9194L167.85 41.5723C167.325 42.9291 166.45 43.6073 165.222 43.6073C164.733 43.6073 164.291 43.5646 163.896 43.48V44.8893C164.428 45.0092 164.967 45.0691 165.513 45.0691C166.489 45.0691 167.313 44.7959 167.984 44.2488C168.657 43.7003 169.244 42.7729 169.746 41.4659L174.82 28.2397H172.902C171.251 32.7334 170.276 35.4156 169.978 36.2883C169.68 37.1618 169.484 37.7776 169.391 38.1386H169.305C169.168 37.4671 168.816 36.3757 168.248 34.8635L165.663 28.2397ZM110.688 32.5994C110.688 30.7524 109.503 29.7817 108.935 29.3194H110.465L112.046 28.4449H106.96C105.625 28.4449 103.946 28.6398 102.538 29.7815C101.477 30.6794 100.958 31.9191 100.958 33.0369C100.958 34.9309 102.44 36.8502 105.056 36.8502C105.304 36.8502 105.575 36.8259 105.848 36.8012C105.835 36.8311 105.822 36.8604 105.81 36.8895C105.701 37.1455 105.601 37.3794 105.601 37.7498C105.601 38.4701 105.962 38.9242 106.298 39.3451L106.342 39.4002L106.266 39.4053C105.139 39.4806 103.121 39.6156 101.625 40.5183C100.166 41.3696 99.7237 42.6079 99.7237 43.4821C99.7237 45.2809 101.451 46.9567 105.033 46.9567C109.279 46.9567 111.527 44.6496 111.527 42.3661C111.527 40.6893 110.54 39.8627 109.454 38.9634L108.564 38.2845L108.556 38.2782C108.284 38.06 107.921 37.7686 107.921 37.2404C107.921 36.7263 108.263 36.3911 108.575 36.0858L108.613 36.0486C109.65 35.2481 110.688 34.3961 110.688 32.5994ZM106.614 40.0809C106.859 40.0809 106.983 40.0809 107.181 40.1063C109.058 41.4186 109.873 42.0718 109.873 43.3133C109.873 44.8182 108.613 45.938 106.243 45.938C103.601 45.938 101.896 44.6972 101.896 42.9731C101.896 41.2473 103.477 40.6643 104.02 40.4715C105.056 40.1306 106.391 40.0809 106.614 40.0809ZM107.897 35.4896C108.465 34.9302 108.513 34.1536 108.513 33.7158C108.513 31.967 107.452 29.2461 105.403 29.2461C104.76 29.2461 104.069 29.5616 103.674 30.048C103.255 30.5581 103.13 31.2134 103.13 31.8458C103.13 33.4733 104.093 36.1703 106.218 36.1703C106.835 36.1703 107.501 35.8787 107.897 35.4896ZM96.4695 37.753C97.0622 36.9761 97.2101 36.0063 97.2101 35.0596C97.2101 32.9244 96.1746 28.8503 93.1172 28.8503C92.3038 28.8503 91.4905 29.1661 90.8989 29.6765C89.9372 30.5243 89.7638 31.592 89.7638 32.6361C89.7638 35.0356 90.972 38.9881 93.956 38.9881C94.9173 38.9881 95.9037 38.5281 96.4695 37.753ZM83.1071 37.753C83.6987 36.9761 83.847 36.0063 83.847 35.0596C83.847 32.9244 82.8107 28.8503 79.7533 28.8503C78.9403 28.8503 78.1262 29.1661 77.535 29.6765C76.5733 30.5243 76.401 31.592 76.401 32.6361C76.401 35.0356 77.6085 38.9881 80.5928 38.9881C81.5545 38.9881 82.5403 38.5281 83.1071 37.753Z" fill="#F9F9F9"/>
<path fill-rule="evenodd" clip-rule="evenodd" d="M117.554 38.8433C116.742 38.7676 116.572 38.6174 116.572 37.6345V23.3869C116.574 23.3606 116.576 23.3338 116.578 23.3073L116.578 23.3073C116.58 23.2793 116.582 23.2515 116.585 23.2246C116.684 22.344 116.93 22.193 117.693 21.7393H114.175L112.33 22.6457H114.21V22.657L114.208 22.6479V38.1891C114.208 38.6445 114.129 38.75 113.692 39.3273L113.692 39.3276C113.647 39.3872 113.598 39.4518 113.545 39.5223H117.899L118.809 38.97C118.593 38.943 118.376 38.9235 118.159 38.904L118.159 38.904L118.159 38.9039C117.957 38.8857 117.755 38.8675 117.554 38.8433ZM127.298 39.2277L127.298 39.2277C127.118 39.3345 126.937 39.4414 126.757 39.5249C125.95 39.8997 125.12 40.0001 124.385 40.0001C123.606 40.0001 122.384 39.9485 121.137 39.0245C119.404 37.7735 118.647 35.6237 118.647 33.7493C118.647 29.875 121.724 27.9752 124.24 27.9752C125.119 27.9752 126.024 28.1997 126.757 28.6757C127.977 29.499 128.294 30.5737 128.464 31.149L128.464 31.149L128.464 31.1493L122.726 33.5252L120.845 33.6751C121.455 36.85 123.555 38.6985 125.876 38.6985C127.122 38.6985 128.026 38.2495 128.856 37.8252L127.561 39.0748C127.474 39.1239 127.386 39.1757 127.299 39.2276L127.298 39.2277L127.298 39.2277ZM125.974 30.9492C125.974 31.2989 125.729 31.4495 125.266 31.6238L120.821 33.6005C120.812 33.4485 120.801 33.2968 120.79 33.1462C120.768 32.8491 120.746 32.5562 120.746 32.2741C120.746 29.5748 122.577 28.7994 123.555 28.7994C124.875 28.7994 125.974 29.95 125.974 30.9492ZM129.919 28.1462V29.7957H129.723V28.1462H129.19V27.9751H130.452V28.1462H129.919ZM132.116 28.1309V29.7957H132.292V27.9752H131.983L131.537 29.4467H131.53L131.077 27.9752H130.773V29.7957H130.95V28.1309H130.957L131.457 29.7957H131.611L132.107 28.1309H132.116Z" fill="#F9F9F9"/>
<path fill-rule="evenodd" clip-rule="evenodd" d="M81.2331 14.6794C81.2331 15.4598 80.991 16.107 80.5065 16.6208C80.022 17.1342 79.4231 17.3912 78.7098 17.3912C78.0296 17.3912 77.4601 17.1555 77.0019 16.6836C76.5432 16.2121 76.3141 15.6125 76.3141 14.8857C76.3141 14.1053 76.5562 13.458 77.0407 12.9443C77.5249 12.4309 78.1238 12.1738 78.8374 12.1738C79.5176 12.1738 80.0867 12.4089 80.5454 12.8793C81.004 13.3498 81.2331 13.9494 81.2331 14.6794ZM70.5299 14.5992C70.5299 15.3213 70.2954 15.9519 69.8267 16.4909C69.3576 17.0302 68.7008 17.2993 67.8558 17.2993C67.4745 17.2993 66.949 17.284 66.2792 17.2535C66.3126 16.4856 66.3296 15.6196 66.3296 14.6564C66.3296 13.7311 66.3127 12.9415 66.2792 12.2878H66.9555C67.0663 12.2878 67.231 12.2839 67.4501 12.2765C67.6688 12.269 67.8119 12.2651 67.8789 12.2651C68.8087 12.2651 69.4828 12.4941 69.9019 12.9518C70.3206 13.4094 70.5299 13.9583 70.5299 14.5992ZM59.9469 17.2538H58.7102C58.7102 17.0859 58.5929 16.6105 58.3584 15.8273H56.5731C56.331 16.5977 56.2098 17.0731 56.2098 17.2538H55.0469C55.0469 17.1548 55.3476 16.341 55.949 14.8129C56.5504 13.2848 56.8512 12.443 56.8512 12.2882H58.312C58.312 12.433 58.5843 13.2624 59.1292 14.7767C59.6742 16.291 59.9469 17.1164 59.9469 17.2538ZM58.1616 15.0987C57.721 13.7868 57.5008 13.0774 57.5008 12.9705H57.439C57.439 13.0696 57.2109 13.779 56.7551 15.0987H58.1616ZM63.9753 17.2538H64.9296C64.8933 16.4781 64.8753 15.6125 64.8757 14.6571C64.8757 13.7087 64.8933 12.9191 64.9296 12.2886H63.9635C63.9994 13.0132 64.0174 13.7205 64.0174 14.4093C64.0174 14.8594 64.0484 15.3679 64.1102 15.9349H64.0523C63.9519 15.5788 63.5627 14.901 62.8854 13.9019C62.249 12.9614 61.9311 12.4235 61.9311 12.2886H60.7836C60.8221 12.9394 60.8415 13.729 60.8415 14.6571C60.8415 15.6004 60.8221 16.466 60.7836 17.2542H61.7343C61.6984 16.3517 61.6804 15.5862 61.6804 14.9582C61.6804 14.5079 61.648 14.0045 61.5836 13.4478H61.6454C61.7483 13.8344 62.171 14.5523 62.9127 15.6025C63.621 16.5991 63.9753 17.1495 63.9753 17.2538ZM69.0425 13.529C69.331 13.8638 69.4752 14.275 69.4752 14.7632C69.4752 15.2514 69.3411 15.665 69.0745 16.0044C68.8079 16.3439 68.3979 16.5139 67.8439 16.5139C67.6753 16.5137 67.5071 16.4971 67.3417 16.4642C67.3162 15.8667 67.3033 15.2642 67.3033 14.6563C67.3033 14.1021 67.2903 13.5709 67.2648 13.0622C67.4583 13.0391 67.6102 13.0277 67.7209 13.0277C68.3134 13.0277 68.754 13.1949 69.0425 13.529ZM75.6943 17.2538H74.5504C74.2515 16.3538 74.0224 15.7982 73.8627 15.5873C73.703 15.376 73.4454 15.2706 73.09 15.2706C72.9404 15.2706 72.7975 15.272 72.6612 15.2745C72.6612 15.9281 72.6727 16.5878 72.6961 17.2538H71.622C71.6555 16.4859 71.6724 15.6199 71.6724 14.6567C71.6724 13.7315 71.6555 12.9418 71.622 12.2882H72.2904C72.3677 12.2882 72.5292 12.2843 72.7753 12.2768C73.0213 12.2694 73.2487 12.2654 73.4573 12.2654C74.6397 12.2654 75.231 12.6645 75.231 13.463C75.231 14.0961 74.8936 14.537 74.2188 14.7866V14.8438C74.4789 14.9148 74.7069 15.1154 74.9026 15.4442C75.0979 15.7733 75.3619 16.3765 75.6943 17.2538ZM73.2562 12.9858C73.9155 12.9858 74.2454 13.239 74.2454 13.7449C74.2454 14.307 73.8357 14.5878 73.0166 14.5875C72.9188 14.5875 72.799 14.5853 72.6573 14.58C72.6573 13.947 72.6432 13.4332 72.6148 13.0391C72.8 13.0036 73.0141 12.9858 73.2562 12.9858ZM79.7536 13.4968C80.0292 13.8273 80.167 14.2583 80.167 14.7898C80.167 15.2957 80.0353 15.7161 79.7727 16.0502C79.5101 16.3847 79.1903 16.552 78.8144 16.552C78.4123 16.552 78.073 16.3861 77.7961 16.0542C77.5191 15.7222 77.3806 15.2919 77.3806 14.7632C77.3806 14.2545 77.5126 13.8337 77.7752 13.5007C78.0378 13.1676 78.3572 13.0011 78.7335 13.0011C79.1378 13.0011 79.4777 13.1662 79.7536 13.4968ZM83.418 17.2538H82.3245C82.358 16.4656 82.3749 15.6 82.3749 14.6567C82.3749 13.7286 82.358 12.939 82.3245 12.2882H83.418C83.3846 12.929 83.3677 13.7183 83.3677 14.6567C83.3677 15.615 83.3846 16.4809 83.418 17.2538ZM88.3155 16.4909C88.7842 15.9519 89.0187 15.3213 89.0187 14.5992C89.0187 13.9583 88.8094 13.4094 88.3907 12.9518C87.9716 12.4941 87.2975 12.2651 86.3677 12.2651C86.3007 12.2651 86.1576 12.269 85.9389 12.2765C85.7198 12.2839 85.5551 12.2878 85.4443 12.2878H84.768C84.8015 12.9415 84.8184 13.7311 84.8184 14.6564C84.8184 15.6196 84.8015 16.4856 84.768 17.2535C85.4378 17.284 85.9633 17.2993 86.3446 17.2993C87.1896 17.2993 87.8465 17.0302 88.3155 16.4909ZM87.9641 14.7632C87.9641 14.275 87.8198 13.8638 87.5313 13.529C87.2428 13.1949 86.8022 13.0277 86.2097 13.0277C86.0989 13.0277 85.9471 13.0391 85.7536 13.0622C85.7791 13.5709 85.7921 14.1021 85.7921 14.6563C85.7921 15.2642 85.805 15.8667 85.8305 16.4642C85.9959 16.4971 86.1641 16.5137 86.3327 16.5139C86.8866 16.5139 87.2967 16.3439 87.5633 16.0044C87.8299 15.665 87.9641 15.2514 87.9641 14.7632ZM95.2122 17.2538H96.4489C96.4489 17.1164 96.1759 16.291 95.6313 14.7767C95.0867 13.2624 94.814 12.433 94.814 12.2882H93.3532C93.3532 12.443 93.0525 13.2848 92.4511 14.8129C91.8496 16.341 91.5489 17.1548 91.5489 17.2538H92.7115C92.7115 17.0731 92.8327 16.5977 93.0748 15.8273H94.8601C95.095 16.6105 95.2122 17.0859 95.2122 17.2538ZM94.6637 15.0987C94.223 13.7868 94.0025 13.0774 94.0025 12.9705H93.9406C93.9406 13.0696 93.7129 13.779 93.2572 15.0987H94.6637ZM100.27 14.9347C100.727 14.645 100.956 14.1962 100.956 13.5884C100.956 13.1435 100.787 12.8122 100.449 12.5935C100.112 12.3748 99.6981 12.2654 99.2089 12.2654C99.0104 12.2654 98.7762 12.2694 98.5057 12.2768C98.2352 12.2843 98.0525 12.2882 97.9571 12.2882H97.2848C97.3183 12.9518 97.3352 13.7414 97.3352 14.6567C97.3352 15.6533 97.3183 16.5193 97.2848 17.2538H98.3708C98.3424 16.4706 98.3284 15.8404 98.3284 15.3621C98.3802 15.3671 98.4661 15.3696 98.5873 15.3696C99.2521 15.3696 99.8129 15.2244 100.27 14.9347ZM99.9593 13.7982C99.9593 13.2542 99.5935 12.9819 98.8619 12.9819C98.6788 12.9819 98.4856 13.0011 98.2824 13.0391C98.3108 13.5198 98.3248 14.0638 98.3248 14.6716C98.3892 14.6769 98.464 14.6791 98.5489 14.6791C99.4892 14.6794 99.9593 14.3858 99.9593 13.7982ZM104.905 14.9347C105.362 14.645 105.591 14.1962 105.591 13.5884C105.591 13.1435 105.421 12.8122 105.084 12.5935C104.746 12.3748 104.333 12.2654 103.844 12.2654C103.645 12.2654 103.411 12.2694 103.14 12.2768C102.87 12.2843 102.687 12.2882 102.592 12.2882H101.919C101.953 12.9518 101.97 13.7414 101.97 14.6567C101.97 15.6533 101.953 16.5193 101.919 17.2538H103.005C102.977 16.4706 102.963 15.8404 102.963 15.3621C103.015 15.3671 103.101 15.3696 103.222 15.3696C103.887 15.3696 104.448 15.2244 104.905 14.9347ZM104.594 13.7982C104.594 13.2542 104.228 12.9819 103.496 12.9819C103.313 12.9819 103.12 13.0011 102.917 13.0391C102.945 13.5198 102.959 14.0638 102.959 14.6716C103.024 14.6769 103.099 14.6791 103.183 14.6791C104.124 14.6794 104.594 14.3858 104.594 13.7982ZM112.441 16.6208C112.926 16.107 113.168 15.4598 113.168 14.6794C113.168 13.9494 112.938 13.3498 112.48 12.8793C112.022 12.4089 111.452 12.1738 110.772 12.1738C110.059 12.1738 109.46 12.4305 108.976 12.9443C108.491 13.458 108.249 14.1053 108.249 14.8857C108.249 15.6125 108.478 16.2121 108.937 16.6836C109.395 17.1555 109.964 17.3912 110.645 17.3912C111.358 17.3912 111.957 17.1345 112.441 16.6208ZM112.101 14.7898C112.101 14.2583 111.964 13.8273 111.688 13.4968C111.413 13.1662 111.072 13.0011 110.668 13.0011C110.292 13.0011 109.972 13.1676 109.71 13.5007C109.447 13.8337 109.315 14.2545 109.315 14.7632C109.315 15.2919 109.454 15.7222 109.731 16.0542C110.008 16.3861 110.347 16.552 110.749 16.552C111.125 16.552 111.445 16.3847 111.707 16.0503C111.97 15.7161 112.101 15.2957 112.101 14.7898ZM117.451 17.2538H118.405C118.369 16.4781 118.351 15.6125 118.351 14.6571C118.351 13.7087 118.369 12.9191 118.405 12.2886H117.439C117.475 13.0132 117.493 13.7205 117.493 14.4093C117.493 14.8594 117.524 15.3679 117.586 15.9349H117.528C117.428 15.5788 117.039 14.901 116.361 13.9019C115.725 12.9614 115.407 12.4235 115.407 12.2886H114.259C114.298 12.9394 114.317 13.729 114.317 14.6571C114.317 15.6004 114.298 16.466 114.259 17.2542H115.21C115.174 16.3517 115.156 15.5862 115.156 14.9582C115.156 14.5079 115.124 14.0045 115.059 13.4478H115.121C115.224 13.8344 115.647 14.5523 116.388 15.6025C117.097 16.5991 117.451 17.1495 117.451 17.2538Z" fill="#F9F9FA"/>
<defs>
<linearGradient id="paint0_linear_0_1270" x1="13.3935" y1="11.5635" x2="13.3935" y2="51.7472" gradientUnits="userSpaceOnUse">
<stop stop-color="#257CB0"/>
<stop offset="0.286" stop-color="#4A93B5"/>
<stop offset="0.767" stop-color="#78BCBB"/>
<stop offset="1" stop-color="#89CFBD"/>
</linearGradient>
<linearGradient id="paint1_linear_0_1270" x1="13.3939" y1="31.6553" x2="39.4465" y2="31.6553" gradientUnits="userSpaceOnUse">
<stop stop-color="#52C1AD"/>
<stop offset="1" stop-color="#DEE89A"/>
</linearGradient>
<linearGradient id="paint2_linear_0_1270" x1="13.3935" y1="31.6553" x2="13.3935" y2="51.8931" gradientUnits="userSpaceOnUse">
<stop stop-color="#EC413D"/>
<stop offset="0.167" stop-color="#DA4452"/>
<stop offset="0.575" stop-color="#B0487A"/>
<stop offset="0.862" stop-color="#954A92"/>
<stop offset="1" stop-color="#8A4A9D"/>
</linearGradient>
<linearGradient id="paint3_linear_0_1270" x1="33.9306" y1="26.2588" x2="33.9306" y2="37.0514" gradientUnits="userSpaceOnUse">
<stop stop-color="#F58879"/>
<stop offset="0.119" stop-color="#F69079"/>
<stop offset="0.713" stop-color="#FCB877"/>
<stop offset="1" stop-color="#FEC874"/>
</linearGradient>
</defs>
</svg>
