<svg width="274" height="113" viewBox="0 0 274 113" fill="none" xmlns="http://www.w3.org/2000/svg">
<path fill-rule="evenodd" clip-rule="evenodd" d="M127.331 75.0287C129.322 71.7162 130.243 68.0901 130.26 63.6443C130.241 63.4578 130.224 63.2268 130.204 62.9639L130.204 62.9636L130.204 62.9635V62.9634C130.151 62.2709 130.082 61.3569 129.934 60.45C128.359 51.3788 121.177 44.3354 112.102 42.9623C103.027 41.5892 94.0947 46.1943 89.9236 54.3961C85.7524 62.5979 87.2782 72.5573 93.7117 79.1236C100.005 85.7739 109.861 87.5819 118.093 83.5964C119.115 83.1039 119.696 83.1815 120.49 83.9742C122.678 86.187 125.489 86.2983 127.55 84.3115C129.611 82.3247 129.644 79.3092 127.489 77.0896C126.75 76.3239 126.854 75.8213 127.331 75.0287ZM114.388 55.2216C117.602 58.4025 118.429 62.3356 117.716 67.0917L117.393 66.7695C116.934 66.3105 116.613 65.9899 116.287 65.6716C114.199 63.641 111.157 63.5769 109.156 65.5569C107.156 67.5369 107.163 70.5626 109.21 72.6742C109.979 73.3853 110.701 74.1459 111.372 74.9511C109.784 75.6185 108.001 75.6511 106.39 75.0422C104.053 74.1382 102.476 72.4044 101.384 70.1916C98.9596 65.2736 99.8976 58.7904 103.542 55.2621C106.746 52.1588 111.174 52.0408 114.388 55.2216ZM110.058 44.2319C95.3122 44.2319 85.6566 57.9606 90.239 70.8527C91.2306 73.7165 92.8865 76.3028 95.0701 78.3984C95.2219 78.5437 95.4806 78.5786 95.7365 78.6132C95.8548 78.6291 95.9724 78.645 96.0787 78.6716C96.0523 78.315 95.9834 77.9628 95.8736 77.6226C95.706 77.3601 95.5061 77.1198 95.2785 76.9075C91.7989 72.5224 90.4373 67.5369 91.3753 62.0657C93.9102 47.3217 110.424 41.277 121.929 50.7859C122.157 50.9761 122.491 51.0386 122.821 51.1004C122.976 51.1296 123.131 51.1586 123.274 51.2008C123.206 51.0607 123.149 50.9099 123.092 50.759C122.97 50.4379 122.849 50.1168 122.625 49.8988C118.843 46.1748 114.264 44.2926 110.058 44.2319ZM117.635 54.8674C120.234 57.8054 121.276 61.3135 121.508 65.2027C121.445 65.5449 121.387 65.8861 121.329 66.2257L121.329 66.2263L121.329 66.2263L121.329 66.2264C121.177 67.1252 121.027 68.0129 120.775 68.8794C120.486 69.9082 119.689 70.7346 118.604 70.5053C117.911 70.3608 117.268 69.9286 116.632 69.5008C116.422 69.3594 116.212 69.2185 116.001 69.0885C115.884 68.9132 115.868 68.689 115.958 68.4982C116.14 68.3315 116.385 68.2505 116.63 68.2756C118.486 68.5792 119.017 68.225 119.246 66.3529C119.75 62.2883 118.886 58.5677 116.388 55.2789C116.228 55.1222 116.095 54.9398 115.995 54.7392C115.934 54.5132 115.917 54.1489 116.045 54.041C116.267 53.9229 116.533 53.9229 116.754 54.041C117.084 54.2749 117.381 54.5529 117.635 54.8674ZM109.862 79.1236C110.996 78.902 112.119 78.6228 113.224 78.2871C114.203 77.9498 115.047 77.1335 114.835 76.0676C114.687 75.3205 114.242 74.6273 113.802 73.9435C113.67 73.7381 113.539 73.5335 113.416 73.3286C113.208 73.1813 112.939 73.1508 112.703 73.2476C112.559 73.332 112.495 73.7165 112.542 73.9223C112.999 75.9799 112.673 76.4859 110.579 76.8367C107.808 77.3022 105.357 76.5938 103.182 74.8398C102.985 74.6812 102.705 74.6259 102.425 74.5705L102.425 74.5705C102.294 74.5447 102.162 74.5187 102.039 74.4822C102.079 74.6143 102.106 74.7584 102.133 74.9024C102.19 75.2105 102.248 75.5181 102.429 75.7067C104.376 77.7633 107.039 78.9872 109.862 79.1236ZM114.603 67.8709C112.65 67.1558 111.049 68.0631 111.049 70.2321C111.227 70.6158 111.384 71.0088 111.52 71.4093C111.567 71.6935 111.578 71.9826 111.55 72.2694C111.464 72.2589 111.371 72.2576 111.278 72.2562C111.071 72.2532 110.864 72.2502 110.737 72.148C109.654 71.2676 108.874 70.1983 109.089 68.6905C109.264 67.2992 110.24 66.1423 111.579 65.74C112.918 65.3378 114.367 65.7659 115.275 66.8319C115.429 67.0067 115.495 67.2639 115.559 67.5162C115.59 67.6389 115.621 67.7605 115.662 67.8709C115.311 67.9284 114.954 67.9284 114.603 67.8709Z" fill="#2149FE"/>
<path fill-rule="evenodd" clip-rule="evenodd" d="M238.403 57.9752L238.402 57.9756C238.308 58.0873 238.213 58.1991 238.118 58.3114L237.785 58.1326C237.785 57.1906 237.792 56.2482 237.798 55.3058L237.798 55.3054V55.3054V55.3053C237.812 53.4198 237.825 51.5337 237.785 49.6492C237.762 48.0735 237.102 46.5748 235.955 45.4976C234.809 44.4205 233.275 43.8576 231.706 43.9384C228.513 44.043 226.099 46.5391 226.082 49.9865C226.059 56.3212 226.067 62.656 226.074 68.9907C226.078 72.1581 226.082 75.3254 226.082 78.4928C226.082 78.6716 226.095 78.8537 226.112 79.0325C226.415 82.2674 229.04 84.6488 232.164 84.5274C235.323 84.3879 237.809 81.7703 237.795 78.5974C237.808 76.9516 237.804 75.3029 237.799 73.6531V73.6529V73.6526V73.6523C237.797 72.8272 237.795 72.0018 237.795 71.1765C237.795 70.9668 237.825 70.757 237.865 70.4842C237.887 70.3314 237.912 70.1589 237.936 69.9554C238.091 70.1343 238.229 70.2929 238.356 70.4379L238.356 70.4382L238.356 70.4383C238.627 70.7496 238.845 70.9987 239.056 71.2541C240.006 72.4123 240.954 73.5723 241.902 74.7322L241.903 74.7329L241.903 74.7338C243.942 77.2283 245.98 79.7228 248.046 82.1999C250.338 84.9726 253.788 85.4111 256.39 83.2456C258.992 81.08 259.322 77.4438 257.126 74.6711C256.348 73.6908 255.551 72.731 254.751 71.7686L254.751 71.7686L254.751 71.7685C254.172 71.0718 253.592 70.3736 253.018 69.6653C251.667 68.0194 250.316 66.3678 248.939 64.6847L248.936 64.6814L248.557 64.2177C251.404 60.767 254.184 57.3939 256.935 54.0207C259.332 51.0726 259.079 47.4937 256.39 45.2506C253.794 43.0985 250.187 43.591 247.834 46.448C246.097 48.5642 244.369 50.6854 242.643 52.8054L242.643 52.8057L242.638 52.8117C241.526 54.177 240.415 55.5419 239.301 56.9048C239.005 57.2663 238.704 57.6201 238.403 57.975L238.403 57.9751L238.403 57.9752ZM229.524 51.0524V65.1015C229.523 66.1687 229.521 67.2363 229.519 68.3044V68.3045V68.3046C229.511 71.6452 229.504 74.9902 229.544 78.341C229.553 78.9591 229.69 79.5758 229.826 80.1928C229.902 80.5356 229.978 80.8784 230.032 81.2217C230.05 81.5087 230.04 81.7968 230.002 82.0818C229.897 82.0622 229.784 82.0542 229.671 82.0462C229.434 82.0295 229.198 82.0129 229.05 81.8896C227.853 80.8844 227.541 79.5149 227.541 78.0105V50.4553C227.531 50.095 227.544 49.7344 227.581 49.3759C227.981 46.3873 230.721 44.667 233.512 45.7127C234.12 45.9405 234.647 46.4283 235.148 46.8926L235.149 46.8927L235.149 46.8932C235.204 46.9443 235.259 46.995 235.314 47.0451C235.42 47.1427 235.413 47.3686 235.407 47.5945C235.403 47.6964 235.4 47.7982 235.408 47.8884C235.128 47.9103 234.847 47.9103 234.567 47.8884C234.276 47.8474 233.981 47.7767 233.687 47.7061L233.687 47.7061L233.687 47.7061C233.108 47.5671 232.533 47.429 231.995 47.5207C230.405 47.7872 229.524 49.1634 229.524 51.0524ZM237.748 60.2239L237.479 59.7686L236.406 60.2239C236.47 60.3429 236.528 60.4714 236.585 60.5999C236.708 60.8759 236.831 61.1519 237.021 61.3337C238.181 62.3827 239.869 62.1298 241.019 60.7333C242.758 58.6166 244.489 56.4932 246.22 54.3698L246.22 54.3691C247.722 52.5268 249.224 50.6844 250.731 48.8463C251.999 47.3015 253.324 47.0012 255.005 47.7501C255.394 47.8576 255.797 47.9099 256.201 47.9052C256.15 47.7737 256.108 47.6317 256.066 47.4897L256.066 47.4896C255.976 47.1801 255.885 46.8697 255.687 46.6639C253.791 44.7244 250.883 45.0111 249 47.3149C247.769 48.8186 246.545 50.3295 245.321 51.8401C243.407 54.2028 241.493 56.565 239.553 58.8983C239.235 59.2797 238.79 59.5552 238.342 59.8322C238.141 59.957 237.939 60.082 237.748 60.2172V60.2239ZM239.738 68.5255C239.812 68.4911 239.893 68.4536 239.967 68.4105V68.4038C240.294 68.6437 240.601 68.91 240.885 69.1998C244.124 73.1216 247.34 77.057 250.534 81.0058C250.689 81.1892 250.706 81.4769 250.723 81.7653C250.732 81.9013 250.74 82.0374 250.762 82.1628C250.63 82.1077 250.483 82.0647 250.337 82.0217C250.026 81.9306 249.716 81.8395 249.542 81.6332C247.303 78.969 245.098 76.2791 242.891 73.5889C242.447 73.0467 242.002 72.5044 241.557 71.9624C241.427 71.8047 241.297 71.6473 241.166 71.4898C240.638 70.8521 240.107 70.2127 239.614 69.5473C239.481 69.2878 239.433 68.9923 239.48 68.704C239.482 68.6444 239.598 68.5905 239.738 68.5255Z" fill="#2149FE"/>
<path fill-rule="evenodd" clip-rule="evenodd" d="M144.783 63.0134L144.783 63.0148V63.015C144.779 65.1157 144.775 67.2138 144.786 69.3044C144.806 72.5258 147.066 74.8836 150.115 74.9106C153.164 74.9376 155.494 72.6135 155.514 69.382C155.534 66.412 155.53 63.4428 155.525 60.4739C155.52 56.9114 155.515 53.3494 155.551 49.7875C155.535 47.7349 156.595 45.8245 158.341 44.7561C160.088 43.6876 162.266 43.6179 164.077 44.5726C166.118 45.6351 167.268 47.3925 167.278 49.6863C167.285 51.2249 167.3 52.7652 167.316 54.3064V54.3069C167.369 59.5232 167.422 64.749 167.137 69.9487C166.652 78.8065 159.091 85.6371 150.293 85.6911C141.495 85.7451 133.772 79.0157 133.235 70.1747C132.839 63.7165 132.956 57.2225 133.071 50.7432L133.093 49.5109C133.151 46.1209 135.891 43.817 139.145 43.9182C142.342 44.0194 144.743 46.5695 144.773 49.9629C144.796 52.2297 144.792 54.4699 144.789 56.7059C144.787 57.7573 144.785 58.8078 144.786 59.8596C144.786 60.9111 144.784 61.9626 144.783 63.0134ZM156.963 59.8057V65.0678C156.963 65.5479 156.972 66.0361 156.982 66.5285V66.5286C157.007 67.8351 157.032 69.1713 156.886 70.4648C156.301 75.5582 150.616 78.0307 146.245 75.1534C146.017 75.0001 145.707 74.9648 145.397 74.9294C145.25 74.9127 145.103 74.896 144.964 74.8667C145.019 74.9966 145.064 75.1368 145.109 75.277C145.206 75.5811 145.303 75.8848 145.506 76.081C147.435 77.9464 149.755 78.729 152.408 78.2365C156.308 77.5113 158.849 74.4181 158.883 70.2793C158.91 66.6823 158.906 63.0865 158.901 59.4912V59.491C158.898 56.9231 158.895 54.3554 158.903 51.7877C158.885 51.2489 158.913 50.7095 158.987 50.1754C159.39 47.885 161.545 46.782 163.694 47.6961C163.95 47.8062 164.252 47.8071 164.555 47.8081C164.697 47.8086 164.84 47.809 164.978 47.8209C164.919 47.6892 164.87 47.5464 164.821 47.4037C164.714 47.0935 164.608 46.7838 164.396 46.5897C163.052 45.3619 161.465 45.0178 159.784 45.7228C158.078 46.3492 156.959 47.9957 157 49.8178C156.947 52.3326 156.953 54.8512 156.959 57.3693C156.961 58.1815 156.963 58.9937 156.963 59.8057ZM136.488 57.3091C136.492 58.3889 136.495 59.4685 136.495 60.5478V68.9199C136.443 72.4679 137.634 75.9218 139.861 78.6784C140.035 78.8999 140.111 79.2018 140.187 79.5033C140.222 79.6426 140.257 79.7818 140.301 79.9129C140.151 79.8556 139.987 79.8144 139.823 79.7734C139.497 79.6914 139.174 79.6105 138.977 79.4036C136.213 76.4724 134.65 72.971 134.586 68.9469C134.499 63.4557 134.525 57.962 134.551 52.4701C134.555 51.6164 134.559 50.7626 134.562 49.9089C134.562 47.9795 135.483 46.5189 137.252 45.7465C138.926 45.0179 140.513 45.3282 141.858 46.583C142.066 46.7779 142.173 47.0818 142.28 47.3867C142.331 47.5305 142.381 47.6745 142.443 47.8075C142.308 47.798 142.168 47.7993 142.028 47.8007C141.718 47.8036 141.408 47.8066 141.148 47.6928C138.872 46.6977 136.532 48.2223 136.495 50.8298C136.473 52.9887 136.48 55.1491 136.488 57.3091Z" fill="#2149FE"/>
<path fill-rule="evenodd" clip-rule="evenodd" d="M207.564 85.7046C194.933 85.7889 185.264 74.9106 186.481 61.9611C187.826 47.5578 202.921 38.619 215.993 44.5996C218.144 45.6094 220.095 47.0013 221.752 48.7081C224.778 51.8248 223.618 56.7463 219.772 57.9538C217.734 58.5947 215.872 58.1394 214.218 56.8036C214.042 56.6636 213.882 56.5053 213.74 56.3314C208.832 50.4048 201.684 52.6884 199.24 59.2795C197.589 63.732 197.936 68.0732 200.77 71.9928C203.98 76.4285 209.454 76.7354 213.162 72.718C214.473 71.298 215.905 70.2995 217.902 70.2658C222.044 70.1983 224.626 74.1078 222.918 77.9532C221.91 80.2435 220.02 81.7041 217.983 82.9757C215.072 84.7905 211.545 85.6776 207.564 85.7046ZM187.85 65.621C187.85 69.5574 189.732 74.2461 193.43 78.1893C193.64 78.4182 193.962 78.5368 194.284 78.6559C194.437 78.7122 194.59 78.7686 194.732 78.8369C194.619 78.3804 194.484 77.93 194.325 77.4877C194.184 77.2588 194.017 77.0471 193.827 76.8569C189.245 70.566 188.351 63.7725 191.739 56.7631C195.081 49.8482 200.793 46.2524 208.549 46.2153C212.54 46.1529 216.423 47.5172 219.502 50.0641C219.734 50.2428 220.043 50.3081 220.352 50.3733C220.492 50.4028 220.631 50.4323 220.763 50.4722C220.713 50.3324 220.676 50.1777 220.64 50.0231L220.639 50.0231C220.56 49.6891 220.48 49.3557 220.269 49.1736C219.284 48.2555 218.207 47.4427 217.055 46.7483C203.869 39.4185 188.014 48.7722 187.85 65.621ZM208.03 78.9717C208.027 78.9718 208.024 78.9718 208.022 78.9718H208.035C208.033 78.9718 208.032 78.9718 208.03 78.9717ZM216.191 75.005C214.075 77.4655 211.438 78.919 208.03 78.9717C205.195 78.9096 202.725 77.746 200.706 75.6797C200.537 75.5076 200.481 75.2217 200.425 74.9359C200.4 74.807 200.375 74.6782 200.34 74.5598C200.459 74.5852 200.587 74.6 200.715 74.6149C200.994 74.6471 201.275 74.6795 201.473 74.8229C205.944 78.1184 210.637 77.6799 214.436 73.504C215.835 71.949 217.462 71.3317 219.479 71.949C220.024 72.1454 220.517 72.4651 220.918 72.8833C221.078 73.0438 221.128 73.3165 221.177 73.5886C221.2 73.7113 221.222 73.8338 221.255 73.9459C220.898 73.9962 220.536 73.9905 220.182 73.929C218.595 73.3792 217.287 73.7367 216.191 75.005Z" fill="#2149FE"/>
<path fill-rule="evenodd" clip-rule="evenodd" d="M183.07 69.0346C183.066 67.429 183.062 65.8233 183.062 64.2177H183.065C183.065 62.6571 183.068 61.0965 183.071 59.5358C183.077 56.4146 183.083 53.2933 183.065 50.172C183.042 46.5358 180.608 43.9519 177.206 43.9486C173.803 43.9452 171.299 46.4784 171.299 50.1315C171.262 59.5392 171.252 68.9502 171.329 78.3579C171.359 79.5652 171.688 80.746 172.284 81.7951C173.599 84.0013 176.229 85.0437 178.692 84.3351C181.27 83.6737 183.071 81.3387 183.062 78.6682C183.087 75.457 183.079 72.2458 183.07 69.0346ZM172.805 78.3444V64.0356C172.805 59.266 172.805 54.4997 172.818 49.7335C172.825 47.8007 173.864 46.4953 175.545 45.7566C177.098 45.0153 178.948 45.343 180.154 46.5729C180.368 46.7713 180.479 47.0785 180.591 47.3857C180.643 47.5276 180.694 47.6695 180.756 47.8007C180.619 47.7921 180.477 47.7955 180.335 47.7988C180.03 47.806 179.726 47.8133 179.472 47.7029C177.175 46.6909 174.808 48.1683 174.741 50.7387C174.701 52.2966 174.709 53.8561 174.718 55.4162C174.721 56.0619 174.724 56.7076 174.724 57.3534C174.724 59.0247 174.723 60.6966 174.722 62.3689C174.718 67.6662 174.715 72.9675 174.748 78.2668C174.752 78.8688 174.888 79.4694 175.024 80.0721C175.104 80.4285 175.185 80.7856 175.239 81.1441C175.256 81.4664 175.241 81.7897 175.192 82.1088C175.091 82.0809 174.982 82.0622 174.873 82.0436C174.639 82.0035 174.405 81.9633 174.254 81.8322C173.215 80.9181 172.805 79.7274 172.805 78.3444Z" fill="#2149FE"/>
<path fill-rule="evenodd" clip-rule="evenodd" d="M261.931 50.1416V64.1907C261.931 65.737 261.93 67.2829 261.928 68.8286C261.926 71.9191 261.924 75.0086 261.931 78.0982C261.905 78.8164 261.978 79.5348 262.146 80.2334C262.932 83.0436 265.647 84.8557 268.534 84.497C271.506 84.1024 273.688 81.7108 273.688 78.5198C273.735 69.0188 273.735 59.519 273.688 50.0202C273.667 46.4244 271.052 43.8811 267.67 43.9486C264.341 44.016 261.931 46.583 261.931 50.1416ZM263.387 78.1117V64.1907V64.184C263.387 62.593 263.386 61.0028 263.384 59.4125C263.382 56.232 263.38 53.0515 263.387 49.865C263.393 47.9693 264.348 46.6133 266.029 45.8173C267.582 45.0819 269.092 45.3046 270.47 46.3165C270.746 46.4835 270.976 46.715 271.143 46.9911C271.235 47.3006 271.277 47.6229 271.267 47.9457C270.981 47.9758 270.692 47.961 270.41 47.9019C267.404 46.7112 265.367 48.0739 265.367 51.3458C265.333 60.4443 265.333 69.5439 265.367 78.6446C265.369 79.1663 265.498 79.688 265.628 80.2113C265.704 80.5171 265.78 80.8234 265.831 81.1306C265.858 81.455 265.858 81.7811 265.831 82.1055C265.707 82.0656 265.577 82.0392 265.449 82.0133C265.197 81.9624 264.955 81.9134 264.792 81.7681C263.723 80.8102 263.387 79.5216 263.387 78.1117Z" fill="#2149FE"/>
<path d="M110.057 44.2319C114.263 44.2926 118.842 46.1748 122.638 49.9089C122.974 50.2293 123.075 50.7724 123.286 51.2109C122.829 51.0794 122.278 51.076 121.942 50.796C110.437 41.2872 93.923 47.3318 91.3881 62.0758C90.4367 67.5369 91.7983 72.5224 95.2779 76.9075C95.5049 77.1231 95.7037 77.3668 95.8696 77.6327C95.9794 77.9729 96.0483 78.3251 96.0747 78.6817C95.7385 78.5974 95.2913 78.621 95.0661 78.4085C92.8825 76.3129 91.2266 73.7266 90.2349 70.8628C85.656 57.9606 95.3115 44.2252 110.057 44.2319Z" fill="white"/>
<path d="M121.508 65.2027C121.276 66.4339 121.121 67.6853 120.785 68.8861C120.496 69.9149 119.699 70.7414 118.613 70.512C117.685 70.3197 116.858 69.6181 116.011 69.0953C115.894 68.9199 115.878 68.6958 115.967 68.505C116.15 68.3382 116.394 68.2572 116.64 68.2823C118.496 68.5859 119.027 68.2317 119.255 66.3597C119.756 62.3119 118.896 58.5745 116.398 55.2857C116.238 55.1289 116.105 54.9465 116.004 54.746C115.944 54.52 115.927 54.1557 116.055 54.0477C116.277 53.9296 116.542 53.9296 116.764 54.0477C117.094 54.2816 117.39 54.5597 117.645 54.8741C120.234 57.8054 121.276 61.3135 121.508 65.2027Z" fill="white"/>
<path d="M109.862 79.1236C107.033 78.995 104.362 77.7744 102.409 75.7167C102.143 75.4401 102.143 74.9072 102.019 74.4923C102.405 74.607 102.872 74.6171 103.162 74.8498C105.35 76.6039 107.801 77.3122 110.558 76.8467C112.652 76.5094 112.979 75.99 112.521 73.9323C112.474 73.7165 112.521 73.3319 112.683 73.2577C112.918 73.1609 113.187 73.1914 113.395 73.3387C113.927 74.2258 114.623 75.1062 114.814 76.0777C115.026 77.1436 114.182 77.9497 113.204 78.2972C112.104 78.6288 110.989 78.9046 109.862 79.1236Z" fill="white"/>
<path d="M111.05 70.232C111.227 70.6147 111.384 71.0065 111.52 71.4059C111.568 71.69 111.578 71.9792 111.55 72.266C111.275 72.2323 110.922 72.293 110.737 72.1446C109.654 71.2642 108.874 70.1949 109.09 68.6871C109.264 67.2958 110.24 66.1389 111.579 65.7366C112.918 65.3343 114.368 65.7625 115.276 66.8285C115.504 67.0883 115.538 67.5032 115.662 67.8675C115.311 67.925 114.954 67.925 114.603 67.8675C112.65 67.1557 111.039 68.0631 111.05 70.232Z" fill="white"/>
<path d="M229.524 65.1015C229.524 69.5136 229.491 73.9256 229.545 78.3377C229.545 79.299 229.881 80.257 230.032 81.2183C230.05 81.5054 230.04 81.7935 230.002 82.0785C229.666 82.0178 229.269 82.0785 229.05 81.8862C227.854 80.8743 227.541 79.525 227.541 78.0071C227.541 68.821 227.541 59.6359 227.541 50.452C227.531 50.0917 227.544 49.7311 227.581 49.3726C227.981 46.3907 230.721 44.6502 233.512 45.7094C234.184 45.9623 234.762 46.5358 235.314 47.0417C235.468 47.1834 235.384 47.5949 235.408 47.885C235.128 47.9069 234.847 47.9069 234.567 47.885C233.703 47.7636 232.806 47.3791 231.995 47.5174C230.405 47.7838 229.531 49.1601 229.524 51.049C229.514 55.7309 229.524 60.4129 229.524 65.1015Z" fill="white"/>
<path d="M237.748 60.2172C238.357 59.7821 239.093 59.4515 239.554 58.8916C242.734 55.0563 245.844 51.1637 249.001 47.3082C250.883 45.0044 253.791 44.7176 255.688 46.6572C255.977 46.9574 256.024 47.4802 256.202 47.8985C255.798 47.9031 255.395 47.8509 255.005 47.7433C253.324 46.9945 252 47.2947 250.732 48.8396C247.488 52.7963 244.267 56.7732 241.019 60.7265C239.87 62.123 238.182 62.376 237.022 61.327C236.726 61.0605 236.608 60.5916 236.407 60.2172L237.479 59.7618L237.748 60.2172Z" fill="white"/>
<path d="M239.967 68.4038C240.294 68.6449 240.601 68.9122 240.885 69.2032C244.115 73.1228 247.331 77.0581 250.534 81.0092C250.749 81.2791 250.692 81.7749 250.762 82.1662C250.349 81.9942 249.798 81.9402 249.542 81.6366C246.852 78.4355 244.21 75.1973 241.557 71.9658C240.885 71.1698 240.213 70.3805 239.614 69.5507C239.481 69.2912 239.433 68.9957 239.48 68.7074C239.483 68.6062 239.752 68.5286 239.967 68.4038Z" fill="white"/>
<path d="M156.964 59.8057C156.964 56.4764 156.93 53.1437 156.964 49.8178C156.922 47.9957 158.041 46.3492 159.747 45.7228C161.428 45.0179 163.022 45.3619 164.36 46.5897C164.669 46.8731 164.753 47.4027 164.942 47.8209C164.511 47.7838 164.034 47.858 163.657 47.6961C161.522 46.782 159.367 47.885 158.951 50.1754C158.877 50.7095 158.849 51.2489 158.866 51.7877C158.866 57.9504 158.893 64.1132 158.846 70.2793C158.813 74.4181 156.271 77.5113 152.371 78.2365C149.719 78.729 147.399 77.9464 145.469 76.081C145.173 75.7943 145.103 75.2782 144.928 74.8667C145.358 74.9578 145.866 74.9274 146.209 75.1534C150.579 78.0307 156.274 75.5717 156.853 70.4614C157.054 68.6838 156.923 66.869 156.93 65.0644C156.937 63.2598 156.93 61.5563 156.93 59.8023L156.964 59.8057Z" fill="white"/>
<path d="M136.496 60.5478C136.496 63.3407 136.496 66.1303 136.496 68.9199C136.446 72.4629 137.635 75.9114 139.858 78.6649C140.114 79.0022 140.157 79.4846 140.298 79.8995C139.848 79.7375 139.27 79.7004 138.974 79.3901C136.21 76.4723 134.647 72.9812 134.583 68.9334C134.482 62.5885 134.533 56.2403 134.56 49.8954C134.56 47.966 135.484 46.5054 137.249 45.733C138.93 45.0044 140.517 45.3147 141.855 46.5695C142.161 46.8562 142.248 47.3791 142.44 47.7939C142.006 47.7636 141.522 47.8445 141.146 47.6793C138.87 46.6842 136.53 48.2088 136.493 50.8163C136.452 54.068 136.496 57.3096 136.496 60.5478Z" fill="white"/>
<path d="M187.85 65.621C188.014 48.7722 203.869 39.4185 217.045 46.7314C218.197 47.4258 219.274 48.2386 220.259 49.1567C220.568 49.4232 220.595 50.0135 220.753 50.4554C220.33 50.3272 219.812 50.3069 219.492 50.0472C216.411 47.5052 212.528 46.1457 208.539 46.2119C200.807 46.2491 195.091 49.8448 191.729 56.7597C188.34 63.7691 189.235 70.5626 193.817 76.8535C194.007 77.0437 194.174 77.2554 194.315 77.4843C194.474 77.9266 194.609 78.377 194.721 78.8335C194.281 78.621 193.713 78.5165 193.42 78.1859C189.732 74.2461 187.866 69.5574 187.85 65.621Z" fill="white"/>
<path d="M208.035 78.9718C205.198 78.9111 202.74 77.7473 200.703 75.6796C200.457 75.43 200.451 74.9409 200.336 74.5597C200.716 74.6407 201.18 74.6137 201.469 74.8228C205.941 78.1184 210.634 77.6799 214.433 73.504C215.849 71.9489 217.482 71.3317 219.476 71.9489C220.021 72.1454 220.513 72.4651 220.915 72.8833C221.147 73.116 221.147 73.5849 221.251 73.9458C220.895 73.9962 220.533 73.9905 220.179 73.929C218.592 73.3791 217.284 73.7367 216.188 75.005C214.077 77.4674 211.448 78.9313 208.035 78.9718Z" fill="white"/>
<path d="M172.805 64.0356C172.805 59.266 172.805 54.4997 172.805 49.7301C172.805 47.7973 173.847 46.4919 175.532 45.7532C177.084 45.0119 178.935 45.3396 180.141 46.5695C180.453 46.8596 180.548 47.3824 180.743 47.7973C180.312 47.7703 179.832 47.8614 179.458 47.6995C177.162 46.6876 174.795 48.1616 174.728 50.7353C174.671 52.938 174.711 55.144 174.711 57.35C174.711 64.3223 174.691 71.298 174.735 78.2635C174.735 79.2214 175.071 80.176 175.226 81.1408C175.243 81.4631 175.227 81.7864 175.179 82.1055C174.863 82.0178 174.462 82.0211 174.241 81.8289C173.202 80.9148 172.788 79.724 172.792 78.3411C172.805 73.5748 172.805 68.812 172.805 64.0356Z" fill="white"/>
<path d="M263.387 64.184C263.387 59.411 263.387 54.6347 263.387 49.8617C263.387 47.9559 264.348 46.5999 266.029 45.8139C267.582 45.0786 269.092 45.2945 270.47 46.3132C270.746 46.4801 270.976 46.7116 271.143 46.9878C271.235 47.2972 271.277 47.6195 271.267 47.9424C270.981 47.9725 270.692 47.9577 270.41 47.8985C267.384 46.7078 265.367 48.0706 265.367 51.3425C265.367 60.4432 265.367 69.5428 265.367 78.6413C265.367 79.4677 265.703 80.2941 265.831 81.1273C265.858 81.4517 265.858 81.7777 265.831 82.1021C265.478 82.0009 265.037 82.0009 264.792 81.7648C263.709 80.8034 263.383 79.5183 263.387 78.1083C263.393 73.4635 263.387 68.812 263.387 64.184Z" fill="white"/>
<path d="M21.1806 43.6787C20.7225 43.809 20.2989 44.0394 19.94 44.3533C16.2418 47.46 17.2908 56.5708 16.763 58.8275C16.763 58.8275 16.2284 63.2125 18.8978 65.6345C21.5672 68.0564 23.7054 67.9383 23.7054 67.9383C23.7054 67.9383 26.7312 64.663 27.538 61.3C27.8742 59.9001 24.993 57.7514 23.7054 56.898C23.7054 56.898 23.8399 52.0373 27.259 48.6339C27.259 48.6339 27.1044 48.3235 26.8354 47.8547C25.9109 46.2929 23.655 43.0108 21.1806 43.6787Z" fill="#98C883"/>
<path d="M36.2625 63.904C38.5197 63.2518 40.7377 62.4701 42.9057 61.5631C42.6841 61.3936 42.5056 61.174 42.3846 60.9222L41.2685 58.5441C41.0183 57.9966 41.0692 57.3581 41.4029 56.8575C39.722 57.4748 37.8695 58.0989 35.7817 58.7026C35.9586 59.3307 36.0302 59.9839 35.9935 60.6355C35.9547 61.7318 36.045 62.8289 36.2625 63.904Z" fill="#98C883"/>
<path d="M49.1717 58.7769C52.2244 57.323 54.5509 56.0784 55.0754 55.7916C53.6734 54.3581 52.5303 53.2787 51.9554 52.6749C51.7676 52.4786 51.606 52.2586 51.4747 52.0205C50.0157 52.9516 48.4998 53.7898 46.936 54.5301C47.3643 54.6826 47.7149 54.9992 47.911 55.4105L49.0205 57.7717C49.167 58.0789 49.2174 58.4235 49.165 58.76L49.1717 58.7769Z" fill="#98C883"/>
<path d="M65.3365 79.8185C64.8557 80.7764 63.6555 81.4409 60.2095 79.2754C60.27 84.2811 67.0948 88.8483 67.5587 88.7471C68.0227 88.6459 68.0563 83.9134 65.3365 79.8185Z" fill="#98C883"/>
<path d="M63.0339 93.9991C62.9263 94.4275 62.2002 97.2238 65.0242 102.206C65.3301 102.429 65.6529 102.648 65.9857 102.864C73.0458 107.438 70.3395 105.006 72.3398 107.721C74.3402 110.436 78.4586 112.73 78.4586 112.73C78.4586 112.73 82.9367 112.73 84.1739 111.303C85.2061 110.106 84.5807 109.836 81.1482 107.451C78.6973 105.765 75.6077 106.011 73.0425 101.859C72.0339 100.223 71.2001 98.0536 70.205 96.05C66.1336 92.2856 63.1415 93.5707 63.0339 93.9991Z" fill="#98C883"/>
<path d="M49.3339 69.6788C49.8466 69.4607 50.3346 69.1882 50.7896 68.8659C51.1964 69.7902 53.2942 74.1651 58.3607 77.9734C59.0331 78.4816 59.6495 78.91 60.2098 79.2585C63.6424 81.4241 64.856 80.7596 65.3368 79.8016C65.4313 79.6187 65.5035 79.425 65.552 79.2248C67.9289 70.1173 59.9577 60.7704 55.0828 55.7748C54.5415 56.075 52.2319 57.3062 49.1792 58.76C49.099 59.3277 48.7368 59.8156 48.2177 60.0553L44.6742 61.7419C44.1029 62.0113 43.4299 61.9412 42.926 61.5597C40.758 62.4668 38.5399 63.2484 36.2827 63.9007C37.6645 71.47 43.679 85.4887 50.5139 88.2749C58.4986 91.5637 56.4814 92.714 58.3473 93.4358C58.3473 93.4358 58.8684 97.8479 65.0241 102.206C62.2001 97.2239 62.9263 94.4275 63.0339 93.9991C63.1414 93.5708 66.1336 92.2856 70.1982 96.0568C68.6618 92.9703 66.7455 90.2617 63.202 90.4304C62.2557 88.7035 60.9427 87.2065 59.3559 86.0453C59.3559 86.0453 56.4814 78.594 49.3339 69.6788Z" fill="#96CAEE"/>
<path d="M36.5547 65.2938C36.4404 64.8114 36.3429 64.3459 36.2622 63.904C38.5194 63.2518 40.7375 62.4702 42.9054 61.5631C43.4094 61.9445 44.0824 62.0147 44.6537 61.7452L48.1972 60.0587C48.7163 59.8189 49.0785 59.331 49.1587 58.7634C52.2114 57.3096 54.5378 56.0649 55.0623 55.7782L55.264 55.9873C49.31 60.8311 52.6081 69.2437 56.5449 73.1903C59.1437 76.0305 62.0686 78.3748 65.239 79.9365C64.7078 80.8136 63.4538 81.3162 60.196 79.2619C59.6424 78.9134 59.0261 78.485 58.3469 77.9768C53.2805 74.1584 51.1826 69.7834 50.7758 68.8693C50.3208 69.1916 49.8328 69.4641 49.3201 69.6822C56.4811 78.594 59.3623 86.0149 59.3623 86.0149C60.9491 87.1762 62.2621 88.6732 63.2083 90.4C66.7518 90.2314 68.6682 92.94 70.2046 96.0264C66.14 92.2552 63.1445 93.5404 63.0402 93.9688C62.936 94.3972 62.1964 97.2239 65.0238 102.206C58.868 97.8378 58.3469 93.4358 58.3469 93.4358L58.2696 93.4055C58.3806 93.2436 58.4949 93.0884 58.6058 92.9197C59.2513 90.9802 58.6596 86.5816 55.6742 87.344C55.0354 77.3595 47.6156 67.0141 36.5547 65.2938Z" fill="#2149FE"/>
<path d="M57.8862 34.0045C58.1281 34.6945 58.4087 35.3702 58.7267 36.0284C59.6703 37.7028 60.7344 39.306 61.9105 40.825L62.055 40.3157C62.3341 39.324 62.3643 39.1351 62.4954 38.6831C62.6752 37.9731 62.9381 37.2869 63.2788 36.639C63.4562 36.3184 63.6573 36.0117 63.8806 35.7215C64.2168 35.3099 65.0371 34.3722 66.1196 34.3722C66.8458 34.3722 67.5955 34.777 68.6277 35.3369C68.7823 35.4246 68.9437 35.5157 69.1084 35.6203C69.3673 35.7788 69.606 35.9374 69.8212 36.0959C69.0811 33.088 67.3881 30.4023 64.9967 28.4422C64.8659 28.8704 64.6354 29.2612 64.3243 29.5824C62.4753 31.586 57.6609 32.6182 57.6609 32.6182C57.6515 33.0905 57.729 33.5605 57.8895 34.0045H57.8862Z" fill="#2149FE"/>
<path d="M27.7731 36.8852C27.1881 39.3038 27.6621 41.837 28.6236 44.3432C30.6408 49.6154 34.7727 54.7999 35.7813 58.6925C37.869 58.0887 39.7383 57.4647 41.4025 56.8474C41.5705 56.5952 41.8026 56.3926 42.0749 56.2605L45.6217 54.5908C46.0297 54.396 46.4986 54.3741 46.9228 54.5301C48.4866 53.7898 50.0025 52.9516 51.4615 52.0205C50.0595 49.5142 53.1424 46.2861 54.736 41.2804C53.8384 41.7425 52.6718 41.864 51.1622 41.4356C46.3681 40.0863 42.7842 39.749 38.844 39.9345C35.6367 40.1032 29.5515 41.0747 27.7731 36.8852Z" fill="#96CAEE"/>
<path d="M27.7731 36.8852C29.5515 41.0747 35.6333 40.1032 38.8676 39.921C42.8078 39.7187 46.3916 40.0695 51.1858 41.4221C52.6953 41.8505 53.8754 41.729 54.7596 41.2669C53.1693 46.2592 50.0831 49.5007 51.485 52.007C51.206 52.1891 50.8698 52.3983 50.4764 52.6243C46.1059 47.1665 39.3248 43.2132 33.5422 46.6943C32.5515 47.2999 31.5994 47.9669 30.6913 48.6912C29.9072 47.2846 29.2165 45.8276 28.6236 44.3297C27.6621 41.8269 27.1881 39.3038 27.7731 36.8852Z" fill="#2149FE"/>
<path d="M51.1759 41.4356C46.3817 40.0863 42.7978 39.749 38.8576 39.9345C35.6335 40.1032 29.5517 41.0747 27.7632 36.8987C27.1782 39.3173 27.6522 41.8505 28.6137 44.3567C28.18 45.6824 26.8218 47.8648 26.8218 47.8648C25.9073 46.3064 23.6515 43.0243 21.167 43.6922C19.6675 40.1302 19.7718 37.1753 20.2122 35.1582C20.4107 34.1294 20.7813 33.1418 21.3082 32.2371C20.2996 25.0894 28.291 23.5411 29.2928 23.649C30.1979 23.7238 31.1089 23.6796 32.0026 23.5175C39.7351 24.1382 43.6014 28.4659 43.6014 28.4659C43.6014 28.4659 45.8774 27.4202 48.8292 26.162C52.1744 24.7352 56.4003 23.0351 59.1841 22.2897C62.7511 23.9999 65.6222 26.2902 64.9935 28.4726C64.8627 28.9008 64.6322 29.2916 64.3211 29.6128C62.4721 31.6164 57.6577 32.6486 57.6577 32.6486C57.6969 33.2594 57.7036 33.872 57.6779 34.4836C57.5804 36.6491 57.0593 40.1201 54.7496 41.3108C53.852 41.7425 52.6854 41.864 51.1759 41.4356Z" fill="#96CAEE"/>
<path d="M49.871 25.71C50.6274 25.3929 51.4041 25.0725 52.1975 24.7554C52.8123 26.4268 53.8561 27.9057 55.2232 29.0427C57.9532 31.2352 62.8818 31.2116 65.0469 28.2736C65.0469 28.3343 65.0267 28.3984 65.0099 28.4591C64.8791 28.8873 64.6486 29.2781 64.3375 29.5992C62.4885 31.6029 57.6741 32.6351 57.6741 32.6351C57.7133 33.2459 57.72 33.8585 57.6943 34.47C57.5968 36.6356 57.0757 40.1065 54.766 41.2973C53.8684 41.7594 52.7018 41.8808 51.1922 41.4524C50.1467 41.159 49.1751 40.9195 48.2236 40.7137C49.9081 40.3248 51.5684 39.8371 53.196 39.2531C59.2374 36.5344 53.9255 29.1371 49.871 25.71Z" fill="#2149FE"/>
<path d="M20.2157 35.1447C20.3939 34.2793 20.682 33.4404 21.073 32.6486C23.2026 32.8469 25.3486 32.7766 27.4607 32.4394C32.5407 31.5152 33.8485 27.744 33.7241 23.7165C34.9289 23.9116 36.1138 24.2153 37.2642 24.6239C33.3038 28.1623 30.8429 32.5204 31.5086 37.2057C31.602 38.335 32.1569 39.3752 33.0416 40.0796C30.7925 39.8536 28.698 39.0676 27.7734 36.8953C27.1884 39.3139 27.6625 41.8471 28.624 44.3533C28.1903 45.679 26.8321 47.8614 26.8321 47.8614C25.9176 46.303 23.6617 43.0209 21.1772 43.6888C19.6711 40.1167 19.7753 37.1618 20.2157 35.1447Z" fill="#2149FE"/>
<path d="M36.2622 63.904C36.0438 62.8256 35.9536 61.7251 35.9932 60.6253C36.0298 59.9738 35.9582 59.3206 35.7814 58.6925C34.7728 54.7932 30.6376 49.6154 28.6238 44.3432C28.1901 45.6689 26.8319 47.8513 26.8319 47.8513C27.1008 48.3202 27.2555 48.6305 27.2555 48.6305C23.8363 52.034 23.7019 56.8947 23.7019 56.8947C24.9895 57.7481 27.8741 59.8967 27.5345 61.2966C26.7209 64.6697 23.7019 67.9349 23.7019 67.9349C23.7019 67.9349 21.567 68.0429 18.8943 65.6311C16.2215 63.2193 16.7594 58.8241 16.7594 58.8241C17.2872 56.5675 16.2249 47.4566 19.9365 44.35C20.2953 44.036 20.719 43.8057 21.177 43.6753C19.6776 40.1133 19.7818 37.1584 20.2222 35.1413C16.4703 43.6619 7.49048 51.2379 0.793449 52.6816C0.793449 52.6816 6.35077 61.4045 1.50282 67.2603C-3.34513 73.1161 4.48825 85.2728 11.7669 87.5632C19.0455 89.8536 23.3052 84.9558 30.1535 92.3396C37.0018 99.7234 39.9032 84.4161 50.4967 88.2918C43.6719 85.4786 37.654 71.4733 36.2622 63.904Z" fill="#D95214"/>
<g style="mix-blend-mode:multiply">
<path d="M26.8252 47.8513C26.8252 47.8513 28.17 45.6688 28.6171 44.3432C28.7045 44.5692 28.7987 44.7918 28.8894 45.0178C28.444 46.2618 27.8811 47.4602 27.2085 48.5967C27.1883 48.509 27.0471 48.2358 26.8252 47.8513Z" fill="#F4D1BD"/>
</g>
<g style="mix-blend-mode:multiply">
<path d="M27.1348 48.7587C26.5082 49.8056 25.813 50.8096 25.0537 51.7641C25.5817 50.6565 26.2844 49.6416 27.1348 48.7587Z" fill="#F4D1BD"/>
</g>
<path d="M37.6873 69.2808C40.1752 76.7961 45.0836 86.0554 50.493 88.2783C43.8263 85.8462 40.1987 91.0206 36.709 93.338C37.9058 85.3167 38.4673 77.2987 37.6873 69.2808Z" fill="#DD3A18"/>
<path d="M0.046907 70.9033C1.59438 70.2603 3.06127 69.4372 4.41746 68.451C8.23329 65.7525 12.6408 62.8955 16.7088 59.7247C16.7088 61.1347 16.9609 63.8939 18.884 65.6311C21.5567 68.0429 23.6916 67.9349 23.6916 67.9349C23.6916 67.9349 26.7174 64.6596 27.5242 61.2966C27.8604 59.8967 24.9792 57.7481 23.6916 56.8946C23.8122 55.1145 24.2685 53.3735 25.0364 51.7641C25.7956 50.8096 26.4909 49.8056 27.1174 48.7586C27.1578 48.7148 27.1914 48.6709 27.2317 48.6305V48.5934C27.9044 47.4568 28.4673 46.2584 28.9127 45.0145C29.5758 46.5597 30.3267 48.0655 31.1619 49.5243C28.7547 63.0506 24.0816 76.7253 16.4331 88.2378C14.8566 88.2576 13.2866 88.03 11.7802 87.5632C5.78578 85.6776 -0.561608 77.1436 0.046907 70.9033Z" fill="#DD3A18"/>
<path d="M41.4026 56.8474C41.0688 57.348 41.0179 57.9865 41.2681 58.534L42.3843 60.912C42.5052 61.1639 42.6838 61.3835 42.9054 61.5529C43.4093 61.9344 44.0823 62.0045 44.6536 61.7351L48.1971 60.0485C48.7162 59.8088 49.0784 59.3209 49.1586 58.7532C49.211 58.4167 49.1606 58.0722 49.014 57.7649L47.9046 55.4037C47.7085 54.9924 47.3579 54.6759 46.9296 54.5233C46.5054 54.3673 46.0365 54.3892 45.6285 54.5841L42.0817 56.2538C41.8095 56.3858 41.5773 56.5885 41.4093 56.8407L41.4026 56.8474Z" fill="#7FBA6D"/>
<path d="M65.2427 79.8555C65.2791 80.6793 65.3848 81.4985 65.5587 82.3044C65.6965 83.0533 65.8747 83.7549 66.0697 84.4565C66.2647 85.1581 66.4765 85.853 66.7421 86.558C66.8598 86.8953 67.0077 87.263 67.1355 87.6273C67.2864 87.9734 67.4133 88.3295 67.5154 88.6932L67.5456 88.8247C67.7036 88.7471 67.707 88.6291 67.7507 88.5346C67.7781 88.436 67.7994 88.3357 67.8146 88.2344C67.8448 88.032 67.8583 87.833 67.8684 87.634C67.873 87.2352 67.8539 86.8364 67.8112 86.4399C67.7298 85.6425 67.5848 84.8529 67.3775 84.0787C66.9506 82.5437 66.2687 81.092 65.3603 79.7847L65.2427 79.8555Z" fill="#7FBA6D"/>
<g style="mix-blend-mode:multiply">
<path d="M16.8469 65.9852C16.0231 64.937 15.4544 63.7104 15.186 62.403C15.0493 61.7915 14.9616 61.1699 14.9238 60.5444C14.9036 60.2374 14.8936 59.9271 14.8936 59.6168C14.8936 59.3064 14.8936 59.0265 14.944 58.6048V58.5306L14.9709 58.4092C15.011 58.1613 15.0368 57.9112 15.0482 57.6603L15.0885 56.6788L15.1323 54.5841C15.153 53.1224 15.2653 51.6634 15.4685 50.2158C15.6659 48.6506 16.0918 47.1231 16.7325 45.6824C17.1063 44.8699 17.6106 44.1246 18.2253 43.4763C18.4888 43.2107 18.7745 42.968 19.0792 42.7511C18.6353 41.3352 18.382 39.8661 18.3261 38.3829L20.4744 34.6522C20.4442 34.7736 20.4173 34.8951 20.3904 35.0165C20.1865 35.9682 20.0962 36.9409 20.1214 37.914C20.1715 39.2852 20.4149 40.6423 20.8442 41.9449L20.9216 41.9179L20.8678 42.0259C21.0359 42.5487 21.2309 43.0648 21.446 43.5708L21.5334 43.7732L21.3183 43.8204C20.6697 43.9815 20.0842 44.334 19.6373 44.8323C19.1764 45.33 18.7995 45.8996 18.5211 46.5189C17.9836 47.7879 17.6337 49.1288 17.4823 50.4992C17.2974 51.8721 17.2167 53.2618 17.1662 54.6515L17.1024 56.7462C17.0959 57.4575 17.0318 58.1671 16.9107 58.8679V58.8443C16.8138 59.8919 16.8738 60.9482 17.0889 61.978C17.2903 63.0061 17.7176 63.9764 18.3396 64.8181C19.0193 65.6173 19.8314 66.2928 20.74 66.815C21.6037 67.3559 22.5832 67.6831 23.5977 67.7696C24.3388 66.9348 25.0133 66.0426 25.6149 65.1015C26.2342 64.1525 26.7398 63.1335 27.121 62.0657C27.2149 61.8003 27.2946 61.53 27.3597 61.2561C27.3969 60.9989 27.3547 60.7363 27.2387 60.5039C26.9811 60 26.6401 59.5438 26.2301 59.1546C25.4162 58.3548 24.5267 57.6364 23.5741 57.0093L23.5136 56.9655V56.8946C23.5559 56.1214 23.6684 55.3536 23.8498 54.6009C24.0284 53.8499 24.2667 53.1144 24.5626 52.4016C25.1393 50.9929 25.9831 49.7099 27.047 48.6237L26.6907 47.8985L26.6604 47.8412L26.694 47.7872C27.0302 47.2306 27.3664 46.6606 27.6791 46.0838C27.9936 45.5131 28.2634 44.9188 28.486 44.3061L28.6776 44.3702C28.5031 45.0187 28.2783 45.6526 28.0052 46.2659C27.7833 46.7921 27.5413 47.3048 27.279 47.8175L27.6455 48.3842L27.8304 48.6676L27.5614 48.988C26.6273 50.096 25.9099 51.3709 25.4468 52.7457C25.0646 53.9067 24.8297 55.1114 24.7475 56.3313C25.6278 56.8761 26.4591 57.4968 27.232 58.1866C27.7819 58.6681 28.2379 59.248 28.5767 59.8967C28.8287 60.4048 28.9145 60.9796 28.8222 61.5395L28.7617 61.816L28.7045 62.042C28.6608 62.2141 28.6137 62.3794 28.5667 62.5345C28.1807 63.7401 27.6549 64.8961 27 65.9785C26.3744 67.0536 25.6531 68.0697 24.845 69.0143L24.4079 69.4866L23.7355 69.5102C23.6079 69.5172 23.4799 69.5172 23.3523 69.5102L23.0665 69.4866C22.8849 69.4663 22.7101 69.4427 22.542 69.409C22.212 69.3454 21.8864 69.2609 21.5671 69.156C20.9569 68.9561 20.368 68.6962 19.8087 68.3802" fill="#DFC5AC"/>
</g>
<path d="M26.8151 47.8681C27.1715 47.3149 27.5077 46.7527 27.8237 46.1816C28.1314 45.5968 28.3933 44.9889 28.6071 44.3634L28.5432 44.3398C28.2535 44.5435 27.9932 44.7864 27.7699 45.0617C27.565 45.3075 27.3848 45.573 27.232 45.8544C27.0805 46.1428 26.961 46.4471 26.8756 46.7617C26.772 47.1092 26.7332 47.4728 26.7613 47.8344L26.8151 47.8681Z" fill="#0C6A72"/>
<path d="M57.5198 32.6249C57.2913 34.3089 56.8577 35.9583 56.2288 37.5362C55.9595 38.2252 55.5612 38.8561 55.0555 39.3948C54.6648 39.8185 54.1395 40.0927 53.5695 40.1707C52.9505 40.2111 52.3296 40.1262 51.744 39.921L50.5101 39.5264C50.0798 39.3915 49.6495 39.2633 49.2124 39.1418C47.4474 38.6791 45.6488 38.3565 43.8333 38.1771C42.0118 38.0432 40.1825 38.0579 38.3634 38.221C36.712 38.4496 35.0502 38.5948 33.3843 38.6561C31.8243 38.6561 30.3249 38.4436 29.2558 37.5565C28.1363 36.6997 27.6017 35.0199 27.3563 33.2827H27.1546C27.0783 34.1622 27.127 35.048 27.2991 35.9138C27.4767 36.7886 27.8775 37.6022 28.4624 38.275C29.0677 38.9351 29.8283 39.4326 30.6745 39.722C31.5169 40.0139 32.3942 40.192 33.2834 40.2516C35.0254 40.3423 36.7718 40.3029 38.5079 40.1336C40.232 40.0289 41.9614 40.0526 43.682 40.2044C45.4045 40.3528 47.1144 40.6233 48.7989 41.0139C49.6461 41.2028 50.4799 41.4255 51.3204 41.6515C52.1847 41.8964 53.0959 41.923 53.9729 41.729C54.8548 41.5005 55.6299 40.9709 56.1649 40.2314C56.6812 39.5078 57.0596 38.6947 57.2811 37.8331C57.7113 36.1272 57.8657 34.3631 57.7383 32.6081L57.5198 32.6249Z" fill="white"/>
<path d="M50.1502 48.8767C49.9154 49.4259 49.7744 50.0109 49.7333 50.6071C49.6846 51.3113 49.8202 52.0159 50.1267 52.6513L50.2006 52.803L51.5454 51.9092C51.0983 51.1199 51.1924 50.1484 51.4681 49.2747C51.7354 48.3743 52.1066 47.5083 52.5742 46.6943C53.5726 45.0502 54.3226 43.2666 54.7998 41.4019L54.6384 41.4828" fill="#1C4595"/>
<path d="M55.1972 55.6972C54.6189 55.1103 54.0339 54.5335 53.4456 53.96L52.437 52.9481C52.0888 52.6411 51.7905 52.2815 51.5528 51.8822L50.208 52.7895C50.3469 53.0502 50.5078 53.2984 50.6888 53.5316L50.9678 53.8689L51.2233 54.1624L52.2084 55.2283C52.6387 55.6871 53.0623 56.1492 53.4826 56.6079L55.1972 55.6972Z" fill="#7FBA6D"/>
<path d="M64.9497 102.267C66.1264 103.1 67.3434 103.859 68.5605 104.628C69.1723 105.008 69.7887 105.38 70.4095 105.744C70.719 105.895 71.0017 106.096 71.2467 106.338C71.4316 106.621 71.6131 106.955 71.8182 107.249C72.632 108.456 73.6357 109.522 74.7902 110.406C75.9227 111.304 77.1231 112.111 78.3808 112.821H78.4043H78.4278C79.4349 112.806 80.439 112.708 81.4301 112.528C81.9278 112.439 82.4171 112.309 82.8925 112.136C83.3824 111.978 83.8266 111.703 84.1869 111.334L84.0827 111.243C83.6719 111.488 83.2131 111.641 82.7379 111.691C82.264 111.765 81.7852 111.803 81.3057 111.806C80.8283 111.83 80.3441 111.826 79.86 111.806C79.3759 111.786 78.8851 111.779 78.4379 111.735L78.9086 111.857C77.7958 111.081 76.6729 110.217 75.6239 109.36C75.1062 108.919 74.6154 108.456 74.1413 108.011C73.9134 107.788 73.6968 107.554 73.4925 107.31C73.2706 107.053 73.089 106.79 72.8739 106.524L72.5814 106.129C72.4771 105.987 72.42 105.879 72.2183 105.609C72.1032 105.465 71.9698 105.335 71.8216 105.225C71.7143 105.148 71.602 105.078 71.4854 105.016C71.2971 104.915 71.1492 104.83 70.9743 104.756L69.0379 103.845C67.7368 103.238 66.3987 102.668 65.027 102.159L64.9497 102.267Z" fill="#7FBA6D"/>
<path d="M32.7121 52.6209C33.408 53.8386 34.1006 55.063 34.689 56.3313C35.0598 57.1058 35.3613 57.9117 35.59 58.7397L37.2709 58.2371C37.2194 58.0707 37.169 57.9088 37.1197 57.7514C36.8665 57.0191 36.5574 56.3075 36.1951 55.6229C35.5227 54.2939 34.7495 53.0762 33.993 51.8754C32.4835 49.4805 30.5672 46.5189 29.6695 44.7648C28.416 42.2826 27.5691 39.614 27.1615 36.8616H26.7446C26.9378 38.287 27.206 39.7012 27.5481 41.0982C27.842 42.4796 28.2513 43.8336 28.7719 45.146" fill="#1C4595"/>
<path d="M37.6002 60.3015C37.5802 59.6014 37.4671 58.9072 37.264 58.2371L35.583 58.7397C35.7153 59.2489 35.7864 59.772 35.7948 60.2981C35.7226 61.5254 35.8108 62.757 36.057 63.9613L37.8893 63.4149C37.8086 63.0135 37.738 62.6188 37.6876 62.2309" fill="#7FBA6D"/>
<path d="M23.7019 67.972C24.4703 67.1114 25.1696 66.191 25.7931 65.2195C26.4264 64.251 26.9454 63.2118 27.3396 62.123C27.436 61.8475 27.5179 61.5672 27.585 61.2831C27.6327 60.9794 27.5858 60.6684 27.4505 60.3926C27.1874 59.8672 26.8372 59.3904 26.415 58.9826C25.5957 58.1693 24.6943 57.4435 23.7255 56.8171L23.7658 56.8946C23.8602 55.3743 24.2009 53.8795 24.7744 52.4691C25.3434 51.0519 26.1854 49.7612 27.2522 48.6709L27.1782 48.5967C26.5315 49.0497 25.948 49.5874 25.4434 50.1956C24.9272 50.8094 24.4828 51.4806 24.1188 52.1959C23.7582 52.9157 23.4623 53.6664 23.2346 54.439C23.0035 55.2313 22.8526 56.045 22.7841 56.8677L22.7505 57.3331L23.1775 57.6266C24.0705 58.2466 24.9156 58.9333 25.7057 59.6808C26.0498 60.0023 26.3434 60.3742 26.5764 60.7839C26.6113 60.851 26.6406 60.9209 26.6638 60.993C26.6638 61.0166 26.6638 61.0503 26.6638 61.047C26.6615 61.0404 26.6615 61.0333 26.6638 61.0267V61.1279V61.1549C26.6638 61.1549 26.684 61.047 26.6638 61.1009V61.1482L26.6436 61.246L26.5999 61.4349C26.5686 61.5631 26.5349 61.6912 26.4991 61.8194C26.1867 62.8741 25.777 63.8972 25.2753 64.8755C25.0164 65.3747 24.771 65.8874 24.4886 66.39C24.2062 66.8926 23.9137 67.3817 23.6179 67.8843L23.7019 67.972Z" fill="#7FBA6D"/>
<path d="M21.2583 43.5775C20.5646 43.7468 19.9379 44.1217 19.4597 44.6535C18.9742 45.1683 18.5767 45.7598 18.283 46.4042C17.7182 47.6919 17.3444 49.0556 17.1735 50.452C16.9861 51.8402 16.8739 53.2376 16.8373 54.638L16.7667 56.7294C16.764 57.4197 16.7078 58.1088 16.5986 58.7904C16.506 59.8719 16.5763 60.9613 16.8071 62.0218C17.0224 63.0912 17.4738 64.0986 18.1283 64.9699C18.8346 65.7903 19.6761 66.4829 20.6162 67.0174C21.5401 67.5904 22.5913 67.9242 23.6756 67.9889V67.854C22.6788 67.5847 21.7497 67.1078 20.949 66.4541C20.5548 66.1385 20.1788 65.8006 19.8228 65.4422L19.5639 65.1723L19.426 65.0239L19.3218 64.8957C19.1766 64.7221 19.0408 64.5408 18.915 64.3527C18.4376 63.5582 18.1222 62.6765 17.9871 61.7587C17.9112 61.2879 17.8708 60.8121 17.8661 60.3352C17.8502 59.8703 17.866 59.4049 17.9132 58.9421L17.8896 59.0771C17.9784 58.6705 18.0368 58.2578 18.0644 57.8425C18.0947 57.4715 18.1149 57.1105 18.1283 56.7564L18.1586 54.6616C18.2023 53.2854 18.1855 51.926 18.3166 50.5936C18.3827 49.2769 18.6085 47.9731 18.989 46.7112C19.1866 46.1037 19.472 45.5286 19.8362 45.0044C19.9288 44.8666 20.0299 44.7348 20.1388 44.6097C20.2432 44.4898 20.3555 44.3771 20.475 44.2724C20.7189 44.0385 21.0023 43.85 21.3121 43.7158L21.2583 43.5775Z" fill="#7FBA6D"/>
<path d="M27.2758 48.6035C27.3683 47.8255 27.2595 47.0367 26.9598 46.3131C26.6914 45.6018 26.2806 44.9532 25.7528 44.4073C25.1966 43.8059 24.4912 43.3636 23.7087 43.1255C22.9086 42.8725 21.863 42.94 21.2612 43.5775L21.2881 43.7091C21.9484 43.6195 22.6196 43.7511 23.1977 44.0835C23.7838 44.4187 24.3126 44.8457 24.7644 45.3484C25.2371 45.8383 25.6689 46.3662 26.0554 46.927C26.4387 47.487 26.8085 48.0671 27.1413 48.6642L27.2758 48.6035Z" fill="#144895"/>
<path d="M27.2322 48.6203C26.6253 47.3776 25.8479 46.2262 24.9225 45.2C24.4483 44.6916 23.8955 44.2633 23.2852 43.9317C22.6738 43.5834 21.9591 43.4639 21.2681 43.5944V43.6585C21.9059 43.7533 22.5102 44.006 23.0264 44.3938C23.53 44.7705 23.9972 45.194 24.4216 45.6587C24.8755 46.1175 25.2991 46.6234 25.7496 47.1193C26.2001 47.6151 26.6506 48.1312 27.1717 48.6338L27.2322 48.6203Z" fill="#7FBA6D"/>
<path d="M70.1909 96.0297C69.188 95.0565 68.0047 94.2898 66.7079 93.7731C66.0504 93.5235 65.3535 93.3944 64.6504 93.392C64.2972 93.3943 63.9462 93.4477 63.6082 93.5505C63.4354 93.6025 63.2711 93.6798 63.1207 93.7799C63.0321 93.8322 62.9652 93.9148 62.9324 94.0126L62.8719 94.2723C62.6827 95.6675 62.8185 97.0877 63.2686 98.4213C63.685 99.7531 64.2488 101.034 64.9496 102.24L65.0068 102.206C64.7782 101.531 64.5159 100.897 64.3344 100.233C64.1057 99.591 63.9182 98.9352 63.7729 98.2695C63.4939 96.9641 63.3056 95.6115 63.5376 94.4005L63.5847 94.1779C63.5073 94.3769 63.4704 94.3398 63.5073 94.3263C63.601 94.2641 63.7029 94.2153 63.8099 94.1813C64.0867 94.0939 64.3739 94.044 64.6639 94.0328C65.2941 94.0093 65.9238 94.0926 66.5264 94.2791C67.8136 94.7046 69.0322 95.316 70.1439 96.0938L70.1909 96.0297Z" fill="#7FBA6D"/>
<path d="M43.7294 28.7492C46.7888 27.1166 49.3707 25.9461 51.277 25.1433C53.1832 24.3405 54.6826 23.7941 55.1802 23.6119C56.4813 23.1262 57.8261 22.6607 59.1709 22.293V22.2593C53.858 23.662 48.7241 25.6744 43.8706 28.2567C43.0565 27.4971 42.1704 26.8192 41.2247 26.2329C40.2966 25.6627 39.3187 25.1783 38.3032 24.7858C36.2748 23.9842 34.1188 23.5568 31.939 23.5242C34.0806 23.691 36.184 24.187 38.1754 24.9949C39.1712 25.3959 40.1269 25.8906 41.0297 26.4724" fill="#DD3A18"/>
<path d="M42.0415 56.2335C41.5757 56.4525 41.2291 56.8656 41.0935 57.3635C40.9696 57.8623 41.0482 58.3901 41.312 58.8308L41.9407 60.1801C42.1693 60.6152 42.2769 61.1212 42.6837 61.4888C43.0681 61.843 43.5877 62.0106 44.1058 61.9476C44.3588 61.913 44.6029 61.8306 44.8252 61.7047L45.4976 61.3843L48.1872 60.0991L48.1603 60.0384C47.656 60.1295 47.182 60.2914 46.6911 60.4162L45.2791 60.9087C45.0404 60.9862 44.8051 61.0706 44.5765 61.1684L44.405 61.2392L44.2806 61.2797C44.2001 61.2992 44.1179 61.3105 44.0352 61.3134C43.7083 61.3388 43.3863 61.2221 43.151 60.993C43.023 60.877 42.922 60.7342 42.8551 60.5747L42.5189 59.9001C42.2802 59.465 42.0583 59.0163 41.7995 58.5913C41.6842 58.4139 41.5873 58.2252 41.5103 58.028C41.4443 57.8411 41.4202 57.6418 41.4397 57.4444C41.481 56.9848 41.7113 56.5631 42.0752 56.2807L42.0415 56.2335Z" fill="#A4CD8C"/>
<path d="M48.1871 60.1059C48.6521 59.8857 48.9983 59.4731 49.1352 58.9759C49.2578 58.4755 49.1781 57.9467 48.9133 57.5052L48.288 56.1559C48.0594 55.7174 47.9316 55.2114 47.5416 54.8438C47.1572 54.4897 46.6376 54.322 46.1195 54.385C45.8674 54.4234 45.624 54.5056 45.4 54.6279L44.7277 54.9652L42.0381 56.2504L42.0683 56.3111C42.5726 56.2166 43.0433 56.0581 43.5342 55.9299L44.9495 55.4408C45.1849 55.3599 45.4202 55.2789 45.6488 55.1811L45.8203 55.1103L45.9447 55.0698C46.0251 55.0494 46.1073 55.037 46.1901 55.0327C46.6987 55.0104 47.1687 55.3038 47.3735 55.7714L47.7097 56.446C47.9484 56.8845 48.1703 57.3298 48.4292 57.7582C48.544 57.9363 48.6419 58.1249 48.7217 58.3215C48.7865 58.5087 48.8095 58.7079 48.7889 58.905C48.7496 59.3653 48.519 59.7877 48.1535 60.0687L48.1871 60.1059Z" fill="#A4CD8C"/>
<path d="M23.3523 57.2893C23.8767 57.3804 24.3945 57.603 25.3123 58.3383C25.9847 58.8612 27.3664 59.9777 27.4068 60.9019C27.4107 61.1104 27.4006 61.3189 27.3765 61.526C27.3413 61.7965 27.2805 62.063 27.195 62.322C27.0463 62.783 26.8677 63.2337 26.6604 63.6713L26.4554 64.0828C25.8952 64.0303 25.3551 63.8466 24.8786 63.5465C24.5372 63.3525 24.2377 63.0922 23.9978 62.7808C23.885 62.6245 23.7881 62.4572 23.7086 62.2815C23.5998 62.0458 23.524 61.796 23.4834 61.5395C23.4444 61.2654 23.4444 60.9871 23.4834 60.713C23.6212 59.5055 23.7456 59.5932 23.7187 59.1884C23.6425 58.5759 23.3875 57.9997 22.9858 57.5322C22.9063 57.4265 22.8174 57.3282 22.7202 57.2387C22.9321 57.2338 23.1439 57.2507 23.3523 57.2893Z" fill="#7FBA6D"/>
<path d="M25.7831 63.8703C25.0756 63.7399 24.4411 63.3519 24.0013 62.7808C23.6798 62.3387 23.493 61.8126 23.4634 61.2662C23.4714 60.7776 23.5254 60.2908 23.6247 59.8124C23.6584 59.6235 23.6752 59.5493 23.6853 59.492C23.7559 59.0636 23.6247 58.3721 22.7002 57.2387L23.0364 57.5018C23.3647 57.7181 23.6479 57.9965 23.8702 58.3215C24.107 58.6866 24.2384 59.1104 24.2501 59.5459C24.246 59.8719 24.2236 60.1973 24.1828 60.5208C24.1388 60.8973 24.1388 61.2776 24.1828 61.6541C24.2451 61.9963 24.383 62.3202 24.5863 62.602C24.8355 62.8991 25.1306 63.1542 25.4604 63.3576C25.6419 63.4891 25.7966 63.5869 25.9041 63.6544L25.7831 63.8703Z" fill="white"/>
<path d="M66.0521 34.2069C66.5273 34.1866 67.0012 34.2707 67.4406 34.4531C71.9389 36.224 73.7981 45.2067 75.0117 47.1766C75.0117 47.1766 76.9012 51.1805 75.1294 54.3142C73.3577 57.4478 71.2934 58.0246 71.2934 58.0246C71.2934 58.0246 67.3969 55.8759 65.5781 52.9413C64.8149 51.7236 66.8758 48.7721 67.8272 47.5443C67.8272 47.5443 66.1698 42.9771 61.853 40.8317C61.853 40.8317 61.9035 40.4944 62.011 39.9547C62.3775 38.1906 63.4836 34.3621 66.0521 34.2069Z" fill="#98C883"/>
<path d="M65.938 34.1395C66.6501 34.0829 67.3628 34.2402 67.9854 34.5915C68.6067 34.9268 69.1689 35.3621 69.6496 35.88C70.5917 36.9235 71.3767 38.0997 71.9794 39.3712C72.5956 40.6288 73.1455 41.918 73.6268 43.2335L74.353 45.2C74.5701 45.8539 74.84 46.4891 75.1599 47.0991C75.5901 48.1052 75.8667 49.1708 75.9802 50.2597C76.1097 51.3419 75.9948 52.4394 75.644 53.4709C75.2333 54.4746 74.652 55.3991 73.926 56.2032C73.231 57.0405 72.339 57.6909 71.3306 58.0955L71.2936 57.9639C72.155 57.3948 72.8861 56.6486 73.4385 55.7748C73.7138 55.3512 73.9663 54.9132 74.195 54.4626L74.3563 54.1253L74.437 53.9398L74.4976 53.7846C74.5797 53.5739 74.6504 53.3588 74.7094 53.1404C74.9136 52.2364 74.9365 51.3008 74.7766 50.3879C74.7008 49.9154 74.5884 49.4497 74.4404 48.9948C74.3088 48.5495 74.1482 48.1135 73.9596 47.6894L74.0235 47.8074C73.8105 47.4512 73.6251 47.079 73.4688 46.6943C73.3242 46.357 73.1897 46.0197 73.0654 45.6824L72.393 43.7057C71.9156 42.4172 71.5054 41.1185 70.9608 39.8974C70.4795 38.6701 69.8518 37.5058 69.0915 36.4298C68.7138 35.9067 68.2606 35.4429 67.7467 35.0536C67.6165 34.9521 67.4794 34.8597 67.3366 34.777C67.1997 34.6947 67.0583 34.6204 66.913 34.5544C66.6084 34.4102 66.2804 34.3223 65.9447 34.2947L65.938 34.1395Z" fill="#7FBA6D"/>
<path d="M61.8599 40.8149C62.0503 39.4441 62.4305 38.1067 62.9895 36.8414C63.2801 36.2089 63.6693 35.6271 64.1426 35.1177C64.6167 34.5972 65.2582 34.2604 65.9547 34.1665V34.2339C65.3784 34.5254 64.8837 34.9567 64.5158 35.4887C64.1572 36.0061 63.8476 36.5561 63.5913 37.1315C63.3055 37.7116 63.0634 38.3222 62.7911 38.9395C62.5188 39.5567 62.2566 40.1841 61.917 40.825L61.8599 40.8149Z" fill="#7FBA6D"/>
<path d="M68.2679 47.8142C67.8006 48.0672 67.377 48.4449 66.7382 49.4299C66.2777 50.1383 65.306 51.6359 65.5582 52.5264C65.6199 52.7259 65.6952 52.9208 65.7834 53.11C65.9021 53.3558 66.0439 53.5896 66.2071 53.8082C66.4932 54.1907 66.802 54.5557 67.1316 54.9011C67.2089 54.9787 67.3199 55.0934 67.4678 55.2384C67.9812 55.0142 68.4357 54.6736 68.7958 54.2434C69.2013 53.8151 69.4522 53.2629 69.5085 52.6748C69.5361 52.4165 69.5293 52.1556 69.4883 51.899C69.4388 51.6264 69.3493 51.3627 69.2227 51.1165C68.7151 50.0134 68.6243 50.1383 68.5201 49.7436C68.4014 49.1378 68.4622 48.5105 68.6949 47.939C68.737 47.8143 68.7899 47.6935 68.8529 47.578C68.6505 47.6367 68.4545 47.7158 68.2679 47.8142Z" fill="#7FBA6D"/>
<path d="M68.036 54.8303C68.6636 54.4797 69.1418 53.9111 69.3808 53.2314C69.5462 52.7095 69.5578 52.1508 69.4144 51.6224C69.2511 51.1617 69.0463 50.7169 68.8025 50.2934C68.7117 50.1248 68.6714 50.0607 68.6479 50.0101C68.4428 49.6222 68.352 48.9273 68.8698 47.5578L68.6344 47.9154C68.3954 48.2251 68.2174 48.5777 68.1099 48.9543C68.0003 49.3769 68.0096 49.8218 68.1368 50.2395C68.2041 50.4992 68.2343 50.4587 68.5033 51.1401C68.6659 51.4829 68.7867 51.8442 68.863 52.2161C68.9104 52.5555 68.8817 52.9012 68.779 53.2281C68.6353 53.589 68.4355 53.9248 68.1873 54.2231C68.0562 54.4053 67.9418 54.5604 67.8511 54.6448L68.036 54.8303Z" fill="white"/>
<path d="M42.1222 19.4461C41.9694 20.25 41.547 20.9773 40.9253 21.5071C40.3292 21.796 39.7122 22.0396 39.0796 22.2357C38.1072 22.634 37.0917 22.917 36.0538 23.079L35.8387 23.106C33.5963 23.3657 32.0464 23.3421 32.0464 23.423C32.0464 23.504 33.1525 23.4871 34.6351 23.7604C35.4234 23.9055 36.2007 24.1049 36.9616 24.3574C37.6995 24.5313 38.4215 24.7671 39.12 25.0624C39.12 25.0624 40.6799 25.737 44.0083 28.1927L45.5379 27.2516C45.8741 27.0559 46.4154 26.7759 47.0676 26.469C48.0989 25.9852 49.1614 25.5716 50.2481 25.231C52.4333 24.5564 58.8244 22.5325 58.7706 22.3167C58.7337 22.1649 55.3683 22.7585 52.356 22.4684C51.5514 22.3662 50.7881 22.0519 50.1438 21.5577C49.6 21.154 49.1427 20.6447 48.7991 20.06C46.6406 21.1357 44.0624 20.9009 42.1323 19.4529L42.1222 19.4461Z" fill="#F0C09C"/>
<path d="M36.1409 22.6944C35.7935 22.7754 35.417 22.8564 35.0113 22.9373C33.9052 23.1599 33.3539 23.2746 32.863 23.3185C32.4804 23.3472 32.0998 23.399 31.7233 23.4736C31.5149 23.5175 31.3468 23.558 31.2358 23.5849C33.615 23.6946 35.9658 24.1491 38.2153 24.9342C39.0643 25.2106 39.8886 25.5582 40.6796 25.9731C41.296 26.3085 41.8922 26.6802 42.4648 27.0863C43.0767 27.5045 43.5776 27.8891 43.9474 28.1893C43.4417 27.11 42.8072 26.0962 42.058 25.1703C41.1363 24.031 40.0521 23.0342 38.8406 22.2121" fill="#D95214"/>
<path d="M55.2439 22.3403C56.9048 22.32 57.7621 22.3032 58.2428 22.2964L59.1875 22.2762C56.3937 23.1869 53.4722 24.2326 50.4464 25.4334C48.1771 26.3374 46.0086 27.265 43.9478 28.1994C44.9801 27.0931 46.1048 26.0775 47.3097 25.1636C48.0435 24.5971 48.8115 24.0766 49.6093 23.6052C50.4894 23.0862 51.4077 22.6351 52.356 22.2559" fill="#D95214"/>
<path d="M49.8209 19.4056C49.816 20.0016 49.9805 20.5866 50.2949 21.0922C50.6474 21.6502 51.1645 22.0841 51.7742 22.3335C50.3757 23.0304 48.9116 23.5863 47.4036 23.9931C46.6607 24.1955 45.9513 24.3304 45.2822 24.4653C43.8305 24.4494 42.3993 24.1192 41.0865 23.4972C40.3649 23.1549 39.6875 22.7256 39.0693 22.2188C40.0511 21.602 40.6768 20.5486 40.7503 19.3888C41.1706 20.4513 43.803 21.6184 45.2755 21.6184C46.7481 21.6184 49.3973 20.4682 49.8209 19.4056Z" fill="#EFBF9B"/>
<g style="mix-blend-mode:multiply">
<path d="M49.9483 20.4985C49.5374 20.9117 49.0671 21.2608 48.5531 21.5341C48.0705 21.8043 47.5612 22.0236 47.0335 22.1885C46.4761 22.378 45.8937 22.4837 45.3055 22.5022C44.7263 22.4915 44.1524 22.3902 43.6043 22.202C43.0763 22.0347 42.5644 21.8202 42.0746 21.5611C41.551 21.2965 41.0741 20.9479 40.6626 20.5289L40.8105 19.3787C40.894 19.6111 41.0298 19.8212 41.2072 19.9926C41.5741 20.3367 41.99 20.6244 42.4411 20.846C43.3327 21.3226 44.3144 21.6053 45.3223 21.6758C46.3304 21.6097 47.3128 21.3279 48.2035 20.8493C48.6557 20.6278 49.0726 20.3402 49.4407 19.9959C49.6364 19.8 49.7837 19.5609 49.871 19.2977L49.9483 20.4985Z" fill="#DEC4AB"/>
</g>
<path d="M52.0801 10.794C51.8491 11.4819 51.5352 12.1389 51.1455 12.7504C51.1455 12.5986 51.1724 12.4401 51.1824 12.2816C51.2732 11.7587 51.3405 11.2696 51.3741 10.8008C51.5489 8.70268 51.0917 7.2185 49.2964 6.51014L49.6763 6.58772C50.5765 6.83076 51.5345 6.73104 52.3659 6.30775C52.9038 6.9554 52.7088 8.96916 52.0801 10.794Z" fill="#472A19"/>
<path d="M38.9651 10.6591C39.0908 10.8693 39.2301 11.071 39.382 11.2629C39.3769 11.6023 39.4061 11.9414 39.4694 12.2748C39.5333 13.1114 39.6073 13.8433 39.6846 14.4977C38.0944 14.9531 37.5565 10.4162 38.9651 10.6591Z" fill="#CF9B6F"/>
<path d="M49.2931 6.49328C46.4119 5.89624 42.1758 4.98212 40.7671 7.22862C39.9697 8.24804 39.5006 9.48699 39.4224 10.7805C39.4593 11.7925 39.5468 13.2733 39.7586 15.0341C40.1687 18.3397 40.5822 18.9941 40.7671 19.2505C41.7993 20.7279 43.6517 21.5071 45.3461 21.5071C47.141 21.518 48.8366 20.6823 49.9251 19.2505C50.6648 18.1879 50.7656 16.9567 50.9673 14.5045C51.0679 13.2624 51.0882 12.0151 51.0279 10.7704H51.2195H51.3708C51.5456 8.68582 51.1018 7.20501 49.2931 6.49328Z" fill="#EDCBB4"/>
<path d="M39.3985 10.7704C39.3985 10.9458 39.3985 11.1077 39.3985 11.2629C39.2466 11.071 39.1074 10.8693 38.9817 10.6591C37.7848 8.65884 37.452 5.48472 38.8472 5.02597C39.3481 5.87039 40 6.61483 40.7702 7.22188C39.9641 8.23732 39.4856 9.47517 39.3985 10.7704Z" fill="#472A19"/>
<path d="M48.2509 1.59885C50.2681 3.37649 51.2531 5.62637 53.4317 5.2081C53.1863 5.66913 52.8094 6.04615 52.3491 6.29088C51.5178 6.71416 50.5598 6.81388 49.6596 6.57085L49.2797 6.49326C46.3985 5.89622 42.1624 4.9821 40.7537 7.22861C39.9835 6.62155 39.3316 5.87712 38.8307 5.0327C37.6103 3.06616 37.0421 0.664487 39.0996 0.421621C42.112 0.0606959 46.2573 -0.175424 48.2509 1.59885Z" fill="#78412B"/>
<path d="M52.0801 10.794C52.8836 11.499 52.3154 14.8418 50.9673 14.5045C51.0278 13.9749 51.085 13.388 51.1421 12.7403C51.5323 12.1321 51.8473 11.4786 52.0801 10.794Z" fill="#CF9B6F"/>
<path d="M38.9987 10.6726C38.8056 10.6763 38.6328 10.794 38.5583 10.9728C38.4771 11.1452 38.4314 11.3322 38.4238 11.5226C38.393 11.9211 38.4179 12.3218 38.4977 12.7133C38.5519 13.1071 38.6652 13.4904 38.8339 13.8501C38.9616 14.2263 39.3154 14.4779 39.7114 14.4741V14.5011C39.5018 14.5652 39.275 14.5383 39.0861 14.4269C38.9123 14.3065 38.7675 14.1486 38.6625 13.9648C38.4467 13.5944 38.3008 13.1873 38.2321 12.7639C38.1616 12.3407 38.1616 11.9087 38.2321 11.4855C38.2642 11.2712 38.3422 11.0663 38.4608 10.8851C38.5839 10.6986 38.8064 10.6043 39.0256 10.6456L38.9987 10.6726Z" fill="#E3B382"/>
<path d="M52.1103 10.7637C52.3672 11.0619 52.5039 11.4456 52.4936 11.8397C52.5121 12.2282 52.4782 12.6174 52.3927 12.9967C52.3111 13.3774 52.1582 13.7391 51.9422 14.0626C51.7424 14.4196 51.3298 14.599 50.9336 14.5011V14.4741C51.2975 14.4877 51.632 14.2743 51.7741 13.9378C51.9459 13.6217 52.0663 13.2801 52.1305 12.9259C52.2191 12.5712 52.2709 12.2084 52.2851 11.8431C52.3053 11.6626 52.3053 11.4805 52.2851 11.3C52.2726 11.115 52.2161 10.9357 52.1204 10.7772L52.1103 10.7637Z" fill="#E3B382"/>
<path d="M39.4019 10.7738C39.4372 10.127 39.5686 9.48922 39.7918 8.88145C40.0318 8.27981 40.3592 7.71714 40.7634 7.21175L40.7971 7.23873C40.6279 7.84717 40.4236 8.44522 40.1852 9.02987C39.9734 9.63249 39.7253 10.2216 39.4422 10.794L39.4019 10.7738Z" fill="#DFC5AC"/>
<path d="M39.395 10.7704C39.2321 10.4504 39.1534 10.0939 39.1664 9.73485C39.1735 9.38885 39.2394 9.04661 39.3614 8.72291C39.4867 8.39818 39.6676 8.09794 39.896 7.83578C40.1289 7.56092 40.4256 7.34777 40.76 7.21512L40.8037 7.25222C40.4146 7.76468 40.1052 8.33333 39.8859 8.93879C39.6498 9.53451 39.5025 10.1619 39.4488 10.8008L39.395 10.7704Z" fill="#4E3323"/>
<path d="M49.32 6.46628C49.8531 6.65504 50.3297 6.97654 50.7051 7.40064C51.0645 7.84127 51.3042 8.36765 51.401 8.92867C51.5349 10.0454 51.4792 11.1768 51.2363 12.2748H51.1825C51.0962 11.7162 51.0412 11.1531 51.0178 10.5882C50.9913 10.0694 50.9351 9.55242 50.8497 9.03998C50.7739 8.56379 50.6097 8.10611 50.3655 7.69073C50.0705 7.24938 49.7113 6.85484 49.2998 6.52025L49.32 6.46628Z" fill="#DFC5AC"/>
<path d="M49.3199 6.46628C49.9409 6.48447 50.5325 6.73609 50.9773 7.17126C51.4355 7.62786 51.738 8.21824 51.8413 8.85783C51.9403 9.45047 51.9312 10.0562 51.8144 10.6456C51.7122 11.2211 51.5168 11.776 51.2362 12.2883H51.1824C51.4043 11.197 51.4407 10.076 51.29 8.97252C51.2059 8.42596 50.9811 7.91088 50.6378 7.47822C50.2752 7.05717 49.8127 6.73465 49.293 6.54049L49.3199 6.46628Z" fill="#4E3323"/>
<path d="M38.8739 5.0597C38.6944 5.25328 38.5885 5.50402 38.5747 5.76805C38.5512 6.00471 38.5512 6.24313 38.5747 6.47979C38.6083 6.72602 38.615 6.97226 38.6688 7.22188C38.7226 7.47149 38.7394 7.72785 38.7966 7.98083C38.8773 8.49017 38.9983 8.99277 39.0958 9.53585L39.432 11.2224L39.3681 11.2764C38.998 10.8285 38.6976 10.327 38.4772 9.78883C38.2592 9.25707 38.0959 8.70439 37.9897 8.13937C37.8805 7.56575 37.8601 6.97868 37.9292 6.39883C37.9629 6.10412 38.0507 5.81822 38.1881 5.55555C38.3315 5.28712 38.5722 5.08425 38.8605 4.98886L38.8739 5.0597Z" fill="#593A29"/>
<path d="M52.4126 6.26729C52.7824 6.74627 52.7824 7.3703 52.7824 7.93024C52.6947 9.64889 52.1566 11.3139 51.2225 12.7572L51.1519 12.71C51.2124 12.0792 51.2998 11.5361 51.4006 10.9998C51.5015 10.4635 51.6192 9.94738 51.7368 9.42792C51.8074 9.17493 51.8646 8.9152 51.9251 8.66221C51.9856 8.40923 52.0428 8.15287 52.1235 7.89989C52.2041 7.6469 52.2546 7.39054 52.3016 7.13418C52.3744 6.86749 52.3972 6.58956 52.3689 6.31451L52.4126 6.26729Z" fill="#593A29"/>
<g style="mix-blend-mode:multiply">
<path d="M45.2753 21.642C44.956 21.6262 44.6382 21.589 44.3239 21.5307C43.9409 21.4586 43.5652 21.3525 43.201 21.2136C42.6036 20.9704 42.0389 20.6531 41.52 20.2692C41.3821 20.1601 41.2559 20.0368 41.1435 19.9015C41.0246 19.7885 40.9327 19.6502 40.8745 19.4967C40.8605 19.4643 40.8503 19.4303 40.8442 19.3955C40.9316 19.49 41.046 19.6114 41.1804 19.7328C41.3764 19.915 41.5842 20.0841 41.8024 20.2388C42.1299 20.4712 42.475 20.6776 42.8345 20.8561C43.708 21.2707 44.6621 21.4861 45.6283 21.4869C46.5257 21.4453 47.3998 21.1873 48.1767 20.7347C48.6921 20.3619 49.1757 19.9467 49.6223 19.4933C49.7635 19.3584 49.8778 19.2437 49.9585 19.156C49.8375 19.3517 49.6996 19.5574 49.5349 19.7733C49.3702 19.9892 49.2693 20.1106 49.1416 20.2455C48.0899 21.2096 46.6981 21.7123 45.2753 21.642Z" fill="#DFC5AC"/>
</g>
<g style="mix-blend-mode:multiply">
<path d="M50.9473 14.5045C51.0347 13.7657 51.1019 13.0237 51.1658 12.2816H51.2498C51.3036 13.027 51.3003 13.7725 51.2835 14.5213L50.9473 14.5045Z" fill="#DFC5AC"/>
</g>
<path d="M53.5021 5.22836C53.3354 5.84809 52.9416 6.38179 52.3994 6.72266C51.8396 7.07568 51.1946 7.26923 50.5335 7.2826C50.2121 7.29958 49.8899 7.28262 49.572 7.232L48.7214 7.10719C48.16 7.01274 47.6053 6.9048 47.0404 6.82385C46.4756 6.74289 45.9444 6.63158 45.4032 6.56075C44.8683 6.48097 44.3297 6.42917 43.7894 6.40558C42.7338 6.38197 41.6781 6.44943 40.804 7.24549L40.7334 7.20164C41.0512 6.70823 41.5141 6.32628 42.058 6.10875C42.5953 5.89722 43.1627 5.7731 43.739 5.74107C44.8889 5.69397 46.0404 5.77771 47.1716 5.99069C47.7364 6.08851 48.2978 6.20657 48.8525 6.328C49.4043 6.46918 49.9664 6.56618 50.5335 6.61809C51.0984 6.65241 51.6632 6.55063 52.1809 6.32125C52.6946 6.08347 53.1204 5.68924 53.3979 5.19463L53.5021 5.22836Z" fill="#DFC5AC"/>
<path d="M53.5123 5.2351C53.2329 5.75871 52.7933 6.17847 52.2583 6.43257C51.7263 6.6837 51.1409 6.79955 50.5538 6.76988C49.9782 6.72746 49.4071 6.63834 48.8459 6.5034C48.2878 6.39209 47.7263 6.28415 47.1649 6.1897C46.0499 5.96438 44.9131 5.86593 43.776 5.89624C43.2103 5.91968 42.6519 6.03355 42.1219 6.23355C41.5957 6.43394 41.1453 6.79495 40.8343 7.26573L40.7368 7.20839C40.9145 6.56984 41.3297 6.02408 41.8967 5.68373C42.4548 5.34251 43.0737 5.11339 43.7189 5.0091C44.9267 4.82829 46.1562 4.85109 47.3565 5.07657C47.9348 5.19125 48.5063 5.31606 49.0644 5.45773L49.8914 5.7006C50.1268 5.76469 50.3588 5.82878 50.5941 5.87937C51.0602 5.97217 51.54 5.97217 52.0061 5.87937C52.5301 5.77521 53.0166 5.53173 53.4148 5.17439L53.5123 5.2351Z" fill="#804E38"/>
<path d="M40.7303 7.29271C39.9 6.65831 39.1983 5.87062 38.6626 4.97199C38.0833 4.08832 37.7268 3.07655 37.6238 2.02387C37.5637 1.45307 37.8061 0.892387 38.2626 0.546441C38.4989 0.396089 38.7651 0.299383 39.0425 0.263098L39.8091 0.172023C40.833 0.0606519 41.8621 0.00322973 42.892 -6.49877e-06C43.9291 -0.00573639 44.9634 0.107435 45.9749 0.337307C47.0109 0.550241 47.9622 1.06264 48.7116 1.81137C49.4579 2.52984 50.0933 3.34952 50.8094 4.06462C51.152 4.42954 51.556 4.731 52.0029 4.95513C52.4542 5.16547 52.9603 5.22687 53.4486 5.13053L53.4788 5.29919C52.9507 5.57003 52.3423 5.63839 51.7676 5.49146C51.1954 5.33398 50.6566 5.07338 50.1774 4.72238C49.2696 4.04775 48.5233 3.35289 47.787 2.7862L47.5012 2.57707C47.4138 2.51972 47.35 2.48262 47.2693 2.43877C47.1106 2.35004 46.9467 2.27119 46.7784 2.20265C46.4001 2.05565 46.0065 1.95156 45.6051 1.89232C44.7076 1.73284 43.7965 1.66391 42.8853 1.68656C41.9372 1.65958 40.9622 1.71355 39.9738 1.77426L39.2611 1.80462C39.1468 1.80462 39.0896 1.80462 39.0896 1.80462C39.0896 1.80462 39.1132 1.73041 39.0896 1.74728C39.0661 1.76414 39.0022 1.85859 38.9787 2.00701C38.9466 2.39506 38.9773 2.78575 39.0694 3.16399C39.1644 3.62469 39.2994 4.07616 39.4729 4.51325C39.8069 5.45692 40.2685 6.35014 40.8446 7.1679L40.7303 7.29271Z" fill="#84533E"/>
<g style="mix-blend-mode:multiply">
<path fill-rule="evenodd" clip-rule="evenodd" d="M49.8612 11.3843C49.962 11.5257 50.014 11.6963 50.0091 11.8701C50.0158 11.9139 50.0931 11.9443 50.2545 11.978C49.9609 12.096 49.6585 12.1908 49.3501 12.2613C49.2144 12.2863 49.0775 12.3043 48.94 12.3153C48.7318 12.3289 48.5229 12.3289 48.3147 12.3153C47.9096 12.2494 47.5216 12.1087 47.1697 11.9017C47.2442 11.9308 47.3185 11.9544 47.3734 11.9712C47.6375 12.0595 47.9123 12.1117 48.1903 12.1264C48.6761 12.1552 49.1635 12.1269 49.6427 12.0421C49.675 11.996 49.7237 11.9689 49.7665 11.9451C49.8083 11.9218 49.8445 11.9017 49.8545 11.8701C49.8515 11.859 49.8515 11.8474 49.8545 11.8363C49.8654 11.8246 49.8778 11.8144 49.8915 11.806C49.8074 11.5682 49.6335 11.3732 49.4073 11.2629C49.0692 11.1471 48.7115 11.1001 48.355 11.1246C48.1772 11.136 48.0013 11.1677 47.8306 11.219C47.53 11.2925 47.2406 11.406 46.9699 11.5564C46.9228 11.5833 46.8758 11.6238 46.8758 11.671C46.8751 11.6854 46.8781 11.6995 46.8843 11.7133C46.8611 11.6961 46.8381 11.6787 46.8152 11.6609L46.7446 11.5732L47.0808 11.4147L47.417 11.246C48.0094 10.9543 48.6885 10.893 49.3233 11.074C49.5335 11.1103 49.7241 11.2202 49.8612 11.3843ZM46.8843 11.7133C46.9764 11.7811 47.0716 11.844 47.1697 11.9017C47.044 11.8526 46.9179 11.7877 46.8843 11.7133Z" fill="#F9CFB2"/>
</g>
<path d="M47.2995 11.4113C47.686 11.2286 48.1012 11.1145 48.5266 11.074C48.6274 11.074 48.7149 11.074 48.8359 11.074C49.1746 11.0512 49.507 11.1739 49.7503 11.4113C49.8586 11.5833 49.9243 11.7787 49.942 11.9814C49.438 12.1759 48.8966 12.2532 48.3585 12.2074C47.8772 12.1714 47.4088 12.0346 46.9834 11.806C47.0238 11.8465 46.8826 11.7318 46.8691 11.6812" fill="white"/>
<path d="M49.8277 11.8262C49.7587 11.4409 49.4277 11.1583 49.0376 11.1516C48.5337 11.0904 48.0226 11.1481 47.5449 11.3202C47.4575 11.3742 47.0271 11.725 47.128 11.8093C47.2161 11.8561 47.3084 11.8945 47.4037 11.924C47.6724 11.9903 47.9454 12.0377 48.2206 12.0657C48.7249 12.1433 49.5553 12.1635 49.8277 11.8262Z" fill="white"/>
<path d="M47.979 11.5665C47.9571 11.7189 47.9976 11.8738 48.0913 11.9958C48.185 12.1178 48.324 12.1965 48.4765 12.2141C48.7986 12.2586 49.0972 12.0369 49.1489 11.7149C49.1708 11.5624 49.1303 11.4076 49.0365 11.2856C48.9428 11.1636 48.8039 11.0848 48.6513 11.0672C48.3293 11.0228 48.0307 11.2444 47.979 11.5665Z" fill="#1A0909"/>
<path d="M48.6411 11.1043C48.7787 11.1235 48.9029 11.197 48.9862 11.3085C49.0695 11.42 49.1051 11.5602 49.0849 11.698C49.0321 11.982 48.7692 12.1765 48.4831 12.1433C48.3437 12.1265 48.217 12.0541 48.1316 11.9423C48.0461 11.8306 48.0092 11.689 48.0293 11.5496C48.0822 11.2612 48.3515 11.0653 48.6411 11.1043Z" fill="#5C8AC7"/>
<path d="M48.9235 11.5732C48.9348 11.6649 48.9081 11.7573 48.8496 11.8287C48.7912 11.9001 48.7061 11.9443 48.6142 11.951C48.4218 11.9709 48.2487 11.8332 48.2242 11.6407C48.2129 11.549 48.2396 11.4566 48.2981 11.3852C48.3566 11.3138 48.4417 11.2696 48.5335 11.2629C48.7254 11.2448 48.8973 11.3817 48.9235 11.5732Z" fill="#060508"/>
<path d="M48.7488 11.3843C48.7634 11.4543 48.8255 11.5039 48.8967 11.5024C48.9294 11.5019 48.9603 11.4871 48.981 11.4617C49.0017 11.4363 49.0103 11.4031 49.0043 11.3708C48.9912 11.2995 48.9287 11.2482 48.8564 11.2494C48.8234 11.2508 48.7927 11.2665 48.7721 11.2923C48.7514 11.3182 48.743 11.3517 48.7488 11.3843Z" fill="#FFFAE4"/>
<path d="M48.231 11.8599C48.3277 11.9979 48.498 12.0633 48.6618 12.0256C48.8256 11.9878 48.9503 11.8544 48.9773 11.6879C49.004 11.7041 49.0279 11.7246 49.0479 11.7486C49.004 11.9461 48.8412 12.0946 48.6411 12.1197C48.4586 12.1491 48.2758 12.0686 48.1738 11.9139C48.1738 11.9139 48.2243 11.8532 48.231 11.8599Z" fill="#94BCE4"/>
<path d="M48.1773 11.4079C48.118 11.5328 48.118 11.6778 48.1773 11.8026H48.1201C48.0513 11.6726 48.0744 11.5129 48.1773 11.4079V11.4079Z" fill="#94BCE4"/>
<g style="mix-blend-mode:multiply">
<path fill-rule="evenodd" clip-rule="evenodd" d="M41.4094 11.8633C41.1116 11.7546 40.8227 11.6226 40.5454 11.4686C40.6799 11.4686 40.7673 11.4349 40.7572 11.3809C40.7726 11.3304 40.7823 11.2874 40.7912 11.2484C40.8171 11.134 40.8353 11.0538 40.9657 10.9155C41.1203 10.7698 41.3219 10.6848 41.5338 10.676C42.1873 10.5751 42.8548 10.7218 43.4064 11.0875L43.7426 11.2966L44.0788 11.499L44.0015 11.5766C43.9722 11.594 43.9427 11.6109 43.913 11.6273C43.9182 11.6165 43.9209 11.6052 43.9209 11.5934C43.9155 11.5422 43.887 11.4962 43.8436 11.4686C43.5967 11.2806 43.3252 11.1274 43.0367 11.0133C42.8736 10.9394 42.7019 10.8861 42.5257 10.8547C42.1764 10.7822 41.816 10.7822 41.4667 10.8547C41.2237 10.9344 41.0235 11.1097 40.912 11.3405L40.9456 11.3742C40.9477 11.3853 40.9477 11.3968 40.9456 11.4079V11.418C40.9456 11.4419 40.9733 11.4636 41.0086 11.4911C41.048 11.5219 41.097 11.5601 41.1271 11.6171C41.5918 11.7593 42.0712 11.8476 42.556 11.8802C42.8349 11.899 43.1151 11.882 43.3897 11.8296C43.4368 11.8211 43.4991 11.8094 43.5644 11.7941C43.2041 11.941 42.8194 12.0232 42.4281 12.0353C42.2205 12.0271 42.0137 12.0034 41.8095 11.9645C41.6744 11.9383 41.5408 11.9045 41.4094 11.8633ZM43.5644 11.7941C43.6835 11.7455 43.7999 11.6899 43.913 11.6273C43.8756 11.7058 43.7122 11.7593 43.5644 11.7941Z" fill="#F9CFB2"/>
</g>
<path d="M43.5271 11.273C43.1684 11.0475 42.7738 10.8855 42.3605 10.794C42.263 10.7771 42.1756 10.7637 42.0545 10.7535C41.7203 10.6897 41.3749 10.7733 41.1065 10.9829C40.9765 11.1386 40.8864 11.3239 40.8442 11.5226C41.3122 11.773 41.8306 11.9136 42.3605 11.9341C42.8442 11.9592 43.3278 11.881 43.7792 11.7048C43.8289 11.6782 43.8724 11.6414 43.907 11.5968" fill="white"/>
<path d="M43.5271 11.273C43.1684 11.0475 42.7738 10.8855 42.3605 10.794C42.263 10.7771 42.1756 10.7637 42.0545 10.7535C41.7203 10.6897 41.3749 10.7733 41.1065 10.9829C40.9765 11.1386 40.8864 11.3239 40.8442 11.5226C41.3122 11.773 41.8306 11.9136 42.3605 11.9341C42.8442 11.9592 43.3278 11.881 43.7792 11.7048C43.8289 11.6782 43.8724 11.6414 43.907 11.5968" fill="white"/>
<path d="M42.0782 11.3371C42.0819 11.4918 42.0227 11.6413 41.9143 11.7514C41.8059 11.8614 41.6575 11.9225 41.5033 11.9207C41.1805 11.9208 40.9158 11.6641 40.9049 11.3405C40.9022 11.1866 40.9612 11.0382 41.0687 10.9284C41.1761 10.8187 41.3231 10.7569 41.4764 10.7569C41.8005 10.7549 42.0673 11.0121 42.0782 11.3371Z" fill="#1A0909"/>
<path d="M41.4802 10.794C41.3394 10.7921 41.2038 10.8479 41.1049 10.9485C41.0059 11.049 40.9521 11.1857 40.9557 11.327C40.9666 11.6227 41.2088 11.8567 41.5037 11.8565C41.6428 11.8575 41.7764 11.8022 41.8744 11.7032C41.9724 11.6042 42.0267 11.4699 42.0248 11.3303C42.0176 11.0333 41.7764 10.7957 41.4802 10.794Z" fill="#5C8AC7"/>
<path d="M41.1402 11.2291C41.1182 11.3183 41.1334 11.4126 41.1823 11.4902C41.2311 11.5679 41.3094 11.6222 41.3991 11.6407C41.5882 11.6853 41.7781 11.5698 41.8261 11.3809C41.848 11.2913 41.8324 11.1966 41.7828 11.1188C41.7333 11.041 41.6541 10.9871 41.5638 10.9694C41.3756 10.9249 41.1867 11.0407 41.1402 11.2291Z" fill="#060508"/>
<path d="M41.3523 11.0605C41.3301 11.1291 41.2621 11.1718 41.1909 11.1617C41.1582 11.1573 41.1291 11.1386 41.1116 11.1105C41.094 11.0825 41.0898 11.0481 41.1001 11.0167C41.1223 10.9481 41.1904 10.9054 41.2615 10.9155C41.2942 10.9198 41.3233 10.9386 41.3408 10.9666C41.3584 10.9946 41.3626 11.029 41.3523 11.0605Z" fill="#FFFAE4"/>
<path d="M41.789 11.6002C41.6753 11.723 41.499 11.765 41.3423 11.7067C41.1857 11.6484 41.0794 11.5012 41.0729 11.3337C41.0434 11.344 41.0169 11.3614 40.9956 11.3843C41.0134 11.5864 41.1562 11.7553 41.352 11.8059C41.5294 11.8557 41.7195 11.7978 41.8395 11.6575C41.8395 11.6575 41.7991 11.5901 41.789 11.6002Z" fill="#94BCE4"/>
<path d="M41.9036 11.1549C41.9405 11.2889 41.9159 11.4324 41.8364 11.5462L41.8868 11.5698C41.9866 11.4518 41.9935 11.2807 41.9036 11.1549Z" fill="#94BCE4"/>
<g style="mix-blend-mode:multiply">
<path fill-rule="evenodd" clip-rule="evenodd" d="M50.0236 11.7351C50.0274 11.7738 50.0316 11.8164 50.0399 11.8667C50.0466 11.9072 50.1373 11.9375 50.2853 11.9713C49.991 12.0898 49.6874 12.1835 49.3775 12.2512C49.2418 12.2754 49.1049 12.2923 48.9674 12.3018C48.7603 12.3164 48.5525 12.3164 48.3454 12.3018C47.9332 12.2347 47.5387 12.0896 47.1825 11.8757C47.2586 11.9069 47.3358 11.9327 47.3931 11.9518C47.3957 11.9527 47.3982 11.9535 47.4008 11.9544C47.6666 12.0412 47.9421 12.0945 48.2211 12.1129C48.7066 12.1411 49.1937 12.1151 49.6734 12.0353C49.7064 11.9884 49.7562 11.9612 49.7996 11.9375C49.8404 11.9152 49.8755 11.8961 49.8852 11.8667V11.8363C49.893 11.8229 49.9048 11.8123 49.9189 11.806C49.8406 11.5626 49.6671 11.3617 49.4381 11.2494C49.1018 11.1309 48.7448 11.0826 48.3892 11.1077C48.2104 11.1184 48.0334 11.149 47.8613 11.1988C47.5608 11.2725 47.2714 11.3859 47.0007 11.5361C46.9536 11.5665 46.9065 11.6036 46.9065 11.6542C46.9058 11.6689 46.9092 11.6834 46.9161 11.6975C46.8925 11.68 46.8691 11.6622 46.846 11.6441L46.7754 11.5564L47.1116 11.3978L47.4478 11.2325C48.0421 10.9429 48.7218 10.8829 49.3574 11.0639C49.5668 11.1021 49.7561 11.2132 49.8919 11.3776C50.0037 11.5331 50.0118 11.6154 50.0236 11.7351ZM46.9161 11.6975C47.0021 11.7613 47.091 11.8208 47.1825 11.8757C47.0645 11.8274 46.9494 11.7663 46.9161 11.6975Z" fill="#F9CFB2"/>
</g>
<path d="M47.3302 11.3944C47.7177 11.2109 48.1341 11.0967 48.5607 11.0571C48.6582 11.0571 48.749 11.0571 48.87 11.0571C49.2077 11.0345 49.539 11.1572 49.7811 11.3944C49.8893 11.5662 49.9539 11.7619 49.9694 11.9645C49.4666 12.1592 48.926 12.2354 48.3893 12.1871C47.9094 12.1581 47.4409 12.0282 47.0142 11.806C47.0546 11.8464 46.9134 11.7318 46.8999 11.6845" fill="white"/>
<path d="M47.3302 11.3944C47.7177 11.2109 48.1341 11.0967 48.5607 11.0571C48.6582 11.0571 48.749 11.0571 48.87 11.0571C49.2077 11.0345 49.539 11.1572 49.7811 11.3944C49.8893 11.5662 49.9539 11.7619 49.9694 11.9645C49.4666 12.1592 48.926 12.2354 48.3893 12.1871C47.9094 12.1581 47.4409 12.0282 47.0142 11.806C47.0546 11.8464 46.9134 11.7318 46.8999 11.6845" fill="white"/>
<path d="M47.2061 11.644C47.1831 11.7965 47.2228 11.9518 47.3159 12.0745C47.409 12.1971 47.5477 12.2767 47.7003 12.2951C48.0217 12.3416 48.3209 12.1209 48.3727 11.7992C48.3956 11.6467 48.356 11.4915 48.2628 11.3688C48.1697 11.2461 48.0311 11.1665 47.8785 11.1482C47.557 11.1017 47.2578 11.3224 47.2061 11.644Z" fill="#1A0909"/>
<path d="M47.8677 11.1887C48.0074 11.2045 48.1348 11.2767 48.2204 11.3887C48.306 11.5007 48.3425 11.6428 48.3215 11.7824C48.2733 12.0748 48.0026 12.2763 47.7097 12.2377C47.5699 12.2219 47.4425 12.1497 47.3569 12.0377C47.2713 11.9257 47.2348 11.7836 47.2558 11.6441C47.3024 11.3506 47.5742 11.1483 47.8677 11.1887Z" fill="#5C8AC7"/>
<path d="M48.1501 11.6575C48.1614 11.7493 48.1347 11.8416 48.0762 11.913C48.0177 11.9844 47.9326 12.0286 47.8408 12.0353C47.6478 12.0533 47.4753 11.9145 47.4508 11.7216C47.4395 11.6299 47.4662 11.5376 47.5247 11.4662C47.5831 11.3948 47.6682 11.3505 47.7601 11.3438C47.9531 11.3259 48.1255 11.4646 48.1501 11.6575Z" fill="#060508"/>
<path d="M47.9722 11.4687C47.9851 11.5387 48.0458 11.5897 48.1168 11.5901C48.1495 11.5897 48.1803 11.5748 48.201 11.5494C48.2218 11.524 48.2303 11.4908 48.2243 11.4585C48.2141 11.387 48.1518 11.3347 48.0798 11.3371C48.0471 11.3376 48.0163 11.3524 47.9955 11.3778C47.9748 11.4032 47.9663 11.4364 47.9722 11.4687Z" fill="#FFFAE4"/>
<path d="M47.4575 11.9409C47.5538 12.0787 47.7234 12.1446 47.8871 12.1076C48.0507 12.0706 48.1758 11.9381 48.2039 11.7722C48.2039 11.7722 48.2745 11.8262 48.2745 11.833C48.2294 12.0291 48.0668 12.176 47.8677 12.2006C47.6842 12.2312 47.5003 12.1489 47.4004 11.9915C47.4004 11.9915 47.4508 11.9342 47.4575 11.9409Z" fill="#94BCE4"/>
<path d="M47.4044 11.4855C47.346 11.6117 47.346 11.7574 47.4044 11.8836L47.3506 11.9004C47.2706 11.7663 47.2929 11.5946 47.4044 11.4855V11.4855Z" fill="#94BCE4"/>
<g style="mix-blend-mode:multiply">
<path d="M50.5241 10.3184C50.0131 9.691 49.5155 9.78545 48.7288 9.80569C48.2745 9.82738 47.8237 9.89749 47.3841 10.0148C47.1975 10.0564 47.0152 10.1151 46.8394 10.1902C46.7217 10.2442 46.5873 9.73148 46.6041 9.67413C46.6209 9.61679 46.5604 9.65727 46.5469 9.67413C46.3931 9.83448 46.3435 10.0687 46.4192 10.2779C46.5234 10.6152 47.0916 10.3251 47.2731 10.2779C47.8528 10.105 48.4578 10.0331 49.0617 10.0654C49.6803 10.1126 50.114 10.541 50.6418 10.8008C50.6327 10.6341 50.5928 10.4705 50.5241 10.3184Z" fill="#FAD0B3"/>
</g>
<path d="M50.2585 9.82931C50.1303 9.67982 49.9808 9.55023 49.8147 9.44477C49.4158 9.30884 48.995 9.24933 48.5742 9.26937L48.2649 9.29973C47.8684 9.33266 47.4756 9.40152 47.0915 9.50549C46.9402 9.55271 46.7923 9.6168 46.6377 9.65728C46.6377 9.77197 46.6108 9.99459 46.6108 10.0654C46.6101 10.0576 46.6101 10.0497 46.6108 10.0418C46.5842 9.99016 46.5539 9.94055 46.52 9.8934C46.5145 9.99333 46.5247 10.0935 46.5503 10.1902C46.619 10.2625 46.6944 10.328 46.7755 10.3859C47.5757 10.0688 48.4363 9.82931 49.3172 10.0486C49.785 10.1252 50.218 10.3442 50.5577 10.676L50.5981 10.649C50.5653 10.3488 50.4475 10.0643 50.2585 9.82931Z" fill="#573416"/>
<path d="M50.5844 10.6085C49.9765 9.89584 49.0434 9.55099 48.12 9.69776C47.6627 9.80596 47.2134 9.94572 46.7753 10.116C46.6978 10.1483 46.6107 10.1483 46.5332 10.116C46.5368 10.1426 46.5436 10.1686 46.5534 10.1936C46.6211 10.2646 46.6954 10.329 46.7753 10.3859C47.5754 10.0688 48.4361 9.82931 49.3169 10.0486C49.7847 10.1252 50.2178 10.3442 50.5575 10.676L50.5978 10.649L50.5844 10.6085Z" fill="#573416"/>
<g style="mix-blend-mode:multiply">
<path d="M45.9819 9.95411C46.0411 9.71552 46.1376 9.48783 46.2677 9.27948C46.0316 9.49333 45.8643 9.77277 45.7869 10.0823C45.7499 10.3589 45.9382 10.4972 46.1231 10.6557C46.0288 10.434 45.9808 10.1952 45.9819 9.95411Z" fill="#ECB799"/>
</g>
<path d="M44.4281 9.79895C43.9377 9.58034 43.4841 9.28677 43.0834 8.92868C42.7581 8.62294 42.3429 8.43121 41.8999 8.38223C41.3452 8.35187 40.8208 8.82411 40.5552 9.31996C40.4955 9.38533 40.4477 9.46068 40.414 9.54259C40.4037 9.55411 40.4037 9.57154 40.414 9.58307C40.6673 9.37491 40.9492 9.2045 41.2511 9.0771C41.4054 8.98268 41.5768 8.91964 41.7554 8.89158L41.8697 8.85447C42.2261 8.96241 42.5723 9.41104 42.811 9.63029C42.8984 9.71125 42.9892 9.80232 43.0867 9.89002C43.1964 10.0517 43.3398 10.1875 43.507 10.2881C43.6745 10.3827 43.8753 10.3978 44.0551 10.3294C44.2349 10.261 44.3753 10.1162 44.4382 9.93387C44.4819 9.88665 44.4819 9.81919 44.4281 9.79895Z" fill="#573416"/>
<g style="mix-blend-mode:multiply">
<path d="M43.7629 10.0823C43.4536 10.0182 43.1342 9.54258 42.9224 9.33007C42.4719 8.8747 42.0012 8.48004 41.3557 8.84771C41.0216 9.05398 40.7125 9.29848 40.4346 9.57631C40.6879 9.36815 40.9699 9.19774 41.2717 9.07034C41.426 8.97592 41.5974 8.91288 41.776 8.88482L41.8903 8.84771C42.2467 8.95565 42.593 9.40428 42.8317 9.62353C42.9191 9.70449 43.0098 9.79556 43.1073 9.88327C43.217 10.0449 43.3604 10.1807 43.5276 10.2813C43.6952 10.3759 43.8959 10.3911 44.0758 10.3227C44.2556 10.2543 44.3959 10.1094 44.4588 9.92712V9.88664C44.2581 10.0342 44.0108 10.1037 43.7629 10.0823Z" fill="#573416"/>
</g>
<g style="mix-blend-mode:multiply">
<path d="M44.916 9.85967C44.916 9.83943 44.8857 9.85967 44.8824 9.85967C44.842 10.0688 44.6538 10.197 44.5832 10.3758C44.5832 10.396 44.5663 10.4297 44.5832 10.4466C44.6091 10.4543 44.6371 10.4479 44.6571 10.4297C44.8348 10.2966 44.9325 10.0816 44.916 9.85967Z" fill="#ECB799"/>
</g>
<g style="mix-blend-mode:multiply">
<path d="M44.3516 9.94061C44.2171 10.062 44.1431 10.3757 43.8742 10.2779C43.6446 10.1531 43.4413 9.98466 43.2757 9.78207C42.986 9.43337 42.6578 9.11878 42.2974 8.84434C41.9991 8.66699 41.6264 8.67484 41.3359 8.86458C40.9997 9.01637 40.7811 9.39754 40.4617 9.51897C40.4617 9.51897 40.4248 9.56282 40.4617 9.56282C40.7677 9.56282 41.0938 9.2255 41.356 9.08383C42.1058 8.70941 42.6033 9.53583 43.0639 10.0013C43.2993 10.2341 43.6859 10.6422 44.0725 10.5377C44.3199 10.4362 44.4899 10.2044 44.5129 9.93724C44.486 9.86977 44.3784 9.91025 44.3516 9.94061Z" fill="#ECB799"/>
</g>
<g style="mix-blend-mode:multiply">
<path d="M45.2693 15.7694C45.1608 15.761 45.0542 15.736 44.9532 15.6952C44.8411 15.6514 44.7349 15.5936 44.6372 15.5232C45.0138 15.5143 45.3877 15.4577 45.75 15.3545C45.7971 15.3377 45.8879 15.2938 45.9618 15.2567C46.0995 15.1983 46.2303 15.1248 46.3518 15.0374C46.4113 14.9896 46.4665 14.9366 46.5165 14.8789L46.4022 15.0847C46.2046 15.3612 45.9363 15.5791 45.6256 15.7154C45.511 15.7548 45.3903 15.773 45.2693 15.7694Z" fill="#EBB698"/>
</g>
<path d="M45.7566 15.4625C45.6016 15.5105 45.4412 15.5389 45.2792 15.5468C45.1022 15.5356 44.9299 15.4849 44.7749 15.3984C44.9831 15.4533 45.1994 15.4704 45.4137 15.449C45.5145 15.4253 45.6188 15.3882 45.6188 15.3882L45.6894 15.3646C45.9562 15.2866 46.176 15.0957 46.2911 14.8418C46.2911 14.8182 46.3147 14.7777 46.3281 14.7237C46.3387 14.5996 46.3308 14.4745 46.3046 14.3527C46.234 14.0457 46.0693 13.9344 45.8608 13.5735C45.7766 13.4125 45.7014 13.247 45.6356 13.0776C45.4133 12.5314 45.2379 11.9672 45.1111 11.3911C45.247 11.6158 45.3532 11.8573 45.4271 12.1096L45.528 12.3491C45.6793 12.7167 45.8306 13.0878 45.9785 13.388C46.3147 14.0626 46.4525 14.0626 46.476 14.3797C46.4803 14.6131 46.4296 14.8442 46.3281 15.0543C46.2611 15.2287 46.1539 15.3847 46.0155 15.5097C45.9136 15.5921 45.8004 15.6591 45.6793 15.7087L45.5851 15.7458C45.4751 15.7761 45.359 15.7761 45.2489 15.7458C45.1171 15.7136 44.9927 15.6564 44.8825 15.5771C44.9553 15.6068 45.0307 15.6294 45.1077 15.6446C45.3359 15.6953 45.5746 15.6617 45.7801 15.5502C45.9075 15.4884 46.0165 15.3942 46.0961 15.2769C45.9923 15.3545 45.8779 15.417 45.7566 15.4625Z" fill="#9D5317"/>
<path d="M45.188 11.4687C45.2048 11.4687 45.2384 11.6508 45.4132 12.2141C45.5088 12.5693 45.6313 12.9166 45.7797 13.253C45.968 13.641 46.089 13.8501 46.089 13.8501C46.1675 13.9687 46.2308 14.0967 46.2773 14.2313C46.3288 14.383 46.3471 14.544 46.3311 14.7035C46.3314 14.7188 46.3253 14.7335 46.3143 14.744C46.2537 14.7946 46.0655 14.5315 46.0419 14.5011C45.9368 14.3506 45.8509 14.1874 45.7864 14.0154C45.6587 13.6781 45.5948 13.5364 45.5275 13.3205C45.3335 12.7209 45.2194 12.0983 45.188 11.4687Z" fill="#FAEAE1"/>
<g style="mix-blend-mode:multiply">
<path d="M48.6842 17.1726C48.6268 16.918 48.5 16.6844 48.3178 16.498C47.9816 16.1607 47.3865 16.272 46.9562 16.3361C46.9275 16.3508 46.9023 16.3715 46.8822 16.3968C47.1478 16.4339 47.6723 16.5149 47.6487 16.5216H47.605L47.6857 16.552C47.3495 16.6295 47.047 16.7409 46.7141 16.7982C46.2972 16.869 45.877 16.9163 45.4567 16.9669C44.9827 17.0242 44.512 17.0883 44.0346 17.1085C43.9506 17.1085 43.7657 17.1423 43.5841 17.1423C43.3866 17.1675 43.1866 17.1675 42.9891 17.1423C42.9353 17.1423 42.9252 17.0714 42.942 17.0309L42.9723 16.9702L42.8344 17.0343L42.7874 17.0579C42.7102 17.1575 42.6552 17.2725 42.626 17.3952C42.7773 17.4796 42.9252 17.5538 43.0664 17.6381L43.1034 17.6617C43.2271 17.7413 43.3401 17.8366 43.4396 17.9451L43.5203 18.0328C43.6009 18.1104 43.6816 18.1879 43.759 18.2689C44.0145 18.5354 44.1994 18.8727 44.5692 18.9772C44.9414 19.021 45.3185 18.9901 45.6786 18.8862C46.0559 18.8467 46.4286 18.771 46.7914 18.6602C47.0195 18.5577 47.205 18.3789 47.3159 18.1542C47.4134 17.9754 47.5008 17.7899 47.5916 17.6078C47.6219 17.547 47.6555 17.4863 47.6857 17.4222C47.6967 17.3946 47.709 17.3676 47.7227 17.3413C47.787 17.1583 47.904 16.9986 48.0589 16.8825C48.2001 16.8016 48.2942 16.9365 48.3648 17.0546C48.3747 17.0751 48.3826 17.0966 48.3884 17.1187L48.4153 17.1591C48.4619 17.2398 48.5013 17.3245 48.5329 17.4121C48.5597 17.4947 48.5935 17.5748 48.6338 17.6516C48.674 17.4953 48.691 17.3339 48.6842 17.1726Z" fill="#FAD0B3"/>
</g>
<g style="mix-blend-mode:multiply">
<path d="M46.217 19.2741C45.9663 19.3745 45.7024 19.4382 45.4336 19.463C45.2106 19.506 44.9807 19.4979 44.7612 19.4394C44.8535 19.5644 44.9674 19.6717 45.0974 19.7564C45.2071 19.7896 45.3197 19.8122 45.4336 19.8239C45.65 19.8466 45.8662 19.7796 46.0321 19.6384C46.1001 19.5203 46.1618 19.3987 46.217 19.2741Z" fill="#EEC1A6"/>
</g>
<path d="M48.3881 16.7071C48.3881 16.6666 48.3578 16.6295 48.341 16.5891C48.2688 16.4894 48.1455 16.4407 48.025 16.4643C47.9712 16.4643 47.8737 16.5081 47.7762 16.5283C47.8454 16.5642 47.9188 16.5914 47.9947 16.6093H48.025C47.9079 16.6634 47.7877 16.7107 47.6652 16.751C47.2353 16.8581 46.7999 16.9415 46.3608 17.0006C45.5154 17.1407 44.662 17.2274 43.8057 17.2603C43.5173 17.287 43.2267 17.2745 42.9417 17.2232C42.9108 17.2147 42.8863 17.1909 42.8768 17.1602C42.8673 17.1295 42.874 17.0961 42.8946 17.0714L42.9719 17.0006C42.8865 17.0224 42.808 17.0653 42.7433 17.1254C42.6814 17.2051 42.644 17.3013 42.6357 17.402L42.6828 17.3784C43.298 17.4155 43.8561 18.2554 44.1923 18.6838C44.4243 18.984 44.8311 18.9064 45.2211 18.839C45.7124 18.7975 46.1987 18.7094 46.6735 18.5758C46.8483 18.5219 46.966 18.4983 47.0534 18.36C47.3896 17.8 47.4871 17.1085 48.062 16.7341C48.101 16.717 48.1392 16.6979 48.1763 16.6768C48.2088 16.6988 48.2364 16.7275 48.257 16.7611C48.3107 16.8623 48.3276 16.9702 48.4486 17.0141C48.4348 16.9106 48.4146 16.8081 48.3881 16.7071Z" fill="#804E29"/>
<path d="M47.4029 17.4087C47.292 17.6212 47.2079 17.8472 47.1138 18.0834C47.0192 18.3167 46.8172 18.4892 46.5725 18.5455C46.2733 18.5758 45.9741 18.6332 45.6782 18.6804C45.2983 18.7411 44.8478 18.8862 44.4645 18.7614C44.2288 18.548 44.028 18.2987 43.8695 18.0226C43.6836 17.7609 43.4396 17.546 43.1567 17.3952C43.9535 17.3952 44.7167 17.3075 44.9957 17.2738C45.8026 17.176 46.5826 17.0782 47.3794 16.9365C47.5105 16.9095 47.6752 16.8859 47.84 16.8488C47.6591 17.0049 47.5106 17.1952 47.4029 17.4087Z" fill="#8A1812"/>
<path d="M46.9154 17.3109C46.6431 17.3784 46.364 17.4155 46.085 17.4627C45.4328 17.5774 44.7839 17.7022 44.1283 17.7764C44.1182 17.9891 44.1352 18.2022 44.1788 18.4106V18.478C44.2506 18.5822 44.3406 18.6724 44.4443 18.7445C44.8276 18.8693 45.2781 18.7243 45.658 18.6636C45.9539 18.6163 46.2531 18.559 46.5523 18.5286C46.797 18.4724 46.9991 18.2999 47.0936 18.0665L47.2449 17.7022C47.1944 17.4661 47.0902 17.2671 46.9154 17.3109Z" fill="white"/>
<g style="mix-blend-mode:multiply" opacity="0.6">
<path d="M46.9154 17.3109C46.6431 17.3784 46.3641 17.4155 46.085 17.4627C45.4328 17.5774 44.7839 17.7022 44.1284 17.7764C44.1128 17.8883 44.1128 18.0018 44.1284 18.1137C44.1562 18.0743 44.1986 18.0476 44.246 18.0395C44.6999 17.9687 45.184 18.0395 45.648 17.9822C45.9821 17.9652 46.3129 17.9074 46.633 17.8102C46.7372 17.7697 46.7776 17.7528 46.8751 17.8102C46.9726 17.8675 46.9927 18.0867 46.9659 18.2655C47.0179 18.2021 47.0609 18.1317 47.0936 18.0564L47.2449 17.6921C47.1945 17.4661 47.0902 17.2671 46.9154 17.3109Z" fill="#B7A896"/>
</g>
<path d="M44.438 17.9451C44.9273 17.9671 45.4176 17.9366 45.9004 17.854C46.1274 17.8168 46.3519 17.7661 46.5728 17.7022C46.7712 17.6449 47.0973 17.5976 47.2452 17.4256C47.3584 17.2701 47.4238 17.0849 47.4335 16.8927H47.3763C46.5796 17.0512 45.7996 17.149 44.9927 17.23C44.754 17.2603 44.1657 17.3177 43.5 17.3413C43.69 17.6895 44.0433 17.917 44.438 17.9451Z" fill="white"/>
<path d="M45.4129 19.4056C45.206 19.4412 44.9945 19.4412 44.7876 19.4056C44.8584 19.4914 44.9452 19.5624 45.0431 19.6148C45.3075 19.6434 45.5748 19.604 45.8197 19.5001C45.8788 19.4554 45.9349 19.4069 45.9878 19.355C45.7974 19.3839 45.6054 19.4008 45.4129 19.4056Z" fill="#A04E17"/>
<path d="M44.0044 17.1389C43.6562 17.1777 43.3038 17.1445 42.9689 17.0411C42.9151 17.4391 44.7508 17.1254 44.9861 17.1051C44.9861 17.1051 45.0231 17.0647 44.9861 17.0613C44.6734 17.0984 44.3406 17.1321 44.0044 17.1389Z" fill="#FBEBE2"/>
<path d="M45.6351 19.0413C45.2316 19.0413 44.845 19.21 44.4517 19.0211C44.5049 19.1528 44.6111 19.2557 44.7442 19.3044L44.8316 19.3213C45.0405 19.3419 45.2512 19.3082 45.4434 19.2235C45.5127 19.1688 45.5769 19.1078 45.6351 19.0413Z" fill="#FBEBE2"/>
<path fill-rule="evenodd" clip-rule="evenodd" d="M38.989 33.8224C39.1441 33.583 39.2302 33.3051 39.2377 33.0196C39.2368 33.0061 39.2362 32.9898 39.2354 32.9716C39.2334 32.9218 39.2308 32.8569 39.2209 32.7902C39.1391 32.1371 38.6504 31.6095 38.0071 31.4798C37.3639 31.3502 36.71 31.6475 36.3831 32.2182C36.0562 32.789 36.1295 33.5055 36.565 33.9978C36.9922 34.495 37.6905 34.6586 38.293 34.4026C38.351 34.3674 38.4262 34.3837 38.4645 34.4397C38.5213 34.5187 38.6093 34.5692 38.7059 34.5783C38.8026 34.5873 38.8984 34.554 38.9688 34.4869C39.0424 34.4228 39.0864 34.331 39.0902 34.2333C39.094 34.1355 39.0574 34.0405 38.989 33.9708C38.9684 33.9517 38.9567 33.9248 38.9567 33.8966C38.9567 33.8685 38.9684 33.8416 38.989 33.8224ZM38.1315 32.3619C38.3386 32.5964 38.4122 32.9207 38.3265 33.222L38.2256 33.1107C38.1628 33.0383 38.0736 32.9944 37.9782 32.9887C37.8827 32.9829 37.7889 33.016 37.718 33.0803C37.643 33.1414 37.5978 33.2319 37.5939 33.3287C37.5901 33.4256 37.6279 33.5194 37.6978 33.5863C37.7494 33.6407 37.7977 33.6981 37.8424 33.7583C37.728 33.8041 37.6004 33.8041 37.486 33.7583C37.3319 33.6842 37.2117 33.5539 37.1498 33.394C36.9896 33.0306 37.0713 32.6056 37.3549 32.3281C37.4604 32.2253 37.6035 32.1706 37.7505 32.177C37.8974 32.1834 38.0352 32.2503 38.1315 32.3619Z" fill="white"/>
<path d="M46.9632 33.0162L47.054 32.9184L47.6995 32.1999C47.8011 32.0859 47.9559 32.0354 48.105 32.0677C48.254 32.1001 48.3742 32.2103 48.4197 32.3563C48.4652 32.5023 48.4289 32.6616 48.3248 32.7734L47.6894 33.475L47.9886 33.8798C48.0828 34.0012 48.1769 34.126 48.2643 34.2508C48.3353 34.3421 48.3667 34.4582 48.3515 34.573C48.3364 34.6878 48.2759 34.7917 48.1836 34.8613C48.0927 34.9303 47.9773 34.9582 47.8651 34.9384C47.7528 34.9186 47.6539 34.8528 47.5919 34.7568C47.3868 34.4869 47.1885 34.2137 46.9868 33.9438L46.9094 33.846C46.9074 33.8752 46.9074 33.9045 46.9094 33.9337C46.9094 34.1091 46.8926 34.2879 46.8825 34.4633C46.8735 34.6909 46.6859 34.8701 46.4589 34.8681C46.2328 34.8627 46.0507 34.6801 46.0454 34.4532V34.406C46.079 33.7313 46.1093 33.0567 46.1463 32.3821C46.1453 32.2709 46.1896 32.1641 46.2689 32.0864C46.3482 32.0087 46.4557 31.9669 46.5665 31.9706C46.7896 31.976 46.9682 32.1581 46.9699 32.3821C46.9699 32.5845 46.9498 32.7869 46.9397 32.9892L46.9632 33.0162Z" fill="white"/>
<path d="M40.2869 32.8003C40.2869 33.023 40.2634 33.249 40.2567 33.475C40.2446 33.6873 40.4064 33.8693 40.6181 33.8814C40.8298 33.8935 41.0111 33.7312 41.0232 33.5188C41.0467 33.05 41.0669 32.5845 41.0938 32.119C41.1004 31.9731 41.1829 31.8415 41.3111 31.7723C41.4393 31.7032 41.5942 31.7067 41.7191 31.7817C41.8579 31.8546 41.9409 32.0026 41.9309 32.1594C41.9108 32.6418 41.9007 33.1275 41.8502 33.6065C41.7727 34.2378 41.2252 34.7036 40.5918 34.6772C39.9584 34.6507 39.4513 34.1409 39.4263 33.5053C39.4263 33.0129 39.4565 32.5204 39.4901 32.0279C39.4958 31.9162 39.5476 31.812 39.6331 31.7403C39.7187 31.6685 39.8301 31.6359 39.9407 31.6501C40.0511 31.6587 40.1535 31.7113 40.2249 31.7963C40.2963 31.8813 40.3308 31.9914 40.3206 32.1021C40.3138 32.3281 40.3004 32.5642 40.2869 32.8003Z" fill="white"/>
<path d="M44.6843 34.8647C44.0669 34.8317 43.5304 34.4282 43.3256 33.843C43.1207 33.2578 43.2879 32.6063 43.7491 32.1932C44.2102 31.7801 44.8742 31.6868 45.4307 31.9571C45.5804 32.0372 45.7147 32.1435 45.8274 32.2708C45.9238 32.37 45.9613 32.5126 45.9262 32.6466C45.8911 32.7806 45.7885 32.8864 45.6559 32.9252C45.5162 32.9628 45.367 32.9244 45.2626 32.824C45.2496 32.8133 45.2383 32.8008 45.2289 32.7869C45.1038 32.5961 44.8793 32.496 44.6543 32.5309C44.4293 32.5657 44.2453 32.729 44.1834 32.9488C44.042 33.2434 44.0663 33.591 44.2472 33.8629C44.3355 34.0152 44.4909 34.1162 44.6655 34.1349C44.8401 34.1535 45.0132 34.0876 45.1314 33.9573C45.2164 33.8595 45.3384 33.802 45.4676 33.7988C45.6031 33.7973 45.7291 33.8682 45.7984 33.985C45.8677 34.1018 45.8698 34.2468 45.8038 34.3655C45.7185 34.5138 45.5893 34.6317 45.434 34.7028C45.2042 34.8263 44.9444 34.8824 44.6843 34.8647Z" fill="white"/>
<path d="M43.0095 33.2456C42.9927 33.5829 42.9759 33.9203 42.9558 34.2778C42.9466 34.4696 42.8076 34.63 42.6196 34.6657C42.441 34.7091 42.2558 34.6259 42.169 34.4633C42.1301 34.386 42.1104 34.3004 42.1119 34.2137C42.1421 33.5391 42.1724 32.8645 42.2094 32.1898C42.2172 32.0392 42.3045 31.9042 42.4384 31.8356C42.5724 31.7671 42.7326 31.7755 42.8587 31.8576C42.9848 31.9397 43.0577 32.0831 43.0499 32.2337C43.0499 32.571 43.0196 32.9083 43.0028 33.2456H43.0095Z" fill="white"/>
<path d="M48.6443 33.5188L48.6947 32.5069C48.7007 32.3563 48.7864 32.2203 48.9194 32.1502C49.0524 32.0801 49.2126 32.0865 49.3397 32.167C49.4667 32.2476 49.5412 32.39 49.5352 32.5406C49.5039 33.2152 49.4702 33.8899 49.4344 34.5645C49.4233 34.7726 49.2623 34.9414 49.0555 34.9616C48.8488 34.9819 48.6583 34.8475 48.6073 34.6455C48.599 34.5952 48.599 34.5439 48.6073 34.4937C48.6141 34.18 48.6309 33.8494 48.6443 33.5188Z" fill="white"/>
<path fill-rule="evenodd" clip-rule="evenodd" d="M44.0956 58.9725C44.1092 58.8775 44.0964 58.7806 44.0586 58.6925L44.0149 58.6284C43.9005 58.4404 43.6792 58.3466 43.4651 58.3955C43.2511 58.4445 43.0921 58.6251 43.0701 58.8443C43.0496 59.0646 43.1694 59.2739 43.3694 59.3672C43.5757 59.459 43.8175 59.4041 43.9644 59.2322C43.9808 59.218 44.0052 59.218 44.0216 59.2322C44.0493 59.2483 44.0825 59.2515 44.1128 59.2412C44.1431 59.2309 44.1674 59.2079 44.1796 59.1783C44.194 59.1485 44.1953 59.114 44.1832 59.0832C44.171 59.0524 44.1466 59.0282 44.1157 59.0164C44.0956 59.0062 44.0956 58.9961 44.0956 58.9725ZM43.6317 58.6453C43.7275 58.6882 43.7947 58.7773 43.8098 58.8814L43.7661 58.8477C43.7367 58.834 43.7031 58.8328 43.6728 58.8442C43.6425 58.8556 43.618 58.8787 43.6048 58.9084C43.5915 58.9378 43.5908 58.9714 43.6028 59.0014C43.6149 59.0314 43.6387 59.055 43.6686 59.0669C43.6919 59.075 43.7144 59.0852 43.7359 59.0973C43.7078 59.1269 43.669 59.1439 43.6283 59.1445C43.5704 59.1442 43.5149 59.1212 43.4736 59.0804C43.3812 58.9948 43.3482 58.8623 43.3896 58.7431C43.4073 58.6968 43.4435 58.6599 43.4894 58.6413C43.5353 58.6228 43.5868 58.6242 43.6317 58.6453Z" fill="white"/>
<path d="M46.4226 57.6165C46.4226 57.6165 46.4226 57.5895 46.4226 57.576L46.5235 57.2657C46.5319 57.2275 46.5561 57.1946 46.5901 57.1754C46.6241 57.1561 46.6646 57.1521 46.7016 57.1645C46.7398 57.1759 46.7714 57.2029 46.7887 57.2388C46.806 57.2748 46.8073 57.3164 46.7924 57.3534C46.7588 57.4546 46.7285 57.5524 46.6949 57.657L46.8428 57.738L46.9773 57.8122C47.0482 57.8508 47.0751 57.9394 47.0378 58.0112C47.0189 58.045 46.987 58.0696 46.9495 58.0792C46.912 58.0887 46.8722 58.0825 46.8395 58.0618L46.5436 57.8965H46.5066C46.5078 57.9055 46.5078 57.9145 46.5066 57.9235C46.5302 57.9774 46.5537 58.0348 46.5739 58.0888C46.6003 58.1595 46.5681 58.2388 46.4999 58.2709C46.4302 58.3005 46.3495 58.271 46.315 58.2034C46.231 57.9909 46.1469 57.7818 46.0629 57.5659C46.0484 57.532 46.0481 57.4936 46.0619 57.4594C46.0758 57.4251 46.1028 57.3979 46.1368 57.3838C46.1709 57.3671 46.2104 57.3657 46.2457 57.3798C46.2809 57.3939 46.3085 57.4223 46.3217 57.458C46.3486 57.5187 46.3722 57.5828 46.3957 57.6469L46.4226 57.6165Z" fill="white"/>
<path d="M44.351 58.4766C44.3779 58.5475 44.4048 58.6183 44.435 58.6892C44.4519 58.7319 44.4901 58.7625 44.5355 58.7693C44.5808 58.776 44.6263 58.758 44.6548 58.722C44.6833 58.686 44.6906 58.6375 44.6737 58.5947L44.5023 58.1562C44.4846 58.1105 44.4918 58.0588 44.5212 58.0197C44.5507 57.9805 44.5982 57.9594 44.6468 57.9639C44.7002 57.9664 44.7468 58.0011 44.7645 58.0516C44.825 58.2 44.8889 58.3518 44.9393 58.5036C44.9977 58.7062 44.8939 58.9203 44.6991 58.9994C44.5042 59.0784 44.2813 58.9969 44.1829 58.8106C44.1157 58.6588 44.0585 58.5036 43.998 58.3485C43.9852 58.3132 43.9873 58.2742 44.0038 58.2404C44.0203 58.2067 44.0498 58.1812 44.0854 58.1697C44.1587 58.1451 44.2381 58.1841 44.2636 58.2574C44.2938 58.3282 44.3207 58.4024 44.351 58.4766Z" fill="white"/>
<path d="M45.9818 58.4969C45.7895 58.5705 45.5719 58.5212 45.4298 58.3717C45.2878 58.2223 45.2489 58.0019 45.3313 57.8127C45.4136 57.6234 45.6011 57.5022 45.8069 57.5052C45.8639 57.5082 45.9198 57.522 45.9717 57.5457C46.0145 57.5636 46.0452 57.6024 46.0527 57.6484C46.0602 57.6943 46.0436 57.7409 46.0087 57.7717C45.9703 57.8011 45.9202 57.8099 45.8742 57.7953C45.81 57.7534 45.7272 57.7531 45.6627 57.7946C45.5983 57.836 45.5639 57.9115 45.575 57.9875C45.5732 58.0974 45.6294 58.2001 45.7229 58.2574C45.77 58.293 45.8314 58.3034 45.8876 58.2853C45.9438 58.2671 45.9877 58.2228 46.0053 58.1663C46.0186 58.1234 46.049 58.088 46.0893 58.0685C46.1306 58.0505 46.1781 58.0556 46.2146 58.0819C46.2512 58.1082 46.2712 58.1517 46.2675 58.1967C46.2635 58.2539 46.241 58.3084 46.2036 58.3518C46.1454 58.4209 46.0683 58.4714 45.9818 58.4969Z" fill="white"/>
<path d="M45.2458 58.2338L45.3702 58.5711C45.3947 58.6305 45.3752 58.699 45.3232 58.7364C45.2751 58.7753 45.2065 58.7753 45.1584 58.7364C45.137 58.7178 45.1198 58.6948 45.108 58.6689C45.024 58.4598 44.9399 58.2473 44.8592 58.0382C44.8416 58.0032 44.84 57.9622 44.8548 57.926C44.8697 57.8897 44.8995 57.8617 44.9365 57.8493C44.9721 57.8341 45.0123 57.8346 45.0475 57.8507C45.0826 57.8667 45.1095 57.8968 45.1215 57.9336C45.1618 58.0382 45.2021 58.1427 45.2458 58.2473V58.2338Z" fill="white"/>
<path d="M47.0071 57.5356C46.9634 57.431 46.9231 57.3264 46.8828 57.2219C46.8617 57.1744 46.8683 57.1192 46.8999 57.078C46.9315 57.0368 46.983 57.0163 47.0341 57.0245C47.0852 57.0327 47.1278 57.0683 47.145 57.1173C47.229 57.3298 47.3131 57.5389 47.3938 57.7548C47.4176 57.8198 47.3911 57.8926 47.3311 57.9268C47.2711 57.9611 47.1953 57.9468 47.1517 57.8931C47.1426 57.8792 47.1347 57.8646 47.1282 57.8493L47.0071 57.5356Z" fill="white"/>
</svg>
