<svg width="132" height="132" viewBox="0 0 132 132" fill="none" xmlns="http://www.w3.org/2000/svg">
<path d="M129.389 38.6023C123.625 23.8254 105.87 14.9639 90.8317 20.8281C73.6661 27.5217 79.3575 55.0308 63.7658 60.5934C55.3434 63.5982 42.8926 52.3737 34.3832 50.6526C18.7028 47.4807 4.50769 58.6281 1.01227 74.0653C-2.55378 89.8142 3.16578 110.849 20.3397 115.124C40.7971 120.215 51.4532 101.687 68.6148 96.3665C86.2259 90.9067 105.808 103.801 120.387 88.1126C131.158 76.5221 135.097 53.2348 129.389 38.6023Z" fill="#81CFFA"/>
<path d="M44.1918 46.4245H13.7419C13.0327 46.4245 12.4575 45.8444 12.4575 45.1291V14.4203C12.4575 13.7051 13.0327 13.125 13.7419 13.125H44.1918C44.901 13.125 45.4762 13.7051 45.4762 14.4203V45.1294C45.4762 45.8447 44.901 46.4245 44.1918 46.4245Z" fill="#80BA6E"/>
<path d="M30.2829 74.0294H28.9669C26.6902 74.0294 24.8447 72.168 24.8447 69.8721C24.8447 67.576 26.6904 65.7148 28.9669 65.7148H30.2829V74.0294Z" fill="black"/>
<path d="M68.9931 95.017C68.9931 95.017 82.4963 80.967 79.5044 62.353C79.2537 60.7927 77.9092 59.6494 76.3417 59.6494H36.4034C33.0231 59.6494 30.2827 62.4131 30.2827 65.8222V95.0173H68.9931V95.017Z" fill="#8CC27B"/>
<ellipse cx="106.345" cy="95.7579" rx="11.5062" ry="11.6041" fill="black"/>
<ellipse cx="106.345" cy="95.7581" rx="6.63086" ry="6.68731" fill="white"/>
<ellipse cx="44.7137" cy="95.7579" rx="11.5062" ry="11.6041" fill="black"/>
<ellipse cx="44.7139" cy="95.7581" rx="6.63086" ry="6.68731" fill="white"/>
<path d="M78.8721 95.0171C77.1739 80.1582 65.9356 68.6787 52.324 68.6787C38.7124 68.6787 27.4741 80.1582 25.7759 95.0171H78.8721Z" fill="#80BA6E"/>
<path d="M98.0763 61.4575L94.8389 85.1909H108.346C108.346 80.7842 108.006 76.2485 107.491 71.9073C107.289 70.201 106.456 68.6355 105.157 67.5231L98.0763 61.4575Z" fill="white"/>
<path d="M120.254 92.5142C121.174 92.5142 121.8 91.566 121.438 90.7129C118.944 84.8191 113.622 80.7466 107.455 80.7466C100.677 80.7466 94.9195 85.6652 92.8154 92.5142H120.254Z" fill="#8CC27B"/>
<path d="M103.828 47.7393C97.6037 47.7393 92.3741 52.4582 91.6872 58.6978C90.7827 66.911 89.8667 76.7235 89.8667 76.7235C88.9304 85.6758 81.4932 92.4266 72.5673 92.4266H26.0416C24.6735 92.4266 23.4787 93.4678 23.3903 94.8447C23.2932 96.3535 24.4782 97.6079 25.9535 97.6079H78.9893C90.5515 97.6079 100.185 88.8631 101.398 77.2667L103.828 47.7393Z" fill="#8CC27B"/>
<path d="M71.9413 59.6494H34.8652C33.4464 59.6494 32.2964 58.4895 32.2964 57.0587C32.2964 54.6077 34.2667 52.6206 36.697 52.6206H73.7731C75.1919 52.6206 76.3419 53.7805 76.3419 55.2113C76.3419 57.6623 74.3717 59.6494 71.9413 59.6494Z" fill="#8CC27B"/>
<path d="M103.543 52.1554H95.2241C91.6568 52.1554 88.7651 49.2388 88.7651 45.6414C88.7651 42.0438 91.6571 39.1274 95.2241 39.1274H103.543C104.962 39.1274 106.112 40.2873 106.112 41.7181V49.565C106.112 50.9956 104.962 52.1554 103.543 52.1554Z" fill="#8CC27B"/>
<path d="M103.544 39.127H101.893V52.1552H103.544C104.962 52.1552 106.112 50.9953 106.112 49.5645V41.7176C106.112 40.2868 104.962 39.127 103.544 39.127Z" fill="white"/>
<ellipse cx="93.3165" cy="50.1605" rx="3.18609" ry="3.21321" fill="black"/>
<path fill-rule="evenodd" clip-rule="evenodd" d="M122.62 90.2047C120.146 84.3573 115.116 80.3648 109.464 79.591C109.322 77.1013 109.088 74.47 108.766 71.7534C108.525 69.7166 107.539 67.8635 105.989 66.5358L103.729 64.6003L104.661 53.283C106.242 52.799 107.397 51.3159 107.397 49.5646V41.7179C107.397 39.5752 105.669 37.8319 103.544 37.8319H98.6921L99.0186 30.9949C99.0453 30.4397 98.7175 29.9298 98.2048 29.7267L90.7105 26.7622L91.4162 24.5016C91.6292 23.8192 91.2533 23.092 90.5765 22.877C89.9006 22.6625 89.1788 23.0415 88.9656 23.7239L86.8553 30.484C86.6423 31.1664 87.0182 31.8936 87.695 32.1086C87.8232 32.1493 87.9532 32.1684 88.0809 32.1684C88.6267 32.1684 89.1333 31.8148 89.3059 31.2617L89.9373 29.2389L96.4082 31.7988L96.1202 37.8317H95.2245C90.9546 37.8317 87.4808 41.3348 87.4808 45.6412C87.4808 47.2366 87.9563 48.7635 88.8507 50.07C88.8505 50.0842 88.8495 50.0981 88.8484 50.112C88.8473 50.1279 88.8461 50.1438 88.8461 50.1599C88.8461 52.0273 89.9779 53.633 91.5863 54.3164C90.9687 55.6503 90.5736 57.0703 90.4103 58.5545C89.5153 66.6842 88.5967 76.5032 88.589 76.5868C87.9678 82.5278 84.2546 87.421 79.1584 89.7185C75.5831 76.5133 64.6896 67.383 52.3238 67.383C45.9506 67.383 39.7123 69.8498 34.7576 74.3296C33.6126 75.3646 32.5486 76.5008 31.5674 77.7172V65.8216C31.5674 63.1322 33.737 60.9441 36.4037 60.9441H71.9413H76.3419C77.2893 60.9441 78.0864 61.6236 78.2367 62.5596C79.0197 67.4293 78.6929 72.4356 77.2664 77.4394C77.0704 78.127 77.4645 78.8446 78.146 79.0425C78.8285 79.2402 79.5393 78.8428 79.7356 78.1555C81.2676 72.7817 81.6165 67.3951 80.7726 62.1454C80.4379 60.0622 78.745 58.5231 76.6831 58.3687C77.2785 57.4622 77.6266 56.3767 77.6266 55.2104C77.6266 53.0677 75.898 51.3244 73.7734 51.3244H45.5979C44.8887 51.3244 44.3135 51.9042 44.3135 52.6197C44.3135 53.3353 44.8887 53.9151 45.5979 53.9151H73.7734C74.4816 53.9151 75.0578 54.4962 75.0578 55.2104C75.0578 56.9433 73.6601 58.3534 71.9416 58.3534H39.3681V47.7195H44.192C45.6085 47.7195 46.7608 46.5573 46.7608 45.1288V14.4203C46.7608 12.9918 45.6085 11.8296 44.192 11.8296H13.7421C12.3257 11.8296 11.1733 12.9918 11.1733 14.4203V45.1293C11.1733 46.5578 12.3257 47.72 13.7421 47.72H20.2456V57.0586C20.2456 59.2014 21.9741 60.9446 24.0988 60.9446H30.8034C29.9693 61.9172 29.3798 63.1078 29.1316 64.4197H28.9672C25.9861 64.4197 23.5606 66.8656 23.5606 69.8723C23.5606 72.8791 25.9861 75.3249 28.9672 75.3249H28.9988V81.3809C28.9988 81.3848 28.9991 81.3886 28.9996 81.3923C29.0005 81.4 29.002 81.4075 29.0021 81.4153C27.2217 84.4109 25.8965 87.7389 25.1153 91.2441C23.4751 91.6358 22.2192 93.0381 22.1085 94.7604C22.0397 95.8314 22.4165 96.8933 23.1419 97.6741C23.8679 98.4552 24.8926 98.9029 25.9535 98.9029H32.3133C33.7236 104.609 38.7932 108.657 44.7145 108.657C50.6361 108.657 55.7057 104.609 57.1157 98.9029H78.9893C84.5125 98.9029 89.6157 97.0102 93.6729 93.8094H93.7073C93.6092 94.4563 93.5545 95.1078 93.5545 95.7578C93.5545 102.871 99.2922 108.657 106.345 108.657C113.397 108.657 119.135 102.871 119.135 95.7578C119.135 95.1078 119.081 94.4563 118.982 93.8094H120.254C121.12 93.8094 121.922 93.3739 122.4 92.6446C122.877 91.9172 122.959 91.0052 122.62 90.2047ZM36.4042 58.3539H34.8654C34.1572 58.3539 33.581 57.7729 33.581 57.0586C33.581 55.3257 34.979 53.9156 36.6973 53.9156H36.799V58.3539H36.4042ZM44.1918 14.4203H13.7421V45.1293H44.1933L44.1918 14.4203ZM22.8144 57.0586V47.72H36.799V51.3249H36.6973C33.5626 51.3249 31.0122 53.8972 31.0122 57.0586C31.0122 57.5133 31.0942 57.948 31.237 58.3539H24.0988C23.3906 58.3539 22.8144 57.7729 22.8144 57.0586ZM26.1297 69.8723C26.1297 71.4503 27.4028 72.7343 28.9675 72.7343H28.9991V67.0104H28.9675C27.4028 67.0104 26.1297 68.2944 26.1297 69.8723ZM104.326 68.5104C105.38 69.4138 106.051 70.6747 106.216 72.0609C106.519 74.6244 106.743 77.1086 106.883 79.4633C105.276 79.5249 103.684 79.8467 102.165 80.4102C102.393 79.4304 102.568 78.4283 102.676 77.4026C102.676 77.3938 102.677 77.3849 102.678 77.3762L102.678 77.3741L103.468 67.7757L104.326 68.5104ZM95.9966 40.4229H95.2247C92.3715 40.4229 90.0499 42.764 90.0496 45.6413C90.0496 46.0798 90.1051 46.5099 90.2094 46.9257C91.0147 46.1389 92.1095 45.6519 93.3166 45.6519C95.7816 45.6519 97.7871 47.6742 97.7871 50.1602C97.7871 50.3988 97.7632 50.6311 97.7278 50.8599H103.544C104.252 50.8599 104.828 50.2788 104.828 49.5646V41.7179C104.828 41.0037 104.252 40.4226 103.544 40.4226H98.5683L98.473 42.42C98.4398 43.1135 97.8721 43.6532 97.1911 43.6532C97.1703 43.6532 97.1495 43.6526 97.1285 43.6516C96.4197 43.6174 95.8731 43.0102 95.9072 42.2957L95.9966 40.4229ZM93.3169 48.2425C94.3654 48.2425 95.2185 49.1026 95.2185 50.1602C95.2185 51.2177 94.3654 52.0778 93.3169 52.0778C92.2683 52.0778 91.4154 51.2177 91.4154 50.1602C91.4154 49.1026 92.2683 48.2425 93.3169 48.2425ZM52.3243 69.9741C46.5019 69.9741 41.0206 72.1475 36.4728 76.2591C32.274 80.055 29.2133 85.305 27.7784 91.1311H72.5676C74.0046 91.1311 75.3984 90.9381 76.7278 90.5824C73.5078 78.4078 63.5798 69.9741 52.3243 69.9741ZM44.7145 106.067C40.2029 106.067 36.3091 103.128 34.9795 98.9032H54.4495C53.1199 103.128 49.2261 106.067 44.7145 106.067ZM25.0164 95.9026C25.262 96.1669 25.5949 96.3125 25.9535 96.3125H78.9893C89.8878 96.3125 98.969 88.0734 100.119 77.1451L102.07 53.4508H96.3632C95.8107 53.9713 95.1289 54.3511 94.3708 54.5368C93.6077 55.8622 93.1324 57.3083 92.9639 58.8407C92.0897 66.7815 91.1926 76.342 91.1472 76.8262L91.1472 76.8263L91.1454 76.8446C90.1387 86.4726 82.1526 93.7218 72.5676 93.7218H26.0419C25.3293 93.7218 24.7151 94.263 24.6722 94.928C24.6488 95.2925 24.7708 95.6384 25.0164 95.9026ZM116.567 95.7581C116.567 101.442 111.981 106.067 106.345 106.067C100.709 106.067 96.1235 101.442 96.1235 95.7581C96.1235 95.1078 96.189 94.4545 96.3118 93.8096H116.378C116.501 94.455 116.567 95.1083 116.567 95.7581ZM101.135 83.74C100.041 86.5371 98.4509 89.0656 96.4732 91.219H120.254C117.898 85.6451 112.872 82.042 107.455 82.042C105.229 82.042 103.106 82.6174 101.135 83.74Z" fill="#2149FE"/>
<path d="M59.6787 45.0129C59.3499 45.0129 59.0214 44.8865 58.7704 44.6334L57.2384 43.0886L55.7063 44.6336C55.2047 45.1396 54.3916 45.1396 53.8899 44.6336C53.3882 44.1279 53.3882 43.3077 53.8899 42.802L56.3303 40.3409C56.832 39.8349 57.645 39.8349 58.1467 40.3409L60.5871 42.802C61.0888 43.3077 61.0888 44.1279 60.5871 44.6336C60.3361 44.8865 60.0076 45.0129 59.6787 45.0129Z" fill="black"/>
<path d="M38.1651 131.052C37.8365 131.052 37.5075 130.925 37.257 130.672L35.7247 129.127L34.1924 130.672C33.6912 131.178 32.8774 131.178 32.3763 130.672C31.8746 130.167 31.8746 129.346 32.3763 128.841L34.8166 126.379C35.3178 125.874 36.1316 125.874 36.6328 126.379L39.0731 128.841C39.5748 129.346 39.5748 130.167 39.0731 130.672C38.8227 130.925 38.4939 131.052 38.1651 131.052Z" fill="black"/>
<path d="M104.165 5.05175C103.837 5.05175 103.507 4.92532 103.257 4.67221L101.725 3.12714L100.192 4.67221C99.6912 5.17817 98.8774 5.17817 98.3763 4.67221C97.8746 4.16652 97.8746 3.34631 98.3763 2.84061L100.817 0.379469C101.318 -0.12649 102.132 -0.12649 102.633 0.379469L105.073 2.84061C105.575 3.34631 105.575 4.16652 105.073 4.67221C104.823 4.92532 104.494 5.05175 104.165 5.05175Z" fill="black"/>
<path d="M17.3384 90.5854C17.0096 90.5854 16.6811 90.459 16.4301 90.2059L14.898 88.6608L13.366 90.2059C12.8643 90.7119 12.0513 90.7119 11.5496 90.2059C11.0479 89.7002 11.0479 88.88 11.5496 88.3743L13.99 85.9132C14.4917 85.4072 15.3047 85.4072 15.8064 85.9132L18.2467 88.3743C18.7484 88.88 18.7484 89.7002 18.2467 90.2059C17.9958 90.4588 17.6672 90.5854 17.3384 90.5854Z" fill="black"/>
<path fill-rule="evenodd" clip-rule="evenodd" d="M87.5571 109.732C88.283 110.464 89.2368 110.83 90.1909 110.83C91.1447 110.83 92.0985 110.464 92.8244 109.732C94.2766 108.268 94.2766 105.884 92.8244 104.42C91.3723 102.955 89.0087 102.955 87.5571 104.42C86.1047 105.884 86.1047 108.268 87.5571 109.732ZM89.3732 106.251C89.5988 106.024 89.8949 105.911 90.1909 105.911C90.4868 105.911 90.7827 106.024 91.008 106.251C91.4586 106.706 91.4586 107.446 91.008 107.9C90.5569 108.355 89.8243 108.355 89.3732 107.9C88.9227 107.446 88.9227 106.706 89.3732 106.251Z" fill="black"/>
<path fill-rule="evenodd" clip-rule="evenodd" d="M106.986 32.942C107.712 33.6744 108.666 34.0404 109.62 34.0404C110.573 34.0404 111.527 33.6744 112.253 32.942C113.705 31.4775 113.705 29.0943 112.253 27.6298C110.801 26.1648 108.437 26.1653 106.986 27.6298C105.533 29.0943 105.533 31.4775 106.986 32.942ZM108.802 29.4614C109.027 29.2342 109.324 29.1208 109.62 29.1208C109.915 29.1208 110.211 29.2342 110.437 29.4614C110.887 29.9161 110.887 30.6555 110.437 31.1101C109.985 31.5648 109.253 31.5643 108.802 31.1101C108.351 30.6555 108.351 29.9161 108.802 29.4614Z" fill="black"/>
</svg>
