<svg width="150" height="152" viewBox="0 0 150 152" fill="none" xmlns="http://www.w3.org/2000/svg">
<path d="M46.4325 125.797C51.8009 128.896 58.2381 129.369 65.0242 127.622C69.7461 126.407 74.6212 125.939 79.4861 126.243C95.0432 127.213 108.92 121.566 115.633 109.937C120.404 101.673 120.75 91.7877 117.458 82.0975C115.279 75.6833 114.714 68.8469 115.674 62.1378C118 45.8861 114.068 32.0554 103.933 26.2036C93.797 20.3519 79.8535 23.8624 66.942 34.0024C61.6116 38.1885 55.4087 41.1173 48.7642 42.4374C38.7261 44.4314 30.3376 49.6737 25.5666 57.9374C18.8528 69.566 20.9001 84.407 29.5192 97.3946C32.2146 101.456 34.2473 105.912 35.5553 110.609C37.4354 117.359 41.0641 122.697 46.4325 125.797Z" fill="#81CFFA"/>
<path d="M53.6826 27C53.4268 27 53.1706 26.9024 52.9756 26.7072C52.585 26.3166 52.585 25.6833 52.9756 25.2929L54.9756 23.2928C55.3658 22.9024 55.9995 22.9024 56.3897 23.2928C56.7803 23.6834 56.7803 24.3167 56.3897 24.7071L54.3896 26.7072C54.1946 26.9024 53.9384 27 53.6826 27Z" fill="black"/>
<path d="M118.683 87C118.427 87 118.171 86.9024 117.976 86.7072C117.585 86.3166 117.585 85.6833 117.976 85.2929L119.976 83.2928C120.366 82.9024 120.999 82.9024 121.39 83.2928C121.78 83.6834 121.78 84.3167 121.39 84.7071L119.39 86.7072C119.194 86.9022 118.938 87 118.683 87Z" fill="black"/>
<path d="M63.8334 119C63.5349 119 63.236 118.902 63.0085 118.707L61.5 117.414L59.9915 118.707C59.5362 119.098 58.797 119.098 58.3418 118.707C57.8861 118.317 57.8861 117.683 58.3418 117.293L60.6752 115.293C61.1304 114.902 61.8696 114.902 62.3248 115.293L64.6582 117.293C65.1139 117.684 65.1139 118.317 64.6582 118.707C64.4307 118.902 64.132 119 63.8334 119Z" fill="black"/>
<path d="M108.516 27C108.218 27 107.919 26.9024 107.691 26.7072L106.183 25.4143L104.674 26.7072C104.219 27.0976 103.48 27.0976 103.024 26.7072C102.569 26.3166 102.569 25.6833 103.024 25.2929L105.358 23.2928C105.813 22.9024 106.552 22.9024 107.007 23.2928L109.341 25.2929C109.797 25.6835 109.797 26.3168 109.341 26.7072C109.113 26.9024 108.814 27 108.516 27Z" fill="black"/>
<path d="M101.873 46L107.873 40" stroke="#77A868" stroke-width="2" stroke-linecap="round"/>
<path d="M103.461 38.1006L110.366 31.1962L117.269 38.0994L110.365 45.0038L103.461 38.1006Z" fill="#77A868"/>
<path d="M69.5397 34C70.6414 33.9178 71.7497 33.8619 72.873 33.8619C73.9964 33.8619 75.1047 33.9178 76.2064 34V28.931H80.373C81.753 28.931 82.873 27.8264 82.873 26.4655C82.873 25.1045 81.753 24 80.373 24H65.373C63.993 24 62.873 25.1045 62.873 26.4655C62.873 27.8264 63.993 28.931 65.373 28.931H69.5397V34Z" fill="#77A868"/>
<path d="M72.6753 34C69.4163 34 66.2482 34.3841 63.2019 35.0887V45.4423H50.2179C49.3204 45.4423 48.5949 46.173 48.5949 47.0769C48.5949 47.9809 49.3204 48.7115 50.2179 48.7115H63.2019V56.8846H42.103C41.2055 56.8846 40.48 57.6153 40.48 58.5192C40.48 59.4232 41.2055 60.1538 42.103 60.1538H63.2019V68.3269H33.988C33.0905 68.3269 32.365 69.0576 32.365 69.9615C32.365 70.8655 33.0905 71.5962 33.988 71.5962H63.2019V79.7692H27.496C26.5985 79.7692 25.873 80.4999 25.873 81.4038C25.873 82.3078 26.5985 83.0385 27.496 83.0385H63.2019V91.2115H37.234C36.3365 91.2115 35.611 91.9422 35.611 92.8462C35.611 93.7501 36.3365 94.4808 37.234 94.4808H63.2019V102.654H46.9719C46.0744 102.654 45.3489 103.385 45.3489 104.288C45.3489 105.192 46.0744 105.923 46.9719 105.923H63.2019V117.911C66.2482 118.616 69.4163 119 72.6753 119C95.9798 119 114.873 99.9714 114.873 76.5C114.873 53.0286 95.9798 34 72.6753 34Z" fill="#80BA6E" stroke="#2149FE" stroke-width="3"/>
<path d="M96.3967 58.4749C95.8312 57.9126 94.9407 57.8411 94.2956 58.3059L73.2566 73.5248C71.8851 74.5226 71.0222 76.0647 70.8906 77.7565C70.759 79.4482 71.3716 81.1041 72.5692 82.3018C73.6629 83.3971 75.1156 84 76.6594 84C78.5086 84 80.2604 83.1078 81.3492 81.6111L96.5641 60.5761C97.0321 59.9294 96.9622 59.0388 96.3967 58.4749Z" fill="white"/>
<path d="M72.9688 32C72.0726 32 71.3481 32.7284 71.3481 33.6296V38.5185C71.3481 39.4197 72.0726 40.1481 72.9688 40.1481C73.8651 40.1481 74.5895 39.4197 74.5895 38.5185V33.6296C74.5895 32.7284 73.8651 32 72.9688 32Z" fill="white"/>
<path d="M72.9688 111.852C72.0726 111.852 71.3481 112.58 71.3481 113.482V118.371C71.3481 119.272 72.0726 120 72.9688 120C73.8651 120 74.5895 119.272 74.5895 118.371V113.482C74.5895 112.58 73.8651 111.852 72.9688 111.852Z" fill="white"/>
<path d="M114.842 74.3706H109.98C109.084 74.3706 108.359 75.099 108.359 76.0002C108.359 76.9014 109.084 77.6299 109.98 77.6299H114.842C115.738 77.6299 116.463 76.9014 116.463 76.0002C116.463 75.099 115.738 74.3706 114.842 74.3706Z" fill="white"/>
<path d="M94.5838 37.8944C93.8075 37.443 92.8172 37.7119 92.3699 38.4909L89.9389 42.7263C89.4916 43.5069 89.7574 44.5026 90.5321 44.9523C90.7865 45.1006 91.0653 45.1707 91.3408 45.1707C91.9015 45.1707 92.4461 44.8774 92.7459 44.3559L95.177 40.1205C95.6243 39.3415 95.3585 38.3442 94.5838 37.8944Z" fill="white"/>
<path d="M110.006 95.7741L105.796 93.3297C105.021 92.8783 104.029 93.1439 103.582 93.9261C103.135 94.7067 103.4 95.7024 104.175 96.1522L108.386 98.5967C108.642 98.745 108.919 98.815 109.194 98.815C109.755 98.815 110.3 98.5233 110.6 98.0002C111.048 97.2196 110.783 96.2239 110.006 95.7741Z" fill="white"/>
<path d="M92.746 107.646C92.2971 106.863 91.3036 106.596 90.5322 107.049C89.7558 107.499 89.4901 108.496 89.939 109.275L92.37 113.509C92.6715 114.032 93.2144 114.324 93.7752 114.324C94.0507 114.324 94.3294 114.254 94.5839 114.105C95.3602 113.656 95.626 112.658 95.1771 111.879L92.746 107.646Z" fill="white"/>
<path d="M104.989 58.8886C105.264 58.8886 105.543 58.8186 105.797 58.6703L110.008 56.2258C110.784 55.7761 111.05 54.7787 110.601 53.9998C110.154 53.2192 109.159 52.9503 108.387 53.4033L104.177 55.8478C103.4 56.2975 103.135 57.2932 103.584 58.0738C103.883 58.5969 104.428 58.8886 104.989 58.8886Z" fill="white"/>
</svg>
