<svg width="116" height="105" viewBox="0 0 116 105" fill="none" xmlns="http://www.w3.org/2000/svg">
<path d="M115.683 53C115.683 46.8011 112.874 40.9896 107.968 35.9862C104.554 32.5048 101.712 28.5166 99.5422 24.1517C92.6042 10.1935 80.7752 1 67.3476 1C57.8055 1 49.0713 5.64353 42.3254 13.3397C37.8602 18.434 32.2223 22.3417 25.9319 24.8647C10.6946 30.9763 0.682617 41.2965 0.682617 53C0.682617 64.7035 10.6946 75.0237 25.9319 81.1353C32.2223 83.6586 37.8602 87.566 42.3256 92.6603C49.0716 100.356 57.8057 105 67.3478 105C80.7754 105 92.6045 95.8065 99.5424 81.8483C101.712 77.4834 104.554 73.4952 107.968 70.0138C112.874 65.0104 115.683 59.1989 115.683 53Z" fill="#81CFFA"/>
<circle cx="48" cy="41" r="32" fill="#77A868"/>
<circle cx="47.5" cy="40.5" r="23.5" fill="white"/>
<path fill-rule="evenodd" clip-rule="evenodd" d="M40.0002 33.2885C40.0002 28.7109 43.5818 25 48 25C52.4182 25 55.9998 28.7109 55.9998 33.2885C56.0457 41.1931 48 51 48 51C48 51 39.9543 41.1963 40.0002 33.2885ZM45.185 33.2885C45.185 34.8993 46.4453 36.2051 48 36.2051V36.2074C48.747 36.2076 49.4635 35.9001 49.9915 35.3526C50.5195 34.8051 50.8158 34.0625 50.815 33.2885C50.815 31.6777 49.5547 30.372 48 30.372C46.4453 30.372 45.185 31.6777 45.185 33.2885Z" fill="#2149FE"/>
<path d="M51.5224 45.9609C50.4495 47.6701 49.2726 49.3107 47.9982 50.8732C46.7237 49.3107 45.5468 47.6701 44.4739 45.9609C38.7274 46.5445 34.4985 48.5226 34.4985 50.8732C34.4985 53.683 40.5429 55.9609 47.9989 55.9609C55.455 55.9609 61.4985 53.6845 61.4985 50.8732C61.4985 48.5226 57.2689 46.5445 51.5224 45.9609Z" fill="#8CC27B"/>
<path d="M104.828 87.341L75.4873 58L75.4572 58.0309C72.8333 62.2647 69.2647 65.8333 65.0309 68.4572L65 68.4873L94.341 97.8283C97.2372 100.724 101.932 100.724 104.828 97.8283C107.724 94.9322 107.724 90.2372 104.828 87.341Z" fill="#8CC27B"/>
<path fill-rule="evenodd" clip-rule="evenodd" d="M27.7042 55.1357C21.1262 45.2889 22.4201 32.1666 30.7945 23.7941C35.4395 19.1248 41.7594 16.5076 48.3457 16.5261C60.1876 16.5269 70.3798 24.8927 72.6891 36.5072C74.9984 48.1217 68.7816 59.7501 57.8407 64.2808C46.8999 68.8114 34.2821 64.9825 27.7042 55.1357ZM52.6553 63.008C62.9896 60.952 70.4324 51.8822 70.432 41.3453C70.448 35.4846 68.1184 29.861 63.9627 25.7284C56.5118 18.2779 44.8355 17.1282 36.0746 22.9825C27.3138 28.8367 23.9083 40.0643 27.9409 49.7989C31.9735 59.5336 42.321 65.064 52.6553 63.008Z" fill="#2149FE"/>
<path d="M105.412 86.1332L77.2147 57.9386C86.2209 42.2402 81.054 22.2233 65.5749 12.8453C64.9345 12.5032 64.1384 12.7212 63.7615 13.3417C63.3847 13.9623 63.5584 14.7692 64.1572 15.1797C78.0444 23.5708 82.9549 41.3506 75.3428 55.6795C67.7306 70.0084 50.2489 75.8924 35.5218 69.0824C20.7947 62.2724 13.9552 45.1419 19.9423 30.0616C25.9294 14.9812 42.6565 7.20696 58.0442 12.353C58.5077 12.5077 59.0185 12.4033 59.3842 12.0793C59.7499 11.7552 59.915 11.2607 59.8172 10.782C59.7194 10.3032 59.3736 9.91303 58.9101 9.75835C44.3909 4.91218 28.4381 10.5905 20.2462 23.5207C12.0544 36.4508 13.7346 53.3005 24.3185 64.3584C34.9024 75.4162 51.6624 77.8325 64.9387 70.2146L73.5354 78.8112C74.0693 79.3452 74.9349 79.3452 75.4688 78.8112C76.0027 78.2773 76.0027 77.4117 75.4688 76.8778L67.3036 68.7141C70.5954 66.4455 73.4456 63.5953 75.7142 60.3035L103.478 88.0667C104.981 89.5693 105.567 91.7592 105.017 93.8116C104.467 95.864 102.864 97.4671 100.812 98.0169C98.7591 98.5668 96.5692 97.9799 95.0668 96.4773L87.2853 88.6966C86.7514 88.1627 85.8857 88.1627 85.3518 88.6966C84.8179 89.2305 84.8179 90.0961 85.3518 90.6301L93.1334 98.4116C95.3267 100.605 98.5235 101.461 101.52 100.659C104.516 99.8559 106.856 97.5156 107.659 94.5195C108.462 91.5234 107.605 88.3265 105.412 86.1332Z" fill="#2149FE"/>
<path d="M36.6826 4C36.4268 4 36.1706 3.9024 35.9756 3.70719C35.585 3.31657 35.585 2.68333 35.9756 2.29291L37.9756 0.292815C38.3658 -0.0976049 38.9995 -0.0976049 39.3897 0.292815C39.7803 0.683434 39.7803 1.31667 39.3897 1.70709L37.3896 3.70719C37.1946 3.9024 36.9384 4 36.6826 4Z" fill="black"/>
<path d="M101.683 64C101.427 64 101.171 63.9024 100.976 63.7072C100.585 63.3166 100.585 62.6833 100.976 62.2929L102.976 60.2928C103.366 59.9024 103.999 59.9024 104.39 60.2928C104.78 60.6834 104.78 61.3167 104.39 61.7071L102.39 63.7072C102.194 63.9022 101.938 64 101.683 64Z" fill="black"/>
<path d="M46.8334 96C46.5349 96 46.236 95.9024 46.0085 95.7072L44.5 94.4143L42.9915 95.7072C42.5362 96.0976 41.797 96.0976 41.3418 95.7072C40.8861 95.3166 40.8861 94.6833 41.3418 94.2929L43.6752 92.2928C44.1304 91.9024 44.8696 91.9024 45.3248 92.2928L47.6582 94.2929C48.1139 94.6835 48.1139 95.3168 47.6582 95.7072C47.4307 95.9024 47.132 96 46.8334 96Z" fill="black"/>
<path d="M91.516 4C91.2176 4 90.9186 3.9024 90.6911 3.70719L89.1826 2.41432L87.6741 3.70719C87.2189 4.0976 86.4796 4.0976 86.0244 3.70719C85.5687 3.31657 85.5687 2.68333 86.0244 2.29291L88.3578 0.292815C88.813 -0.0976049 89.5522 -0.0976049 90.0075 0.292815L92.3408 2.29291C92.7965 2.68353 92.7965 3.31677 92.3408 3.70719C92.1131 3.9024 91.8144 4 91.516 4Z" fill="black"/>
</svg>
