<svg width="132" height="137" viewBox="0 0 132 137" fill="none" xmlns="http://www.w3.org/2000/svg">
<path d="M67.5861 106.03C69.1724 106.694 70.8256 107.254 72.5395 107.699C91.68 112.671 111.432 101.304 116.65 82.314C121.971 62.9469 110.441 42.9599 90.9879 37.7476C89.3722 37.3146 87.7529 36.9976 86.1388 36.7909C79.5983 35.954 74.1497 31.3393 72.1632 25.0718C69.3698 16.2586 64.4515 10.1095 57.7807 8.32208C42.3179 4.17886 23.2937 25.0378 15.289 54.9119C7.28425 84.7861 13.3302 112.363 28.7929 116.506C35.4638 118.293 42.7977 115.427 49.6236 109.191C54.4777 104.756 61.5035 103.484 67.5861 106.03Z" fill="#81CFFA"/>
<path fill-rule="evenodd" clip-rule="evenodd" d="M29.5 108.5L65.7915 107.976L65.2725 98.9289L62.2964 92.9887L55 89.9729L52.5666 89.1899L55.5198 84.8865V74.3757V68.2129L44.2288 68.9111L40.8645 71.4843L39.7717 78.5941L40.8645 85.4788L42.9758 89.1899L39.3572 90.5507L34.8855 92.0002L30.9398 95.3883L29.5 101V108.5Z" fill="#77A868"/>
<path fill-rule="evenodd" clip-rule="evenodd" d="M54.8133 87.4652C54.7046 87.4347 54.5934 87.4175 54.4814 87.4115C56.1278 85.7039 57.1418 83.3969 57.1418 80.8594V73.0558C57.1418 72.9845 57.1349 72.9149 57.1251 72.8464C57.135 72.7055 57.1418 72.5637 57.1418 72.4204V67.4833C57.1418 66.6641 56.4689 66 55.6387 66H45.5574C41.3121 66 37.8584 69.4084 37.8584 73.5977V80.8594C37.8584 83.3969 38.8722 85.7039 40.5187 87.4115C40.4069 87.4175 40.2957 87.4347 40.1872 87.4652C33.0843 88.0999 27.5 94.0079 27.5 101.18V107.517C27.5 108.336 28.1729 109 29.003 109H65.997C66.8271 109 67.5 108.336 67.5 107.517V101.18C67.5 94.008 61.916 88.1 54.8133 87.4652ZM40.8644 75.4786V73.5975C40.8644 71.044 42.9698 68.9664 45.5574 68.9664H54.1357V72.4203C54.1357 74.1591 52.7023 75.5737 50.9402 75.5737H40.8644V75.4786ZM50.9402 78.5402H40.8644V80.8592C40.8644 84.4699 43.8412 87.4075 47.5001 87.4075C51.1589 87.4075 54.1357 84.4699 54.1357 80.8592V77.663C53.2019 78.2195 52.1084 78.5402 50.9402 78.5402ZM50.7714 90.3742L47.5001 93.6026L44.2287 90.3742H50.7714ZM30.5061 103.067V106.033H64.4941V101.18C64.4941 95.6856 60.3162 91.1392 54.9317 90.4639L48.5629 96.7489C48.2811 97.027 47.8987 97.1834 47.5001 97.1834C47.1015 97.1834 46.7191 97.027 46.4373 96.7489L40.0684 90.4639C35.0409 91.0946 31.0658 95.0995 30.5609 100.1H36.7437C37.5738 100.1 38.2467 100.765 38.2467 101.584C38.2467 102.403 37.5738 103.067 36.7437 103.067H30.5061Z" fill="#2149FE"/>
<path fill-rule="evenodd" clip-rule="evenodd" d="M65.5 73.4999L101.791 72.976L101.273 63.9286L98.2964 57.9884L91 54.9726L88.5666 54.1896L91.5198 49.8862V39.3754C91.5198 39.3754 96.933 40.8257 96.933 39.3754C96.933 37.925 95.8287 33.2485 95.8287 33.2485L80.2288 33.9109L76.8645 36.484L75.7717 43.5938L76.8645 50.4785L78.9758 54.1896L75.3572 55.5504L70.8855 56.9999L66.9398 60.388L65.5 65.9999V73.4999Z" fill="#8CC27B"/>
<path fill-rule="evenodd" clip-rule="evenodd" d="M90.4815 53.4117C90.5936 53.4176 90.705 53.4348 90.8136 53.4654C97.9161 54.1003 103.5 60.0083 103.5 67.1798V73.5167C103.5 74.3359 102.827 75 101.997 75H89.4215C88.5914 75 87.9185 74.3359 87.9185 73.5167C87.9185 72.6975 88.5914 72.0335 89.4215 72.0335H100.494V67.1798C100.494 61.6857 96.3162 57.1395 90.9315 56.4641L84.5626 62.7491C84.2693 63.0387 83.8845 63.1835 83.4998 63.1835C83.1152 63.1835 82.7306 63.0387 82.4371 62.7491L76.0682 56.4641C70.6838 57.1394 66.5061 61.6857 66.5061 67.1798V72.0333H77.0965C77.9266 72.0333 78.5995 72.6974 78.5995 73.5166C78.5995 74.3358 77.9266 74.9999 77.0965 74.9999H65.003C64.1729 74.9999 63.5 74.3358 63.5 73.5166V67.1797C63.5 60.0082 69.0838 54.1002 76.1864 53.4652C76.295 53.4347 76.4066 53.4175 76.5185 53.4115C74.8721 51.7039 73.8583 49.3969 73.8583 46.8594V39.5977C73.8583 35.4084 77.312 32 81.5573 32H96.7322C97.5623 32 98.2352 32.6641 98.2352 33.4833V38.4204C98.2352 38.5637 98.2284 38.7055 98.2185 38.8464C98.3587 39.8296 97.428 40.6466 96.4348 40.6466H93.1417C93.1417 40.786 93.1427 40.9682 93.1439 41.1849V41.1849V41.185C93.1537 42.9814 93.1766 47.1453 92.7504 48.8935C92.2924 50.7726 91.2875 52.5756 90.4815 53.4117ZM80.2288 56.3743L83.5002 59.6026L86.7715 56.3743H80.2288ZM83.5002 53.4077C79.8413 53.4077 76.8645 50.4702 76.8645 46.8595V42.003H86.9403H90.1358V46.8594C90.1358 50.4701 87.159 53.4077 83.5002 53.4077ZM86.9403 39.0558H95.2293V34.9665H81.5575C81.3457 34.9665 81.1262 34.9736 80.9037 34.9861C78.7807 35.1055 77.1947 36.8602 76.8645 38.9608V39.0558H86.9403Z" fill="#2149FE"/>
<path d="M47.8171 38.3872C51.9088 36.0113 56.882 35.7093 61.2267 37.5729L58.6209 39.0774L60.1208 41.6753L65.3234 38.6716C65.9202 38.327 66.2062 37.621 66.0171 36.9591L64.318 31.0124L61.4306 31.8394L62.2627 34.7512C55.1324 31.7853 46.1682 33.561 41.794 39.4962C37.4199 45.4313 38.066 50.7891 38.066 58.1006L41.5898 58.1006C41.5898 50.2196 40.6419 42.5407 47.8171 38.3872Z" fill="white"/>
<path d="M91.6873 99.3193C87.5956 101.695 82.6223 101.997 78.2777 100.134L80.8835 98.6291L79.3836 96.0312L74.181 99.0349C73.5842 99.3795 73.2981 100.086 73.4873 100.747L75.1864 106.694L78.0738 105.867L77.2417 102.955C84.372 105.921 93.3362 104.146 97.7104 98.2104C102.085 92.2752 101.438 86.9175 101.438 79.6059L97.9146 79.6059C97.9146 87.487 98.8625 95.1659 91.6873 99.3193Z" fill="white"/>
<path d="M106 61C105.744 61 105.488 60.9024 105.293 60.707C104.902 60.3166 104.902 59.6834 105.293 59.293L107.293 57.293C107.683 56.9023 108.317 56.9023 108.707 57.293C109.098 57.6834 109.098 58.3166 108.707 58.707L106.707 60.707C106.512 60.9024 106.256 61 106 61Z" fill="black"/>
<path d="M22 89C21.7442 89 21.488 88.9024 21.293 88.707C20.9023 88.3166 20.9023 87.6834 21.293 87.293L23.293 85.293C23.6832 84.9023 24.3168 84.9023 24.707 85.293C25.0977 85.6834 25.0977 86.3166 24.707 86.707L22.707 88.707C22.512 88.9024 22.256 89 22 89Z" fill="black"/>
<path d="M31.8334 53C31.5349 53 31.236 52.9024 31.0085 52.707L29.5 51.4142L27.9915 52.707C27.5362 53.0976 26.797 53.0976 26.3418 52.707C25.8861 52.3166 25.8861 51.6834 26.3418 51.293L28.6752 49.293C29.1304 48.9023 29.8696 48.9023 30.3248 49.293L32.6582 51.293C33.1139 51.6834 33.1139 52.3166 32.6582 52.707C32.4307 52.9024 32.132 53 31.8334 53Z" fill="black"/>
<path d="M102.833 23C102.535 23 102.236 22.9024 102.009 22.707L100.5 21.4142L98.9915 22.707C98.5362 23.0976 97.797 23.0976 97.3418 22.707C96.8861 22.3166 96.8861 21.6834 97.3418 21.293L99.6752 19.293C100.13 18.9023 100.87 18.9023 101.325 19.293L103.658 21.293C104.114 21.6834 104.114 22.3166 103.658 22.707C103.43 22.9024 103.132 23 102.833 23Z" fill="black"/>
<path d="M109.833 101C109.535 101 109.236 100.902 109.009 100.707L107.5 99.4142L105.991 100.707C105.536 101.098 104.797 101.098 104.342 100.707C103.886 100.317 103.886 99.6834 104.342 99.293L106.675 97.293C107.13 96.9023 107.87 96.9023 108.325 97.293L110.658 99.293C111.114 99.6834 111.114 100.317 110.658 100.707C110.43 100.902 110.132 101 109.833 101Z" fill="black"/>
<path d="M109.833 101C109.535 101 109.236 100.902 109.009 100.707L107.5 99.4142L105.991 100.707C105.536 101.098 104.797 101.098 104.342 100.707C103.886 100.317 103.886 99.6834 104.342 99.293L106.675 97.293C107.13 96.9023 107.87 96.9023 108.325 97.293L110.658 99.293C111.114 99.6834 111.114 100.317 110.658 100.707C110.43 100.902 110.132 101 109.833 101Z" fill="black"/>
<path d="M45.8334 9C45.5349 9 45.236 9.0976 45.0085 9.293L43.5 10.5858L41.9915 9.293C41.5362 8.9024 40.797 8.9024 40.3418 9.293C39.8861 9.68341 39.8861 10.3166 40.3418 10.707L42.6752 12.707C43.1304 13.0977 43.8696 13.0977 44.3248 12.707L46.6582 10.707C47.1139 10.3166 47.1139 9.68341 46.6582 9.293C46.4305 9.0976 46.1318 9 45.8334 9Z" fill="black"/>
</svg>
